<?xml version="1.0" encoding="UTF-8"?><svg id="Layer_1" xmlns="http://www.w3.org/2000/svg" xmlns:xlink="http://www.w3.org/1999/xlink" viewBox="0 0 414.89 162.89"><defs><style>.cls-1{fill:url(#linear-gradient-2);}.cls-2{fill:url(#linear-gradient-3);}.cls-3{fill:url(#linear-gradient);}.cls-4{fill:url(#linear-gradient-4);}</style><linearGradient id="linear-gradient" x1="202.24" y1="43.31" x2="263.05" y2="132.16" gradientUnits="userSpaceOnUse"><stop offset="0" stop-color="#001be8"/><stop offset=".16" stop-color="#0019d9"/><stop offset=".44" stop-color="#0016c5"/><stop offset=".72" stop-color="#0015b9"/><stop offset="1" stop-color="#0015b5"/></linearGradient><linearGradient id="linear-gradient-2" x1="40.52" y1="30.47" x2="98.81" y2="124.48" gradientUnits="userSpaceOnUse"><stop offset="0" stop-color="#001be8"/><stop offset=".19" stop-color="#0018d3"/><stop offset=".43" stop-color="#0016c2"/><stop offset=".69" stop-color="#0015b8"/><stop offset="1" stop-color="#0015b5"/></linearGradient><linearGradient id="linear-gradient-3" x1="312.78" y1="30.78" x2="367.83" y2="116.96" gradientUnits="userSpaceOnUse"><stop offset="0" stop-color="#001be8"/><stop offset=".38" stop-color="#0017cd"/><stop offset=".74" stop-color="#0015bb"/><stop offset="1" stop-color="#0015b5"/></linearGradient><linearGradient id="linear-gradient-4" x1="136.43" y1="44.87" x2="167.45" y2="119.63" gradientUnits="userSpaceOnUse"><stop offset="0" stop-color="#001be8"/><stop offset=".38" stop-color="#0017cd"/><stop offset=".74" stop-color="#0015bb"/><stop offset="1" stop-color="#0015b5"/></linearGradient></defs><path class="cls-3" d="m255.55,116.06h-47.82c-1.55,6.91-2.96,13.74-4.62,20.51-1.95,7.94-4.58,9.93-12.51,9.98-16.34.11-16.98-.69-13.67-16.73,5.26-25.49,10.38-51,15.75-76.46,4.97-23.56,18.65-35.46,42.48-36.47,13.01-.55,26.06-.09,39.09-.2,5.22-.04,7.65,2.85,8.48,7.52.31,1.76.25,3.59.25,5.39.01,34.68.03,69.36,0,104.05,0,10.84-2.16,12.91-13.07,12.91-12.64,0-14.34-1.73-14.36-14.67,0-5.15,0-10.3,0-15.83h0Zm-42.33-27.34c13.62,0,26.38.11,39.13-.2,1.1-.03,2.99-2.84,3.05-4.42.31-7.99.14-16,.13-24v-16.87c-5.99,0-10.97-.03-15.95,0-10.3.06-17.2,4.97-19.75,14.92-2.47,9.64-4.24,19.46-6.62,30.57h0Z"/><path class="cls-1" d="m97.47,100.94c-4.61,0-8.84.36-12.96-.14-2.32-.29-6.24-1.8-6.39-3.11-.72-6.13-.7-12.42-.13-18.57.12-1.25,3.74-3.04,5.79-3.1,11.02-.31,22.05-.13,33.08-.17,5.04-.02,7.52,3.05,7.8,7.43.8,12.65.65,25.29-3.95,37.39-6.22,16.35-19.87,25.84-37.43,26.04-7.62.09-15.24.05-22.86.03-18.22-.05-31.49-8.71-38.15-25.17-10.49-25.9-10.36-52.61-.29-78.61,6.74-17.42,21.05-25.89,39.52-26.28,11.35-.24,23.13-.79,34.01,1.79,13.83,3.28,24.45,12.03,26.95,27.48,1.17,7.22-1.05,12.35-5.59,13.79-7.76,2.47-16,.14-18.72-6.2-3.46-8.06-9.44-10.83-17.64-10.59-6.01.17-12.04-.07-18.04.2-8.78.39-15.07,4.88-17.16,13.33-4.21,16.97-4.25,34.15,0,51.11,2.2,8.77,7.66,12.44,16.73,12.63,6.41.14,12.84.2,19.24-.03,11.16-.41,16.93-7.08,16.2-19.24h-.01Z"/><path class="cls-2" d="m328.92,117.7c0,6.68.07,12.28-.02,17.88-.13,8.12-2.9,10.89-10.79,10.98-15.36.17-16.68-1.14-16.68-16.66,0-33.06-.01-66.12-.01-99.18,0-11.7,2.27-13.99,13.95-14,15.23-.02,30.45-.07,45.68.03,23.36.14,37.31,11.74,41.17,34.6,2.22,13.16,2.12,26.36-1.74,39.29-5.07,16.99-17.78,26.72-35.48,27.03-11.77.2-23.54.04-36.09.04h0Zm.55-75.03v48.45c9.94,0,19.38.43,28.75-.13,7.78-.47,14.89-3.58,16.81-12.04,2.42-10.63,3.77-21.57-4.66-30.58-1.78-1.9-4.79-3.44-7.36-3.66-11.07-.98-22.2-1.4-33.53-2.04h-.01Z"/><path class="cls-4" d="m165.29,81.74c0,17.43.02,34.86,0,52.29-.02,10.03-2.49,12.52-12.31,12.53-2,0-4.01-.06-6.01,0-5.09.13-7.95-2.6-8.67-7.34-.54-3.53-.49-7.17-.49-10.77-.03-32.25-.03-64.51,0-96.76,0-2.39.11-4.81.44-7.17.18-1.35.64-2.82,1.43-3.89,5.14-6.92,12.58-3.73,18.94-3.49,5.15.2,6.65,5.15,6.66,9.92.04,18.23.02,36.46.03,54.69h-.02Z"/></svg>