<?xml version="1.0" encoding="UTF-8"?><svg id="Layer_1" xmlns="http://www.w3.org/2000/svg" xmlns:xlink="http://www.w3.org/1999/xlink" viewBox="0 0 411 137.86"><defs><style>.cls-1{fill:url(#linear-gradient-2);}.cls-2{fill:url(#linear-gradient-3);}.cls-3{fill:url(#linear-gradient);}.cls-4{fill:url(#linear-gradient-4);}</style><linearGradient id="linear-gradient" x1="198.31" y1="109.9" x2="262.51" y2="16.09" gradientTransform="translate(0 138.52) scale(1 -1)" gradientUnits="userSpaceOnUse"><stop offset="0" stop-color="#001be8"/><stop offset=".16" stop-color="#0019d9"/><stop offset=".44" stop-color="#0016c5"/><stop offset=".72" stop-color="#0015b9"/><stop offset="1" stop-color="#0015b5"/></linearGradient><linearGradient id="linear-gradient-2" x1="27.56" y1="123.45" x2="89.1" y2="24.2" gradientTransform="translate(0 138.52) scale(1 -1)" gradientUnits="userSpaceOnUse"><stop offset="0" stop-color="#001be8"/><stop offset=".19" stop-color="#0018d3"/><stop offset=".43" stop-color="#0016c2"/><stop offset=".69" stop-color="#0015b8"/><stop offset="1" stop-color="#0015b5"/></linearGradient><linearGradient id="linear-gradient-3" x1="315.02" y1="123.13" x2="373.15" y2="32.14" gradientTransform="translate(0 138.52) scale(1 -1)" gradientUnits="userSpaceOnUse"><stop offset="0" stop-color="#001be8"/><stop offset=".38" stop-color="#0017cd"/><stop offset=".74" stop-color="#0015bb"/><stop offset="1" stop-color="#0015b5"/></linearGradient><linearGradient id="linear-gradient-4" x1="128.82" y1="108.25" x2="161.58" y2="29.32" gradientTransform="translate(0 138.52) scale(1 -1)" gradientUnits="userSpaceOnUse"><stop offset="0" stop-color="#001be8"/><stop offset=".38" stop-color="#0017cd"/><stop offset=".74" stop-color="#0015bb"/><stop offset="1" stop-color="#0015b5"/></linearGradient></defs><path class="cls-3" d="m254.6,105.44h-50.49c-1.64,7.3-3.13,14.51-4.88,21.66-2.06,8.38-4.84,10.48-13.21,10.54-17.25.12-17.93-.73-14.43-17.66,5.55-26.91,10.96-53.85,16.63-80.73C193.46,14.36,207.91,1.8,233.07.73c13.74-.58,27.51-.1,41.27-.21,5.51-.04,8.08,3.01,8.95,7.94.33,1.86.26,3.79.26,5.69.01,36.62.03,73.23,0,109.86,0,11.45-2.28,13.63-13.8,13.63-13.35,0-15.14-1.83-15.16-15.49v-16.71h0Zm-44.69-28.87c14.38,0,27.85.12,41.31-.21,1.16-.03,3.16-3,3.22-4.67.33-8.44.15-16.89.14-25.34v-17.81c-6.32,0-11.58-.03-16.84,0-10.88.06-18.16,5.25-20.85,15.75-2.61,10.18-4.48,20.55-6.99,32.28h.01Z"/><path class="cls-1" d="m87.69,89.47c-4.87,0-9.33.38-13.68-.15-2.45-.31-6.59-1.9-6.75-3.28-.76-6.47-.74-13.11-.14-19.61.13-1.32,3.95-3.21,6.11-3.27,11.64-.33,23.28-.14,34.93-.18,5.32-.02,7.94,3.22,8.24,7.84.84,13.36.69,26.7-4.17,39.48-6.57,17.26-20.98,27.28-39.52,27.49-8.05.1-16.09.05-24.14.03-19.24-.05-33.25-9.2-40.28-26.58-11.08-27.35-10.94-55.55-.31-83C15.1,9.86,30.21.92,49.71.51c11.98-.25,24.42-.83,35.91,1.89,14.6,3.46,25.81,12.7,28.45,29.01,1.24,7.62-1.11,13.04-5.9,14.56-8.19,2.61-16.89.15-19.77-6.55-3.65-8.51-9.97-11.43-18.62-11.18-6.35.18-12.71-.07-19.05.21-9.27.41-15.91,5.15-18.12,14.07-4.45,17.92-4.49,36.06,0,53.96,2.32,9.26,8.09,13.13,17.66,13.34,6.77.15,13.56.21,20.31-.03,11.78-.43,17.88-7.48,17.1-20.31h-.01Z"/><path class="cls-2" d="m332.06,107.17c0,7.05.07,12.97-.02,18.88-.14,8.57-3.06,11.5-11.39,11.59-16.22.18-17.61-1.2-17.61-17.59,0-34.91-.01-69.81-.01-104.72,0-12.35,2.4-14.77,14.73-14.78,16.08-.02,32.15-.07,48.23.03,24.66.15,39.39,12.4,43.47,36.53,2.34,13.89,2.24,27.83-1.84,41.48-5.35,17.94-18.77,28.21-37.46,28.54-12.43.21-24.85.04-38.1.04h.01Zm.58-79.22v51.15c10.49,0,20.46.45,30.36-.14,8.21-.5,15.72-3.78,17.75-12.71,2.56-11.22,3.98-22.77-4.92-32.29-1.88-2.01-5.06-3.63-7.77-3.86-11.69-1.03-23.44-1.48-35.4-2.15,0,0-.01,0-.01,0Z"/><path class="cls-4" d="m159.3,69.2c0,18.4.02,36.81,0,55.21-.02,10.59-2.63,13.22-13,13.23-2.11,0-4.23-.06-6.35,0-5.37.14-8.39-2.75-9.15-7.75-.57-3.73-.52-7.57-.52-11.37-.03-34.05-.03-68.11,0-102.16,0-2.52.12-5.08.46-7.57.19-1.43.68-2.98,1.51-4.11,5.43-7.31,13.28-3.94,20-3.68,5.44.21,7.02,5.44,7.03,10.47.04,19.25.02,38.5.03,57.74h-.02Z"/></svg>