<?xml version="1.0" encoding="UTF-8"?><svg id="OBJECTS" xmlns="http://www.w3.org/2000/svg" xmlns:xlink="http://www.w3.org/1999/xlink" viewBox="0 0 1221.21 1199.67"><defs><style>.cls-1{fill:#fff;}.cls-2{fill:#f5f5f5;}.cls-3{fill:#455a64;}.cls-4{fill:#b074ff;}.cls-5{fill:#ffbf9d;}.cls-6{fill:#e0e0e0;}.cls-7{fill:#ff9a6c;}.cls-8{fill:#ff725e;}.cls-9{clip-path:url(#clippath);}.cls-10{fill:#ebebeb;}.cls-11{fill:none;}.cls-12{opacity:.2;}.cls-13{fill:#263238;}</style><clipPath id="clippath"><rect class="cls-11" width="1221.21" height="1199.64"/></clipPath></defs><g class="cls-9"><path class="cls-10" d="m801.49,1078.63h159.31v-30.89h-159.31v30.89Z"/><path class="cls-6" d="m951.8,1048.22c-.38,0-.7,6.7-.7,14.97s.3,14.97.7,14.97.7-6.7.7-14.97-.3-14.97-.7-14.97Z"/><path class="cls-6" d="m937.02,1048.22c-.38,0-.7,6.7-.7,14.97s.3,14.97.7,14.97.7-6.7.7-14.97-.3-14.97-.7-14.97Z"/><path class="cls-6" d="m922.43,1048.22c-.38,0-.7,6.7-.7,14.97s.3,14.97.7,14.97.7-6.7.7-14.97-.3-14.97-.7-14.97Z"/><path class="cls-6" d="m907.91,1048.22c-.38,0-.7,6.7-.7,14.97s.3,14.97.7,14.97.7-6.7.7-14.97-.3-14.97-.7-14.97Z"/><path class="cls-6" d="m893.4,1048.22c-.38,0-.7,6.7-.7,14.97s.3,14.97.7,14.97.7-6.7.7-14.97-.3-14.97-.7-14.97Z"/><path class="cls-6" d="m878.86,1048.22c-.38,0-.7,6.7-.7,14.97s.3,14.97.7,14.97.7-6.7.7-14.97-.3-14.97-.7-14.97Z"/><path class="cls-6" d="m864.35,1048.22c-.38,0-.7,6.7-.7,14.97s.3,14.97.7,14.97.7-6.7.7-14.97-.3-14.97-.7-14.97Z"/><path class="cls-6" d="m849.84,1048.22c-.38,0-.7,6.7-.7,14.97s.3,14.97.7,14.97.7-6.7.7-14.97-.3-14.97-.7-14.97Z"/><path class="cls-6" d="m835.3,1048.22c-.38,0-.7,6.7-.7,14.97s.3,14.97.7,14.97.7-6.7.7-14.97-.3-14.97-.7-14.97Z"/><path class="cls-6" d="m820.79,1048.22c-.38,0-.7,6.7-.7,14.97s.3,14.97.7,14.97.7-6.7.7-14.97-.3-14.97-.7-14.97Z"/><path class="cls-6" d="m806.27,1048.22c-.38,0-.7,6.7-.7,14.97s.3,14.97.7,14.97.7-6.7.7-14.97-.3-14.97-.7-14.97Z"/><path class="cls-6" d="m802.68,1047.82c0,.38,35.59.7,79.51.7s79.51-.3,79.51-.7-35.59-.7-79.51-.7-79.51.3-79.51.7Z"/><path class="cls-10" d="m812.98,1109.54h159.31v-30.89h-159.31v30.89Z"/><path class="cls-6" d="m962.04,1079.14c-.38,0-.7,6.7-.7,14.97s.3,14.97.7,14.97.7-6.7.7-14.97-.3-14.97-.7-14.97Z"/><path class="cls-6" d="m947.26,1079.14c-.38,0-.7,6.7-.7,14.97s.3,14.97.7,14.97.7-6.7.7-14.97-.3-14.97-.7-14.97Z"/><path class="cls-6" d="m932.67,1079.14c-.38,0-.7,6.7-.7,14.97s.3,14.97.7,14.97.7-6.7.7-14.97-.3-14.97-.7-14.97Z"/><path class="cls-6" d="m918.16,1079.14c-.38,0-.7,6.7-.7,14.97s.3,14.97.7,14.97.7-6.7.7-14.97-.3-14.97-.7-14.97Z"/><path class="cls-6" d="m903.64,1079.14c-.38,0-.7,6.7-.7,14.97s.3,14.97.7,14.97.7-6.7.7-14.97-.3-14.97-.7-14.97Z"/><path class="cls-6" d="m889.1,1079.14c-.38,0-.7,6.7-.7,14.97s.3,14.97.7,14.97.7-6.7.7-14.97-.3-14.97-.7-14.97Z"/><path class="cls-6" d="m874.59,1079.14c-.38,0-.7,6.7-.7,14.97s.3,14.97.7,14.97.7-6.7.7-14.97-.3-14.97-.7-14.97Z"/><path class="cls-6" d="m860.08,1079.14c-.38,0-.7,6.7-.7,14.97s.3,14.97.7,14.97.7-6.7.7-14.97-.3-14.97-.7-14.97Z"/><path class="cls-6" d="m845.54,1079.14c-.38,0-.7,6.7-.7,14.97s.3,14.97.7,14.97.7-6.7.7-14.97-.3-14.97-.7-14.97Z"/><path class="cls-6" d="m831.03,1079.14c-.38,0-.7,6.7-.7,14.97s.3,14.97.7,14.97.7-6.7.7-14.97-.3-14.97-.7-14.97Z"/><path class="cls-6" d="m816.52,1079.14c-.38,0-.7,6.7-.7,14.97s.3,14.97.7,14.97.7-6.7.7-14.97-.3-14.97-.7-14.97Z"/><path class="cls-6" d="m812.92,1078.73c0,.38,35.59.7,79.51.7s79.51-.3,79.51-.7-35.59-.7-79.51-.7-79.51.3-79.51.7Z"/><path class="cls-10" d="m802.63,1140h159.31v-30.89h-159.31v30.89Z"/><path class="cls-6" d="m952.94,1109.62c-.38,0-.7,6.7-.7,14.97s.3,14.97.7,14.97.7-6.7.7-14.97-.3-14.97-.7-14.97Z"/><path class="cls-6" d="m938.18,1109.62c-.38,0-.7,6.7-.7,14.97s.3,14.97.7,14.97.7-6.7.7-14.97-.3-14.97-.7-14.97Z"/><path class="cls-6" d="m923.56,1109.62c-.38,0-.7,6.7-.7,14.97s.3,14.97.7,14.97.7-6.7.7-14.97-.3-14.97-.7-14.97Z"/><path class="cls-6" d="m909.05,1109.62c-.38,0-.7,6.7-.7,14.97s.3,14.97.7,14.97.7-6.7.7-14.97-.3-14.97-.7-14.97Z"/><path class="cls-6" d="m894.54,1109.62c-.38,0-.7,6.7-.7,14.97s.3,14.97.7,14.97.7-6.7.7-14.97-.3-14.97-.7-14.97Z"/><path class="cls-6" d="m880,1109.62c-.38,0-.7,6.7-.7,14.97s.3,14.97.7,14.97.7-6.7.7-14.97-.3-14.97-.7-14.97Z"/><path class="cls-6" d="m865.48,1109.62c-.38,0-.7,6.7-.7,14.97s.3,14.97.7,14.97.7-6.7.7-14.97-.3-14.97-.7-14.97Z"/><path class="cls-6" d="m850.97,1109.62c-.38,0-.7,6.7-.7,14.97s.3,14.97.7,14.97.7-6.7.7-14.97-.3-14.97-.7-14.97Z"/><path class="cls-6" d="m836.46,1109.62c-.38,0-.7,6.7-.7,14.97s.3,14.97.7,14.97.7-6.7.7-14.97-.3-14.97-.7-14.97Z"/><path class="cls-6" d="m821.92,1109.62c-.38,0-.7,6.7-.7,14.97s.3,14.97.7,14.97.7-6.7.7-14.97-.3-14.97-.7-14.97Z"/><path class="cls-6" d="m807.41,1109.62c-.38,0-.7,6.7-.7,14.97s.3,14.97.7,14.97.7-6.7.7-14.97-.3-14.97-.7-14.97Z"/><path class="cls-6" d="m803.84,1109.19c0,.38,35.59.7,79.51.7s79.51-.3,79.51-.7-35.59-.7-79.51-.7-79.51.3-79.51.7Z"/><path class="cls-2" d="m988.12,1016.88h159.31v-32.13h-159.31v32.13Z"/><path class="cls-6" d="m1137.19,985.28c-.38,0-.7,6.97-.7,15.57s.3,15.57.7,15.57.7-6.97.7-15.57-.3-15.57-.7-15.57Z"/><path class="cls-6" d="m1122.43,985.28c-.38,0-.7,6.97-.7,15.57s.3,15.57.7,15.57.7-6.97.7-15.57-.3-15.57-.7-15.57Z"/><path class="cls-6" d="m1107.81,985.28c-.38,0-.7,6.97-.7,15.57s.3,15.57.7,15.57.7-6.97.7-15.57-.3-15.57-.7-15.57Z"/><path class="cls-6" d="m1093.3,985.28c-.38,0-.7,6.97-.7,15.57s.3,15.57.7,15.57.7-6.97.7-15.57-.3-15.57-.7-15.57Z"/><path class="cls-6" d="m1078.79,985.28c-.38,0-.7,6.97-.7,15.57s.3,15.57.7,15.57.7-6.97.7-15.57-.3-15.57-.7-15.57Z"/><path class="cls-6" d="m1064.28,985.28c-.38,0-.7,6.97-.7,15.57s.3,15.57.7,15.57.7-6.97.7-15.57-.3-15.57-.7-15.57Z"/><path class="cls-6" d="m1049.74,985.28c-.38,0-.7,6.97-.7,15.57s.3,15.57.7,15.57.7-6.97.7-15.57-.3-15.57-.7-15.57Z"/><path class="cls-6" d="m1035.23,985.28c-.38,0-.7,6.97-.7,15.57s.3,15.57.7,15.57.7-6.97.7-15.57-.3-15.57-.7-15.57Z"/><path class="cls-6" d="m1020.71,985.28c-.38,0-.7,6.97-.7,15.57s.3,15.57.7,15.57.7-6.97.7-15.57-.3-15.57-.7-15.57Z"/><path class="cls-6" d="m1006.17,985.28c-.38,0-.7,6.97-.7,15.57s.3,15.57.7,15.57.7-6.97.7-15.57-.3-15.57-.7-15.57Z"/><path class="cls-6" d="m991.66,985.28c-.38,0-.7,6.97-.7,15.57s.3,15.57.7,15.57.7-6.97.7-15.57-.3-15.57-.7-15.57Z"/><path class="cls-2" d="m988.12,952.99h159.31v-32.13h-159.31v32.13Z"/><path class="cls-6" d="m1137.19,921.4c-.38,0-.7,6.97-.7,15.57s.3,15.57.7,15.57.7-6.97.7-15.57-.3-15.57-.7-15.57Z"/><path class="cls-6" d="m1122.43,921.4c-.38,0-.7,6.97-.7,15.57s.3,15.57.7,15.57.7-6.97.7-15.57-.3-15.57-.7-15.57Z"/><path class="cls-6" d="m1107.81,921.4c-.38,0-.7,6.97-.7,15.57s.3,15.57.7,15.57.7-6.97.7-15.57-.3-15.57-.7-15.57Z"/><path class="cls-6" d="m1093.3,921.4c-.38,0-.7,6.97-.7,15.57s.3,15.57.7,15.57.7-6.97.7-15.57-.3-15.57-.7-15.57Z"/><path class="cls-6" d="m1078.79,921.4c-.38,0-.7,6.97-.7,15.57s.3,15.57.7,15.57.7-6.97.7-15.57-.3-15.57-.7-15.57Z"/><path class="cls-6" d="m1064.28,921.4c-.38,0-.7,6.97-.7,15.57s.3,15.57.7,15.57.7-6.97.7-15.57-.3-15.57-.7-15.57Z"/><path class="cls-6" d="m1049.74,921.4c-.38,0-.7,6.97-.7,15.57s.3,15.57.7,15.57.7-6.97.7-15.57-.3-15.57-.7-15.57Z"/><path class="cls-6" d="m1035.23,921.4c-.38,0-.7,6.97-.7,15.57s.3,15.57.7,15.57.7-6.97.7-15.57-.3-15.57-.7-15.57Z"/><path class="cls-6" d="m1020.71,921.4c-.38,0-.7,6.97-.7,15.57s.3,15.57.7,15.57.7-6.97.7-15.57-.3-15.57-.7-15.57Z"/><path class="cls-6" d="m1006.17,921.4c-.38,0-.7,6.97-.7,15.57s.3,15.57.7,15.57.7-6.97.7-15.57-.3-15.57-.7-15.57Z"/><path class="cls-6" d="m991.66,921.4c-.38,0-.7,6.97-.7,15.57s.3,15.57.7,15.57.7-6.97.7-15.57-.3-15.57-.7-15.57Z"/><path class="cls-10" d="m1003.26,1047.95h159.31v-32.13h-159.31v32.13Z"/><path class="cls-6" d="m1152.32,1016.36c-.38,0-.7,6.97-.7,15.57s.3,15.57.7,15.57.7-6.97.7-15.57-.3-15.57-.7-15.57Z"/><path class="cls-6" d="m1137.54,1016.36c-.38,0-.7,6.97-.7,15.57s.3,15.57.7,15.57.7-6.97.7-15.57-.3-15.57-.7-15.57Z"/><path class="cls-6" d="m1122.95,1016.36c-.38,0-.7,6.97-.7,15.57s.3,15.57.7,15.57.7-6.97.7-15.57-.3-15.57-.7-15.57Z"/><path class="cls-6" d="m1108.43,1016.36c-.38,0-.7,6.97-.7,15.57s.3,15.57.7,15.57.7-6.97.7-15.57-.3-15.57-.7-15.57Z"/><path class="cls-6" d="m1093.92,1016.36c-.38,0-.7,6.97-.7,15.57s.3,15.57.7,15.57.7-6.97.7-15.57-.3-15.57-.7-15.57Z"/><path class="cls-6" d="m1079.38,1016.36c-.38,0-.7,6.97-.7,15.57s.3,15.57.7,15.57.7-6.97.7-15.57-.3-15.57-.7-15.57Z"/><path class="cls-6" d="m1064.87,1016.36c-.38,0-.7,6.97-.7,15.57s.3,15.57.7,15.57.7-6.97.7-15.57-.3-15.57-.7-15.57Z"/><path class="cls-6" d="m1050.36,1016.36c-.38,0-.7,6.97-.7,15.57s.3,15.57.7,15.57.7-6.97.7-15.57-.3-15.57-.7-15.57Z"/><path class="cls-6" d="m1035.82,1016.36c-.38,0-.7,6.97-.7,15.57s.3,15.57.7,15.57.7-6.97.7-15.57-.3-15.57-.7-15.57Z"/><path class="cls-6" d="m1021.31,1016.36c-.38,0-.7,6.97-.7,15.57s.3,15.57.7,15.57.7-6.97.7-15.57-.3-15.57-.7-15.57Z"/><path class="cls-6" d="m1006.8,1016.36c-.38,0-.7,6.97-.7,15.57s.3,15.57.7,15.57.7-6.97.7-15.57-.3-15.57-.7-15.57Z"/><path class="cls-10" d="m1003.26,985.18h159.31v-32.13h-159.31v32.13Z"/><path class="cls-6" d="m1122.95,953.58c-.38,0-.7,6.97-.7,15.57s.3,15.57.7,15.57.7-6.97.7-15.57-.3-15.57-.7-15.57Z"/><path class="cls-6" d="m1108.43,953.58c-.38,0-.7,6.97-.7,15.57s.3,15.57.7,15.57.7-6.97.7-15.57-.3-15.57-.7-15.57Z"/><path class="cls-6" d="m1093.92,953.58c-.38,0-.7,6.97-.7,15.57s.3,15.57.7,15.57.7-6.97.7-15.57-.3-15.57-.7-15.57Z"/><path class="cls-6" d="m1079.38,953.58c-.38,0-.7,6.97-.7,15.57s.3,15.57.7,15.57.7-6.97.7-15.57-.3-15.57-.7-15.57Z"/><path class="cls-6" d="m1064.87,953.58c-.38,0-.7,6.97-.7,15.57s.3,15.57.7,15.57.7-6.97.7-15.57-.3-15.57-.7-15.57Z"/><path class="cls-6" d="m1050.36,953.58c-.38,0-.7,6.97-.7,15.57s.3,15.57.7,15.57.7-6.97.7-15.57-.3-15.57-.7-15.57Z"/><path class="cls-6" d="m1035.82,953.58c-.38,0-.7,6.97-.7,15.57s.3,15.57.7,15.57.7-6.97.7-15.57-.3-15.57-.7-15.57Z"/><path class="cls-6" d="m1021.31,953.58c-.38,0-.7,6.97-.7,15.57s.3,15.57.7,15.57.7-6.97.7-15.57-.3-15.57-.7-15.57Z"/><path class="cls-6" d="m1006.8,953.58c-.38,0-.7,6.97-.7,15.57s.3,15.57.7,15.57.7-6.97.7-15.57-.3-15.57-.7-15.57Z"/><path class="cls-6" d="m1003.2,1015.93c0,.38,35.59.7,79.51.7s79.51-.3,79.51-.7-35.59-.7-79.51-.7-79.51.3-79.51.7Z"/><path class="cls-2" d="m984.61,1078.63h159.31v-30.89h-159.31v30.89Z"/><path class="cls-6" d="m1133.65,1048.22c-.38,0-.7,6.7-.7,14.97s.3,14.97.7,14.97.7-6.7.7-14.97-.3-14.97-.7-14.97Z"/><path class="cls-6" d="m1118.89,1048.22c-.38,0-.7,6.7-.7,14.97s.3,14.97.7,14.97.7-6.7.7-14.97-.3-14.97-.7-14.97Z"/><path class="cls-6" d="m1104.3,1048.22c-.38,0-.7,6.7-.7,14.97s.3,14.97.7,14.97.7-6.7.7-14.97-.3-14.97-.7-14.97Z"/><path class="cls-6" d="m1089.76,1048.22c-.38,0-.7,6.7-.7,14.97s.3,14.97.7,14.97.7-6.7.7-14.97-.3-14.97-.7-14.97Z"/><path class="cls-6" d="m1075.25,1048.22c-.38,0-.7,6.7-.7,14.97s.3,14.97.7,14.97.7-6.7.7-14.97-.3-14.97-.7-14.97Z"/><path class="cls-6" d="m1060.74,1048.22c-.38,0-.7,6.7-.7,14.97s.3,14.97.7,14.97.7-6.7.7-14.97-.3-14.97-.7-14.97Z"/><path class="cls-6" d="m1046.2,1048.22c-.38,0-.7,6.7-.7,14.97s.3,14.97.7,14.97.7-6.7.7-14.97-.3-14.97-.7-14.97Z"/><path class="cls-6" d="m1031.69,1048.22c-.38,0-.7,6.7-.7,14.97s.3,14.97.7,14.97.7-6.7.7-14.97-.3-14.97-.7-14.97Z"/><path class="cls-6" d="m1017.17,1048.22c-.38,0-.7,6.7-.7,14.97s.3,14.97.7,14.97.7-6.7.7-14.97-.3-14.97-.7-14.97Z"/><path class="cls-6" d="m1002.63,1048.22c-.38,0-.7,6.7-.7,14.97s.3,14.97.7,14.97.7-6.7.7-14.97-.3-14.97-.7-14.97Z"/><path class="cls-6" d="m988.12,1048.22c-.38,0-.7,6.7-.7,14.97s.3,14.97.7,14.97.7-6.7.7-14.97-.3-14.97-.7-14.97Z"/><path class="cls-6" d="m984.55,1047.82c0,.38,35.59.7,79.51.7s79.51-.3,79.51-.7-35.59-.7-79.51-.7-79.51.3-79.51.7Z"/><path class="cls-10" d="m994.85,1109.54h159.31v-30.89h-159.31v30.89Z"/><path class="cls-6" d="m1143.89,1079.14c-.38,0-.7,6.7-.7,14.97s.3,14.97.7,14.97.7-6.7.7-14.97-.3-14.97-.7-14.97Z"/><path class="cls-6" d="m1129.14,1079.14c-.38,0-.7,6.7-.7,14.97s.3,14.97.7,14.97.7-6.7.7-14.97-.3-14.97-.7-14.97Z"/><path class="cls-6" d="m1114.54,1079.14c-.38,0-.7,6.7-.7,14.97s.3,14.97.7,14.97.7-6.7.7-14.97-.3-14.97-.7-14.97Z"/><path class="cls-6" d="m1100,1079.14c-.38,0-.7,6.7-.7,14.97s.3,14.97.7,14.97.7-6.7.7-14.97-.3-14.97-.7-14.97Z"/><path class="cls-6" d="m1085.49,1079.14c-.38,0-.7,6.7-.7,14.97s.3,14.97.7,14.97.7-6.7.7-14.97-.3-14.97-.7-14.97Z"/><path class="cls-6" d="m1070.98,1079.14c-.38,0-.7,6.7-.7,14.97s.3,14.97.7,14.97.7-6.7.7-14.97-.3-14.97-.7-14.97Z"/><path class="cls-6" d="m1056.44,1079.14c-.38,0-.7,6.7-.7,14.97s.3,14.97.7,14.97.7-6.7.7-14.97-.3-14.97-.7-14.97Z"/><path class="cls-6" d="m1041.93,1079.14c-.38,0-.7,6.7-.7,14.97s.3,14.97.7,14.97.7-6.7.7-14.97-.3-14.97-.7-14.97Z"/><path class="cls-6" d="m1027.42,1079.14c-.38,0-.7,6.7-.7,14.97s.3,14.97.7,14.97.7-6.7.7-14.97-.3-14.97-.7-14.97Z"/><path class="cls-6" d="m1012.88,1079.14c-.38,0-.7,6.7-.7,14.97s.3,14.97.7,14.97.7-6.7.7-14.97-.3-14.97-.7-14.97Z"/><path class="cls-6" d="m998.36,1079.14c-.38,0-.7,6.7-.7,14.97s.3,14.97.7,14.97.7-6.7.7-14.97-.3-14.97-.7-14.97Z"/><path class="cls-6" d="m994.8,1078.73c0,.38,35.59.7,79.51.7s79.51-.3,79.51-.7-35.59-.7-79.51-.7-79.51.3-79.51.7Z"/><path class="cls-2" d="m985.74,1140h159.31v-30.89h-159.31v30.89Z"/><path class="cls-6" d="m1134.81,1109.62c-.38,0-.7,6.7-.7,14.97s.3,14.97.7,14.97.7-6.7.7-14.97-.3-14.97-.7-14.97Z"/><path class="cls-6" d="m1120.03,1109.62c-.38,0-.7,6.7-.7,14.97s.3,14.97.7,14.97.7-6.7.7-14.97-.3-14.97-.7-14.97Z"/><path class="cls-6" d="m1105.43,1109.62c-.38,0-.7,6.7-.7,14.97s.3,14.97.7,14.97.7-6.7.7-14.97-.3-14.97-.7-14.97Z"/><path class="cls-6" d="m1090.9,1109.62c-.38,0-.7,6.7-.7,14.97s.3,14.97.7,14.97.7-6.7.7-14.97-.3-14.97-.7-14.97Z"/><path class="cls-6" d="m1076.38,1109.62c-.38,0-.7,6.7-.7,14.97s.3,14.97.7,14.97.7-6.7.7-14.97-.3-14.97-.7-14.97Z"/><path class="cls-6" d="m1061.87,1109.62c-.38,0-.7,6.7-.7,14.97s.3,14.97.7,14.97.7-6.7.7-14.97-.3-14.97-.7-14.97Z"/><path class="cls-6" d="m1047.36,1109.62c-.38,0-.7,6.7-.7,14.97s.3,14.97.7,14.97.7-6.7.7-14.97-.3-14.97-.7-14.97Z"/><path class="cls-6" d="m1032.82,1109.62c-.38,0-.7,6.7-.7,14.97s.3,14.97.7,14.97.7-6.7.7-14.97-.3-14.97-.7-14.97Z"/><path class="cls-6" d="m1018.31,1109.62c-.38,0-.7,6.7-.7,14.97s.3,14.97.7,14.97.7-6.7.7-14.97-.3-14.97-.7-14.97Z"/><path class="cls-6" d="m1003.8,1109.62c-.38,0-.7,6.7-.7,14.97s.3,14.97.7,14.97.7-6.7.7-14.97-.3-14.97-.7-14.97Z"/><path class="cls-6" d="m989.26,1109.62c-.38,0-.7,6.7-.7,14.97s.3,14.97.7,14.97.7-6.7.7-14.97-.3-14.97-.7-14.97Z"/><path class="cls-6" d="m985.69,1109.19c0,.38,35.59.7,79.51.7s79.51-.3,79.51-.7-35.59-.7-79.51-.7-79.51.3-79.51.7Z"/><path class="cls-10" d="m454.61,1046.76h-159.31v30.89h159.31v-30.89Z"/><path class="cls-6" d="m304.3,1047.31c.38,0,.7,6.7.7,14.97s-.3,14.97-.7,14.97-.7-6.7-.7-14.97.3-14.97.7-14.97Z"/><path class="cls-6" d="m319.08,1047.31c.38,0,.7,6.7.7,14.97s-.3,14.97-.7,14.97-.7-6.7-.7-14.97.3-14.97.7-14.97Z"/><path class="cls-6" d="m333.67,1047.31c.38,0,.7,6.7.7,14.97s-.3,14.97-.7,14.97-.7-6.7-.7-14.97.3-14.97.7-14.97Z"/><path class="cls-6" d="m348.18,1047.31c.38,0,.7,6.7.7,14.97s-.3,14.97-.7,14.97-.7-6.7-.7-14.97.3-14.97.7-14.97Z"/><path class="cls-6" d="m362.72,1047.31c.38,0,.7,6.7.7,14.97s-.3,14.97-.7,14.97-.7-6.7-.7-14.97.3-14.97.7-14.97Z"/><path class="cls-6" d="m377.23,1047.31c.38,0,.7,6.7.7,14.97s-.3,14.97-.7,14.97-.7-6.7-.7-14.97.3-14.97.7-14.97Z"/><path class="cls-6" d="m391.75,1047.31c.38,0,.7,6.7.7,14.97s-.3,14.97-.7,14.97-.7-6.7-.7-14.97.3-14.97.7-14.97Z"/><path class="cls-6" d="m406.29,1047.31c.38,0,.7,6.7.7,14.97s-.3,14.97-.7,14.97-.7-6.7-.7-14.97.3-14.97.7-14.97Z"/><path class="cls-6" d="m420.8,1047.31c.38,0,.7,6.7.7,14.97s-.3,14.97-.7,14.97-.7-6.7-.7-14.97.3-14.97.7-14.97Z"/><path class="cls-6" d="m435.31,1047.31c.38,0,.7,6.7.7,14.97s-.3,14.97-.7,14.97-.7-6.7-.7-14.97.3-14.97.7-14.97Z"/><path class="cls-6" d="m449.85,1047.31c.38,0,.7,6.7.7,14.97s-.3,14.97-.7,14.97-.7-6.7-.7-14.97.3-14.97.7-14.97Z"/><path class="cls-6" d="m453.42,1046.87c0,.38-35.59.7-79.51.7s-79.51-.3-79.51-.7,35.59-.7,79.51-.7,79.51.3,79.51.7Z"/><path class="cls-10" d="m443.12,1077.68h-159.31v30.89h159.31v-30.89Z"/><path class="cls-6" d="m294.05,1078.19c.38,0,.7,6.7.7,14.97s-.3,14.97-.7,14.97-.7-6.7-.7-14.97.3-14.97.7-14.97Z"/><path class="cls-6" d="m308.84,1078.19c.38,0,.7,6.7.7,14.97s-.3,14.97-.7,14.97-.7-6.7-.7-14.97.3-14.97.7-14.97Z"/><path class="cls-6" d="m323.43,1078.19c.38,0,.7,6.7.7,14.97s-.3,14.97-.7,14.97-.7-6.7-.7-14.97.3-14.97.7-14.97Z"/><path class="cls-6" d="m337.94,1078.19c.38,0,.7,6.7.7,14.97s-.3,14.97-.7,14.97-.7-6.7-.7-14.97.3-14.97.7-14.97Z"/><path class="cls-6" d="m352.48,1078.19c.38,0,.7,6.7.7,14.97s-.3,14.97-.7,14.97-.7-6.7-.7-14.97.3-14.97.7-14.97Z"/><path class="cls-6" d="m366.99,1078.19c.38,0,.7,6.7.7,14.97s-.3,14.97-.7,14.97-.7-6.7-.7-14.97.3-14.97.7-14.97Z"/><path class="cls-6" d="m381.5,1078.19c.38,0,.7,6.7.7,14.97s-.3,14.97-.7,14.97-.7-6.7-.7-14.97.3-14.97.7-14.97Z"/><path class="cls-6" d="m396.04,1078.19c.38,0,.7,6.7.7,14.97s-.3,14.97-.7,14.97-.7-6.7-.7-14.97.3-14.97.7-14.97Z"/><path class="cls-6" d="m410.56,1078.19c.38,0,.7,6.7.7,14.97s-.3,14.97-.7,14.97-.7-6.7-.7-14.97.3-14.97.7-14.97Z"/><path class="cls-6" d="m425.07,1078.19c.38,0,.7,6.7.7,14.97s-.3,14.97-.7,14.97-.7-6.7-.7-14.97.3-14.97.7-14.97Z"/><path class="cls-6" d="m439.61,1078.19c.38,0,.7,6.7.7,14.97s-.3,14.97-.7,14.97-.7-6.7-.7-14.97.3-14.97.7-14.97Z"/><path class="cls-6" d="m443.17,1077.79c0,.38-35.59.7-79.51.7s-79.51-.3-79.51-.7,35.59-.7,79.51-.7,79.51.3,79.51.7Z"/><path class="cls-10" d="m453.47,1108.16h-159.31v30.89h159.31v-30.89Z"/><path class="cls-6" d="m303.16,1108.68c.38,0,.7,6.7.7,14.97s-.3,14.97-.7,14.97-.7-6.7-.7-14.97.3-14.97.7-14.97Z"/><path class="cls-6" d="m317.94,1108.68c.38,0,.7,6.7.7,14.97s-.3,14.97-.7,14.97-.7-6.7-.7-14.97.3-14.97.7-14.97Z"/><path class="cls-6" d="m332.54,1108.68c.38,0,.7,6.7.7,14.97s-.3,14.97-.7,14.97-.7-6.7-.7-14.97.3-14.97.7-14.97Z"/><path class="cls-6" d="m347.05,1108.68c.38,0,.7,6.7.7,14.97s-.3,14.97-.7,14.97-.7-6.7-.7-14.97.3-14.97.7-14.97Z"/><path class="cls-6" d="m361.59,1108.68c.38,0,.7,6.7.7,14.97s-.3,14.97-.7,14.97-.7-6.7-.7-14.97.3-14.97.7-14.97Z"/><path class="cls-6" d="m376.1,1108.68c.38,0,.7,6.7.7,14.97s-.3,14.97-.7,14.97-.7-6.7-.7-14.97.3-14.97.7-14.97Z"/><path class="cls-6" d="m390.61,1108.68c.38,0,.7,6.7.7,14.97s-.3,14.97-.7,14.97-.7-6.7-.7-14.97.3-14.97.7-14.97Z"/><path class="cls-6" d="m405.12,1108.68c.38,0,.7,6.7.7,14.97s-.3,14.97-.7,14.97-.7-6.7-.7-14.97.3-14.97.7-14.97Z"/><path class="cls-6" d="m419.66,1108.68c.38,0,.7,6.7.7,14.97s-.3,14.97-.7,14.97-.7-6.7-.7-14.97.3-14.97.7-14.97Z"/><path class="cls-6" d="m434.17,1108.68c.38,0,.7,6.7.7,14.97s-.3,14.97-.7,14.97-.7-6.7-.7-14.97.3-14.97.7-14.97Z"/><path class="cls-6" d="m448.69,1108.68c.38,0,.7,6.7.7,14.97s-.3,14.97-.7,14.97-.7-6.7-.7-14.97.3-14.97.7-14.97Z"/><path class="cls-6" d="m452.28,1108.27c0,.38-35.59.7-79.51.7s-79.51-.3-79.51-.7,35.59-.7,79.51-.7,79.51.3,79.51.7Z"/><path class="cls-2" d="m174.44,983.28H15.13v32.13h159.31v-32.13Z"/><path class="cls-6" d="m25.38,983.82c.38,0,.7,6.97.7,15.57s-.3,15.57-.7,15.57-.7-6.97-.7-15.57.3-15.57.7-15.57Z"/><path class="cls-6" d="m40.13,983.82c.38,0,.7,6.97.7,15.57s-.3,15.57-.7,15.57-.7-6.97-.7-15.57.3-15.57.7-15.57Z"/><path class="cls-6" d="m54.75,983.82c.38,0,.7,6.97.7,15.57s-.3,15.57-.7,15.57-.7-6.97-.7-15.57.3-15.57.7-15.57Z"/><path class="cls-6" d="m69.26,983.82c.38,0,.7,6.97.7,15.57s-.3,15.57-.7,15.57-.7-6.97-.7-15.57.3-15.57.7-15.57Z"/><path class="cls-6" d="m83.78,983.82c.38,0,.7,6.97.7,15.57s-.3,15.57-.7,15.57-.7-6.97-.7-15.57.3-15.57.7-15.57Z"/><path class="cls-6" d="m98.29,983.82c.38,0,.7,6.97.7,15.57s-.3,15.57-.7,15.57-.7-6.97-.7-15.57.3-15.57.7-15.57Z"/><path class="cls-6" d="m112.83,983.82c.38,0,.7,6.97.7,15.57s-.3,15.57-.7,15.57-.7-6.97-.7-15.57.3-15.57.7-15.57Z"/><path class="cls-6" d="m127.34,983.82c.38,0,.7,6.97.7,15.57s-.3,15.57-.7,15.57-.7-6.97-.7-15.57.3-15.57.7-15.57Z"/><path class="cls-6" d="m141.85,983.82c.38,0,.7,6.97.7,15.57s-.3,15.57-.7,15.57-.7-6.97-.7-15.57.3-15.57.7-15.57Z"/><path class="cls-6" d="m156.39,983.82c.38,0,.7,6.97.7,15.57s-.3,15.57-.7,15.57-.7-6.97-.7-15.57.3-15.57.7-15.57Z"/><path class="cls-6" d="m170.9,983.82c.38,0,.7,6.97.7,15.57s-.3,15.57-.7,15.57-.7-6.97-.7-15.57.3-15.57.7-15.57Z"/><path class="cls-2" d="m174.44,919.43H15.13v32.13h159.31v-32.13Z"/><path class="cls-6" d="m25.38,919.97c.38,0,.7,6.97.7,15.57s-.3,15.57-.7,15.57-.7-6.97-.7-15.57.3-15.57.7-15.57Z"/><path class="cls-6" d="m40.13,919.97c.38,0,.7,6.97.7,15.57s-.3,15.57-.7,15.57-.7-6.97-.7-15.57.3-15.57.7-15.57Z"/><path class="cls-6" d="m54.75,919.97c.38,0,.7,6.97.7,15.57s-.3,15.57-.7,15.57-.7-6.97-.7-15.57.3-15.57.7-15.57Z"/><path class="cls-6" d="m69.26,919.97c.38,0,.7,6.97.7,15.57s-.3,15.57-.7,15.57-.7-6.97-.7-15.57.3-15.57.7-15.57Z"/><path class="cls-6" d="m83.78,919.97c.38,0,.7,6.97.7,15.57s-.3,15.57-.7,15.57-.7-6.97-.7-15.57.3-15.57.7-15.57Z"/><path class="cls-6" d="m98.29,919.97c.38,0,.7,6.97.7,15.57s-.3,15.57-.7,15.57-.7-6.97-.7-15.57.3-15.57.7-15.57Z"/><path class="cls-6" d="m112.83,919.97c.38,0,.7,6.97.7,15.57s-.3,15.57-.7,15.57-.7-6.97-.7-15.57.3-15.57.7-15.57Z"/><path class="cls-6" d="m127.34,919.97c.38,0,.7,6.97.7,15.57s-.3,15.57-.7,15.57-.7-6.97-.7-15.57.3-15.57.7-15.57Z"/><path class="cls-6" d="m141.85,919.97c.38,0,.7,6.97.7,15.57s-.3,15.57-.7,15.57-.7-6.97-.7-15.57.3-15.57.7-15.57Z"/><path class="cls-6" d="m156.39,919.97c.38,0,.7,6.97.7,15.57s-.3,15.57-.7,15.57-.7-6.97-.7-15.57.3-15.57.7-15.57Z"/><path class="cls-6" d="m170.9,919.97c.38,0,.7,6.97.7,15.57s-.3,15.57-.7,15.57-.7-6.97-.7-15.57.3-15.57.7-15.57Z"/><path class="cls-10" d="m159.31,1014.36H0v32.13h159.31v-32.13Z"/><path class="cls-6" d="m10.24,1014.9c.38,0,.7,6.97.7,15.57s-.3,15.57-.7,15.57-.7-6.97-.7-15.57.3-15.57.7-15.57Z"/><path class="cls-6" d="m25.02,1014.9c.38,0,.7,6.97.7,15.57s-.3,15.57-.7,15.57-.7-6.97-.7-15.57.3-15.57.7-15.57Z"/><path class="cls-6" d="m39.62,1014.9c.38,0,.7,6.97.7,15.57s-.3,15.57-.7,15.57-.7-6.97-.7-15.57.3-15.57.7-15.57Z"/><path class="cls-6" d="m54.13,1014.9c.38,0,.7,6.97.7,15.57s-.3,15.57-.7,15.57-.7-6.97-.7-15.57.3-15.57.7-15.57Z"/><path class="cls-6" d="m68.64,1014.9c.38,0,.7,6.97.7,15.57s-.3,15.57-.7,15.57-.7-6.97-.7-15.57.3-15.57.7-15.57Z"/><path class="cls-6" d="m83.18,1014.9c.38,0,.7,6.97.7,15.57s-.3,15.57-.7,15.57-.7-6.97-.7-15.57.3-15.57.7-15.57Z"/><path class="cls-6" d="m97.69,1014.9c.38,0,.7,6.97.7,15.57s-.3,15.57-.7,15.57-.7-6.97-.7-15.57.3-15.57.7-15.57Z"/><path class="cls-6" d="m112.21,1014.9c.38,0,.7,6.97.7,15.57s-.3,15.57-.7,15.57-.7-6.97-.7-15.57.3-15.57.7-15.57Z"/><path class="cls-6" d="m126.74,1014.9c.38,0,.7,6.97.7,15.57s-.3,15.57-.7,15.57-.7-6.97-.7-15.57.3-15.57.7-15.57Z"/><path class="cls-6" d="m141.26,1014.9c.38,0,.7,6.97.7,15.57s-.3,15.57-.7,15.57-.7-6.97-.7-15.57.3-15.57.7-15.57Z"/><path class="cls-6" d="m155.77,1014.9c.38,0,.7,6.97.7,15.57s-.3,15.57-.7,15.57-.7-6.97-.7-15.57.3-15.57.7-15.57Z"/><path class="cls-10" d="m159.31,951.61H0v32.13h159.31v-32.13Z"/><path class="cls-6" d="m39.62,952.13c.38,0,.7,6.97.7,15.57s-.3,15.57-.7,15.57-.7-6.97-.7-15.57.3-15.57.7-15.57Z"/><path class="cls-6" d="m54.13,952.13c.38,0,.7,6.97.7,15.57s-.3,15.57-.7,15.57-.7-6.97-.7-15.57.3-15.57.7-15.57Z"/><path class="cls-6" d="m68.64,952.13c.38,0,.7,6.97.7,15.57s-.3,15.57-.7,15.57-.7-6.97-.7-15.57.3-15.57.7-15.57Z"/><path class="cls-6" d="m83.18,952.13c.38,0,.7,6.97.7,15.57s-.3,15.57-.7,15.57-.7-6.97-.7-15.57.3-15.57.7-15.57Z"/><path class="cls-6" d="m97.69,952.13c.38,0,.7,6.97.7,15.57s-.3,15.57-.7,15.57-.7-6.97-.7-15.57.3-15.57.7-15.57Z"/><path class="cls-6" d="m112.21,952.13c.38,0,.7,6.97.7,15.57s-.3,15.57-.7,15.57-.7-6.97-.7-15.57.3-15.57.7-15.57Z"/><path class="cls-6" d="m126.74,952.13c.38,0,.7,6.97.7,15.57s-.3,15.57-.7,15.57-.7-6.97-.7-15.57.3-15.57.7-15.57Z"/><path class="cls-6" d="m141.26,952.13c.38,0,.7,6.97.7,15.57s-.3,15.57-.7,15.57-.7-6.97-.7-15.57.3-15.57.7-15.57Z"/><path class="cls-6" d="m155.77,952.13c.38,0,.7,6.97.7,15.57s-.3,15.57-.7,15.57-.7-6.97-.7-15.57.3-15.57.7-15.57Z"/><path class="cls-6" d="m159.36,1014.47c0,.38-35.59.7-79.51.7s-79.51-.3-79.51-.7,35.59-.7,79.51-.7,79.51.3,79.51.7Z"/><path class="cls-2" d="m177.98,1046.25H18.67v30.89h159.31v-30.89Z"/><path class="cls-6" d="m28.92,1046.76c.38,0,.7,6.7.7,14.97s-.3,14.97-.7,14.97-.7-6.7-.7-14.97.3-14.97.7-14.97Z"/><path class="cls-6" d="m43.67,1046.76c.38,0,.7,6.7.7,14.97s-.3,14.97-.7,14.97-.7-6.7-.7-14.97.3-14.97.7-14.97Z"/><path class="cls-6" d="m58.26,1046.76c.38,0,.7,6.7.7,14.97s-.3,14.97-.7,14.97-.7-6.7-.7-14.97.3-14.97.7-14.97Z"/><path class="cls-6" d="m72.8,1046.76c.38,0,.7,6.7.7,14.97s-.3,14.97-.7,14.97-.7-6.7-.7-14.97.3-14.97.7-14.97Z"/><path class="cls-6" d="m87.32,1046.76c.38,0,.7,6.7.7,14.97s-.3,14.97-.7,14.97-.7-6.7-.7-14.97.3-14.97.7-14.97Z"/><path class="cls-6" d="m101.83,1046.76c.38,0,.7,6.7.7,14.97s-.3,14.97-.7,14.97-.7-6.7-.7-14.97.3-14.97.7-14.97Z"/><path class="cls-6" d="m116.37,1046.76c.38,0,.7,6.7.7,14.97s-.3,14.97-.7,14.97-.7-6.7-.7-14.97.3-14.97.7-14.97Z"/><path class="cls-6" d="m130.88,1046.76c.38,0,.7,6.7.7,14.97s-.3,14.97-.7,14.97-.7-6.7-.7-14.97.3-14.97.7-14.97Z"/><path class="cls-6" d="m145.39,1046.76c.38,0,.7,6.7.7,14.97s-.3,14.97-.7,14.97-.7-6.7-.7-14.97.3-14.97.7-14.97Z"/><path class="cls-6" d="m159.93,1046.76c.38,0,.7,6.7.7,14.97s-.3,14.97-.7,14.97-.7-6.7-.7-14.97.3-14.97.7-14.97Z"/><path class="cls-6" d="m174.44,1046.76c.38,0,.7,6.7.7,14.97s-.3,14.97-.7,14.97-.7-6.7-.7-14.97.3-14.97.7-14.97Z"/><path class="cls-6" d="m178.01,1046.36c0,.38-35.59.7-79.51.7s-79.51-.3-79.51-.7,35.59-.7,79.51-.7,79.51.3,79.51.7Z"/><path class="cls-10" d="m167.74,1077.17H8.43v30.89h159.31v-30.89Z"/><path class="cls-6" d="m18.67,1077.68c.38,0,.7,6.7.7,14.97s-.3,14.97-.7,14.97-.7-6.7-.7-14.97.3-14.97.7-14.97Z"/><path class="cls-6" d="m33.43,1077.68c.38,0,.7,6.7.7,14.97s-.3,14.97-.7,14.97-.7-6.7-.7-14.97.3-14.97.7-14.97Z"/><path class="cls-6" d="m48.02,1077.68c.38,0,.7,6.7.7,14.97s-.3,14.97-.7,14.97-.7-6.7-.7-14.97.3-14.97.7-14.97Z"/><path class="cls-6" d="m62.56,1077.68c.38,0,.7,6.7.7,14.97s-.3,14.97-.7,14.97-.7-6.7-.7-14.97.3-14.97.7-14.97Z"/><path class="cls-6" d="m77.07,1077.68c.38,0,.7,6.7.7,14.97s-.3,14.97-.7,14.97-.7-6.7-.7-14.97.3-14.97.7-14.97Z"/><path class="cls-6" d="m91.59,1077.68c.38,0,.7,6.7.7,14.97s-.3,14.97-.7,14.97-.7-6.7-.7-14.97.3-14.97.7-14.97Z"/><path class="cls-6" d="m106.13,1077.68c.38,0,.7,6.7.7,14.97s-.3,14.97-.7,14.97-.7-6.7-.7-14.97.3-14.97.7-14.97Z"/><path class="cls-6" d="m120.64,1077.68c.38,0,.7,6.7.7,14.97s-.3,14.97-.7,14.97-.7-6.7-.7-14.97.3-14.97.7-14.97Z"/><path class="cls-6" d="m135.15,1077.68c.38,0,.7,6.7.7,14.97s-.3,14.97-.7,14.97-.7-6.7-.7-14.97.3-14.97.7-14.97Z"/><path class="cls-6" d="m149.66,1077.68c.38,0,.7,6.7.7,14.97s-.3,14.97-.7,14.97-.7-6.7-.7-14.97.3-14.97.7-14.97Z"/><path class="cls-6" d="m164.2,1077.68c.38,0,.7,6.7.7,14.97s-.3,14.97-.7,14.97-.7-6.7-.7-14.97.3-14.97.7-14.97Z"/><path class="cls-6" d="m167.77,1077.28c0,.38-35.59.7-79.51.7s-79.51-.3-79.51-.7,35.59-.7,79.51-.7,79.51.3,79.51.7Z"/><path class="cls-2" d="m176.82,1107.65H17.51v30.89h159.31v-30.89Z"/><path class="cls-6" d="m27.75,1108.16c.38,0,.7,6.7.7,14.97s-.3,14.97-.7,14.97-.7-6.7-.7-14.97.3-14.97.7-14.97Z"/><path class="cls-6" d="m42.54,1108.16c.38,0,.7,6.7.7,14.97s-.3,14.97-.7,14.97-.7-6.7-.7-14.97.3-14.97.7-14.97Z"/><path class="cls-6" d="m57.13,1108.16c.38,0,.7,6.7.7,14.97s-.3,14.97-.7,14.97-.7-6.7-.7-14.97.3-14.97.7-14.97Z"/><path class="cls-6" d="m71.64,1108.16c.38,0,.7,6.7.7,14.97s-.3,14.97-.7,14.97-.7-6.7-.7-14.97.3-14.97.7-14.97Z"/><path class="cls-6" d="m86.18,1108.16c.38,0,.7,6.7.7,14.97s-.3,14.97-.7,14.97-.7-6.7-.7-14.97.3-14.97.7-14.97Z"/><path class="cls-6" d="m100.69,1108.16c.38,0,.7,6.7.7,14.97s-.3,14.97-.7,14.97-.7-6.7-.7-14.97.3-14.97.7-14.97Z"/><path class="cls-6" d="m115.21,1108.16c.38,0,.7,6.7.7,14.97s-.3,14.97-.7,14.97-.7-6.7-.7-14.97.3-14.97.7-14.97Z"/><path class="cls-6" d="m129.74,1108.16c.38,0,.7,6.7.7,14.97s-.3,14.97-.7,14.97-.7-6.7-.7-14.97.3-14.97.7-14.97Z"/><path class="cls-6" d="m144.26,1108.16c.38,0,.7,6.7.7,14.97s-.3,14.97-.7,14.97-.7-6.7-.7-14.97.3-14.97.7-14.97Z"/><path class="cls-6" d="m158.77,1108.16c.38,0,.7,6.7.7,14.97s-.3,14.97-.7,14.97-.7-6.7-.7-14.97.3-14.97.7-14.97Z"/><path class="cls-6" d="m173.31,1108.16c.38,0,.7,6.7.7,14.97s-.3,14.97-.7,14.97-.7-6.7-.7-14.97.3-14.97.7-14.97Z"/><path class="cls-6" d="m176.87,1107.76c0,.38-35.59.7-79.51.7s-79.51-.3-79.51-.7,35.59-.7,79.51-.7,79.51.3,79.51.7Z"/><path class="cls-2" d="m922.94,308.67c0,170.47-138.2,308.67-308.67,308.67-77.99,0-151.28-27.38-205.6-75.05-64.45-56.56-103.07-141.12-103.07-233.63C305.59,138.2,443.8,0,614.27,0s308.67,138.2,308.67,308.67Z"/><path class="cls-6" d="m922.24,335.59c.35-3.59.68-7.13.86-10.7.27-3.76.43-7.51.57-11.24-.11,3.76-.3,7.49-.57,11.24-.22,3.57-.51,7.11-.86,10.7Z"/><path class="cls-6" d="m717.04,484.85c-9.92,10.16-14.16,24.46-19.03,37.89-4.84,13.4-11.38,27.4-23.62,34.46-12.24,7.05-31.29,2.73-34.51-11.13-1.76-7.51,1.46-15.35,1.22-23.08-.3-10.08-6.38-19-8.13-28.92-1.49-8.46.22-17.13,1.62-25.62,7.76-46.4,6.24-96.72-17.89-136.64-2.97-4.89-6.46-9.81-11.57-12.32-6.05-3-13.86-1.86-18.92,2.73-3.13,2.84-5.24,6.86-8.84,9.08-7.81,4.84-18.43-1.84-21.27-10.62-2.84-8.78-.3-18.35,2.22-27.27,3.13-11.05,6.27-22.11,9.4-33.16,1.65-5.78,3.54-11.94,8.19-15.67,6.62-5.27,16.35-3.68,23.92-7.38,9.94-4.89,13.57-17.21,20.89-25.62,7.32-8.4,25.16-9.05,25.57,2.13,25.78-35.73,54.08,30.54,78.61,30.81,7.13.08,14.51-1.95,21.24.41,11.89,4.16,15.48,19.13,17.3,31.78,3.03,21.03,6.03,42.05,9.05,63.05,1.16,8,2.89,17,9.62,21.32,5.13,3.3,11.94,2.92,17.16,6.11,13.78,8.46,4.22,31.32-9.81,39.48-14.05,8.19-32.13,11.51-40.81,25.43-6.51,10.49-5.73,24.43-12.57,34.7-4.89,7.35-12.97,11.78-19.11,18.08l.05-.03Z"/><path class="cls-6" d="m770.9,508.82c-5.03-.27-10.3-3.86-14.67-1.3-2.54,1.51-3.65,4.57-5.05,7.19-1.97,3.65-4.97,6.86-8.84,8.27-3.84,1.41-8.57.65-11.24-2.43-2.7-3.08-2.62-8.51.57-11.08,1.46-1.16,3.32-1.68,4.92-2.68,7.73-4.97,5.57-17.4,11.97-23.86,3.78-3.81,9.22-7.32,13.3-11.13,3.13-2.92,4.57-5.46,9.27-5.46,20.54-.05,21.16,43.62-.19,42.48h-.03Z"/><path class="cls-6" d="m395.34,529.57c2.19,2.27,4.43,4.49,6.73,6.65-2.3-2.19-4.51-4.4-6.73-6.65Z"/><path class="cls-6" d="m918.43,362.18c.86-4.46,1.59-8.89,2.22-13.32-.62,4.43-1.38,8.86-2.22,13.32-.19,1.43-.46,2.86-.76,4.27-1.35,6.84-2.92,13.54-4.65,20.19,1.73-6.68,3.3-13.35,4.65-20.19.27-1.41.57-2.84.76-4.27Z"/><path class="cls-6" d="m919.97,254.87c.68,4.19,1.24,8.4,1.73,12.62-.49-4.22-1.08-8.4-1.73-12.62,0,0,.05-.03,0-.05v.05Z"/><path class="cls-6" d="m918.43,362.18c.86-4.46,1.59-8.89,2.22-13.32.62-4.43,1.16-8.86,1.59-13.3.35-3.59.68-7.13.86-10.7.24-3.76.43-7.51.57-11.24.35-11.24.11-22.4-.73-33.46-.32-4.24-.73-8.49-1.24-12.7-.49-4.22-1.08-8.4-1.73-12.62v-.05c-.95-3.24-2.03-6.43-3.22-9.62-11.46-30.48-31.7-56.62-45.08-86.29-4.38-9.65-7.67-17.57-18.05-21.35-15.32-5.62-25.16,1.97-33.35-15.54-2.22-4.7-6.73-9.57-11.67-8,.51,3.51,1.05,7,1.54,10.57.11.73.19,1.51-.05,2.22-.7,2.24-4.16,2.22-5.84.57-1.65-1.7-2.16-4.19-3.13-6.35-3.54-8.27-15.05-11.51-22.4-6.4.38-3.13-1.08-6.4-3.59-8.22-1.81,5.89-9.46,9-14.73,5.97-.32-3.16,5-2.68,7.32-4.84,2.16-2.05.78-5.78-.97-8.22-4.7-6.22-11.65-10.67-19.21-12.38-4.84-1.05-10.24-1.16-13.94-4.54-2.16-1.95-3.41-4.73-5.62-6.65-4.7-4.13-11.94-2.62-17.92-.65-8.16,2.7-16.76,6.43-20.97,14.08-4.24,7.59-.62,19.73,7.95,20.35,2.16.14,4.57-.46,6.51.54,2.81,1.41,3.46,5.19,3.08,8.38-.38,3.13-1.35,6.38-.41,9.4.89,3.03,5,5.24,7.19,3,4.68-3.03,5.46-9.54,5.54-15.16.11-5.62.22-11.94,4.27-15.76,4.08-3.81,12.92-.59,11.22,4.76-1.03,3.13-5.08,4.78-5.59,8.08-.51,3.35,3.11,5.89,6.4,6.4,3.27.54,6.84,0,9.84,1.43,3.05,1.41,4.76,6.16,1.97,8.11-4.89,3.81-13.7-6.11-16.89-.81-.86,1.35-.62,3.13-1.08,4.68-1.32,4.7-7.57,5.3-12.4,4.97-4.81-.38-9.89-.89-13.76-3.78-3.86-2.89-5.65-9.19-2.41-12.81-2.05-2.24-6.05-1.19-7.86,1.3-1.84,2.43-2.08,5.73-2.3,8.78-4.76-2.11-10.08,1.3-13.76,5-3.73,3.73-7.46,8.16-12.59,8.73-5.19.54-11.49-2.84-14.92,1.16-4.46,5.22,3.65,14.54-.86,19.67-2.57,2.89-7.16,1.89-11,2.19-10.19.86-16.38,14.57-11.32,23.54,5,8.97,18.27,11.13,26.67,5.19,5.84-4.08,9.22-10.76,13.89-16.13,4.7-5.32,12.38-9.49,18.62-6.22,2.43,1.3,4.27,3.59,6,5.76,2.68,3.38,5.35,6.73,8,10.16,1.7,2.16,3.54,4.81,2.81,7.51-.62,2.16-2.65,3.54-3.76,5.46-3.19,5.51,4.11,12.78,10,10.62,5.97-2.16,8.13-10.32,5.54-16.11-3.59-8.03-14.16-13.76-12.16-22.4,6.7-3.65,14.76,3.19,16.78,10.62,2.03,7.4.54,15.43,1.97,22.97,1.43,7.59,8.13,15.38,15.4,13.24-.54-6.4-1.03-12.73-1.57-19.08,4.86-2.38,7.84,7.95,13.19,7.38,3.27-.38,4.54-4.78,3.78-8.08-.7-3.3-2.59-6.3-2.51-9.67.22-6.16,7.78-10.19,13.51-8.05,5.65,2.13,8.78,8.7,8.73,14.84-.03,2.43-.43,4.95.16,7.3,1.27,5.13,6.7,7.67,11.03,10.57,4.35,2.89,8.3,8.7,5.38,13.11-1.32,1.92-3.89,3.49-3.54,5.81.35,2.05,2.97,3.43,2.57,5.49-.32,1.35-1.89,2-3.24,2.3-3.43.7-6.97.46-10.32,1.35-3.35.86-6.73,3.35-7.16,6.81-.59,4.97,4.65,8.43,6.54,13.03,1.84,4.38.43,9.43,1.19,14.13.73,4.35,3.27,8.16,5.13,12.13,5.78,12.62,4.84,27.21,6.13,41.05.57,6.24,2.41,13.49,8.13,15.78,3.13,1.24,6.65.59,9.97,0,9.27-1.78,18.92-3.73,26.32-9.62,7.46-5.95,11.76-17.11,6.95-25.32-.59-1.08-1.43-2.11-2.54-2.49-1.59-.51-3.24.32-4.84.73-4.76,1.19-9.81-1.59-12.81-5.57-2.95-3.95-4.27-8.92-5.57-13.73-1.41-5.3-2.78-10.65-4.22-16,3.32-1.89,7.62.03,10.08,3,2.41,2.97,3.49,6.78,5.27,10.19,5.35,10.51,16.3,16.84,27.4,20.46,2.81.92,5.73,1.76,8.19,3.49,7.7,5.65,7.62,18.86,16.05,23.38,2.35,1.27,5.16,1.68,7.27,3.27,3.22,2.41,4.16,6.86,4.46,10.94.54,7.57-.27,15.27,1.35,22.7,1.57,7.4,6.35,14.81,13.62,16.35,4.54,1,9.32-.49,13.27-3.11v-.05c1.73-6.68,3.3-13.35,4.65-20.19.27-1.41.57-2.84.76-4.27v-.14Z"/><path class="cls-6" d="m587.43,64.37c-6.73,2.46-11.3,8.73-16.97,13.16-5.68,4.43-14.76,6.59-19.35,1.05-2.22-2.65-2.7-6.43-2.32-9.89.54-5,2.7-9.81,6.05-13.49,3.46-3.81,8.13-6.43,11.24-10.57,3.11-4.13,3.97-10.89-.14-13.92-2.22-1.65-5.38-1.78-7.24-3.86-3.32-3.7.84-10.08,5.73-10.94,4.89-.86,9.65,1.51,14.43,2.78,17.35,4.62,32.56-4.54,47.7-11.67,11.76-5.54,35.4-10.16,45.75-.08,4.13,4.03,4.4,12.32-.73,14.92-2.3,1.16-5.13.97-7.32,2.32-2.65,1.62-3.62,4.97-5.46,7.51-4.76,6.59-14.86,7.32-19.4,14.05-2.73,4.05-2.97,9.73-6.59,13-2.86,2.59-7.03,2.86-10.84,3.03-8,.35-16,.68-24,1.03-3.57.16-7.19.32-10.54,1.54v.03Z"/><path class="cls-6" d="m349.45,162.09c6.65-3.81,16.54-2.46,19.67,4.54,2.24,5.03.35,10.89-1.54,16.11-2.54,7-5.05,14.03-7.65,21.03-.76,2.08-1.51,4.38-1,6.57,1.19,5,8.76,5.59,12.4,2.05,3.7-3.59,4.46-9.22,4.68-14.35.22-5.19.27-10.65,3.11-14.97,7.08-10.67,23.78-5.57,35.13-11.16,7.05-3.49,11.35-10.81,16.35-16.97,5-6.16,12.46-11.86,20.05-10,2.57.62,4.92,2.08,7.54,2.51,7.62,1.24,14.27-9.16,9.97-15.7-.86-1.38-2.16-2.62-2.65-4.19-.84-2.86,1.27-5.89,3.92-7.19,2.65-1.24,5.65-1.16,8.57-1.05,6.68.22,13.35.46,20.05.7,7.38.3,17.27-1.65,17.7-9.13.38-6.46-7.46-10.97-7.46-17.46-.03-1.59.49-3.22.08-4.76-1.16-4.4-7.38-3.95-11.59-2.54-.38-6.11-8.03-10.38-13.32-7.46-4.46,2.46-6.08,8.03-8.38,12.62-5.49,11.11-16.4,18.19-26.75,24.7-3.46,2.16-7.35,4.43-11.38,3.84-4.03-.59-7.32-5.76-4.81-8.97,1.73-2.19,5.46-2.92,5.68-5.73.19-3.51-5.7-4.43-6.22-7.92,4.22-9.22,15.89-11.08,25.27-14.59,11.35-4.24,21.27-12.54,27.46-23.19,1.03-1.68,1.97-3.73,1.41-5.62-.76-2.7-3.89-3.7-6.62-4.24-6.4-1.38-14.59-2.08-18.13,3.57-1.89,3.03-1.73,6.92-3.16,10.19-4.27,9.7-18.16,8.13-27.7,12.54-3.73,1.7-6.92,4.46-10.86,5.57-4.27,1.14-17.54-.97-13.16-.43.54.08.78.05,0,0-3.38,3.22-8,7.7-11.22,11.08s-6.03,6.57-9.08,10.08c-14.43,16.59-28.56,33.73-39.43,53.4-3.78,6.84-7.32,13.86-10.62,21.03-3.3,7.19-6.32,14.51-9.11,22.02,4.22-5.68,7.08-13.11,9.32-18.35,3.05-7.05,6.92-14.32,13.51-18.13l-.03-.03Z"/><path class="cls-6" d="m380.86,513.71h.05c2.57,3.11,5.22,6.08,7.95,9,2.13,2.32,4.3,4.62,6.49,6.86,2.19,2.27,4.43,4.49,6.73,6.65,1.59,1.54,3.19,3.03,4.84,4.51-.14-.59-.27-1.11-.41-1.7-3.73-16.21.16-37.78,15.94-42.32,3-.86,6.3-1.05,8.97-2.76,7.59-4.89,4.89-18.62,12.49-23.51,4.27-2.7,9.84-1.35,14.7-2.51,8.76-2.19,13.4-12.13,14.57-21.24,1.11-9.08,0-18.54,2.76-27.27,4.27-13.21,17.32-24.89,13.81-38.29-3.97-14.94-23.84-16.59-36.29-25.4-17.4-12.32-18.51-37.62-27.62-57.13-8.16-17.46-30.92-39.37-51.7-38.7-15.05.49-21.7,8.24-25.32,18.7-.59-.22-1.16-.43-1.76-.65-5.22-1.65-11.38-3.16-13.43-8.24-2.38-5.89,2.51-13,.03-18.84-1.3-3.05-4.22-4.84-6.43-7.27-2.22-2.38-3.73-6.32-1.59-8.84,1.76-2.13,5.22-1.97,7.32-3.84,1.7-1.49,2.16-4.19,1.11-6.13-4.16-7.67-12.92,4.57-16.57,7.13-1.05.76-2.03,1.38-2.92,1.86v.05c-.16.57-.32,1.11-.43,1.7-.43,1.81-.81,3.7-1.19,5.54-.41,1.86-.84,3.7-1.19,5.54-.3,1.51-.54,3.03-.81,4.54-.27,1.51-.57,3.03-.81,4.54-.14.73-.27,1.41-.38,2.16-5.59,34.59-5.4,68.89-.11,101.77,2.41,15,5.92,29.75,10.51,44.1,1.86,6.22,4.03,12.38,6.35,18.46,2.89,7.54,6,14.94,9.51,22.19,3.22,6.92,6.76,13.78,10.57,20.4,5.22,9.22,10.86,18.08,17,26.7,5.4,7.67,11.16,15.05,17.3,22.19"/><path class="cls-2" d="m1132.51,262.03c-.49,42.48-35.4,76.53-77.99,76.05-42.59-.49-76.72-35.32-76.24-77.83.49-42.48,35.4-76.53,77.99-76.05,42.59.49,76.72,35.32,76.24,77.8v.03Z"/><path class="cls-10" d="m1114.16,261.84c-.38,32.38-26.97,58.32-59.43,57.94-32.46-.38-58.45-26.92-58.08-59.29.38-32.38,26.97-58.32,59.43-57.94,32.46.38,58.45,26.92,58.1,59.29h-.03Z"/><path class="cls-6" d="m1114.19,260c-.35,0-.57-2.57-1.46-7.08-.92-4.49-2.62-10.97-6.57-18.08-1.97-3.54-4.49-7.22-7.65-10.76-3.19-3.51-7-6.92-11.46-9.84-2.22-1.46-4.59-2.81-7.13-3.97-2.51-1.16-5.16-2.24-7.95-3.03-2.78-.81-5.65-1.49-8.59-1.86-2.95-.41-6-.57-9.05-.54-3.08.08-6.08.38-9.03.89-2.95.51-5.78,1.3-8.51,2.22-2.76.92-5.35,2.08-7.81,3.35-2.49,1.27-4.78,2.73-6.97,4.27-4.35,3.08-8,6.65-11.05,10.3-3.03,3.68-5.38,7.46-7.22,11.05-3.65,7.27-5.11,13.81-5.84,18.32-.7,4.54-.84,7.13-1.19,7.13-.27,0-.76-2.57-.57-7.32.22-4.7,1.22-11.65,4.7-19.51,1.76-3.92,4.08-8.03,7.19-12.03,3.11-3.97,6.92-7.89,11.51-11.3,2.3-1.7,4.76-3.32,7.4-4.73,2.65-1.41,5.43-2.7,8.38-3.73,2.95-1.03,6-1.89,9.19-2.46,3.16-.57,6.43-.89,9.73-1,3.3-.05,6.57.16,9.76.59,3.19.43,6.3,1.19,9.27,2.08,3,.89,5.84,2.08,8.51,3.38,2.7,1.3,5.22,2.81,7.57,4.4,4.73,3.22,8.7,6.97,11.97,10.84,3.24,3.89,5.76,7.89,7.65,11.73,3.78,7.7,5.08,14.62,5.49,19.3.38,4.73,0,7.32-.27,7.32v.05Z"/><path class="cls-6" d="m1061.66,296.27v10.24h-9.11v-9.97c-9.08-.51-17.78-3.32-22.81-7.24l5-11.16c4.57,3.38,11.16,5.81,17.75,6.43l-.05-15.27c-10.16-2.43-21.48-5.78-21.54-18.86-.03-9.7,6.97-18.03,21.43-19.7v-10.13l9.11-.03v9.97c6.89.54,13.57,2.32,18.59,5.51l-4.54,11.27c-4.68-2.65-9.43-4.19-14-4.7l.05,15.54c10.16,2.35,21.32,5.7,21.35,18.59.03,9.51-6.89,17.76-21.24,19.54v-.03Zm-9.27-40.37l-.05-12.97c-4.84,1.11-6.76,3.76-6.73,6.78,0,3.19,2.76,4.92,6.78,6.19Zm15.78,21.97c0-3.19-2.68-4.92-6.59-6.3v12.62c4.59-1.03,6.62-3.41,6.59-6.32Z"/><path class="cls-2" d="m663.64,787.38c-.35,29.65-24.7,53.37-54.4,53.05-29.7-.35-53.51-24.65-53.16-54.27.35-29.62,24.7-53.37,54.4-53.02,29.7.35,53.51,24.65,53.16,54.27v-.03Z"/><path class="cls-10" d="m650.83,787.22c-.27,22.59-18.81,40.67-41.46,40.43-22.62-.27-40.78-18.78-40.51-41.35.27-22.59,18.81-40.67,41.46-40.43,22.65.27,40.78,18.78,40.51,41.35Z"/><path class="cls-6" d="m650.86,785.95c-.24,0-.41-1.78-1.03-4.95-.65-3.13-1.84-7.65-4.59-12.62-1.38-2.46-3.13-5.03-5.35-7.51-2.22-2.46-4.86-4.84-8-6.86-1.54-1.03-3.22-1.97-4.97-2.78-1.76-.81-3.59-1.57-5.54-2.11-1.92-.57-3.95-1.03-6-1.3-2.05-.27-4.16-.41-6.32-.38-2.13.05-4.24.27-6.3.62-2.05.35-4.03.89-5.95,1.54-1.92.65-3.73,1.46-5.46,2.32-1.73.89-3.35,1.89-4.86,2.97-3.03,2.13-5.59,4.65-7.7,7.16-2.11,2.57-3.76,5.19-5.03,7.73-2.54,5.05-3.57,9.65-4.08,12.78-.49,3.16-.57,4.97-.84,4.97-.19,0-.51-1.78-.38-5.11.16-3.27.84-8.13,3.27-13.59,1.22-2.73,2.86-5.59,5-8.38,2.16-2.78,4.84-5.51,8.03-7.89,1.59-1.19,3.32-2.32,5.16-3.3,1.84-.97,3.78-1.89,5.84-2.59,2.05-.7,4.19-1.32,6.4-1.7,2.22-.41,4.49-.62,6.78-.68,2.3-.03,4.59.11,6.81.43,2.22.3,4.38.84,6.46,1.46,2.08.62,4.05,1.46,5.95,2.35,1.89.89,3.65,1.95,5.3,3.08,3.3,2.24,6.05,4.86,8.35,7.57,2.27,2.7,4.03,5.51,5.35,8.19,2.65,5.38,3.54,10.19,3.81,13.46.27,3.3,0,5.11-.19,5.11h.08Z"/><path class="cls-6" d="m614.21,811.27v7.13h-6.35v-6.95c-6.32-.35-12.4-2.32-15.92-5.05l3.49-7.78c3.19,2.35,7.78,4.05,12.38,4.49v-10.65c-7.11-1.7-15.03-4.03-15.05-13.16,0-6.76,4.86-12.57,14.94-13.76v-7.08h6.35v6.95c4.81.38,9.46,1.62,12.97,3.84l-3.16,7.86c-3.27-1.84-6.57-2.92-9.76-3.3v10.84c7.11,1.62,14.89,3.97,14.92,12.97,0,6.62-4.81,12.38-14.81,13.62v.03Zm-6.46-28.16v-9.05c-3.41.78-4.73,2.62-4.73,4.73,0,2.24,1.92,3.43,4.73,4.32Zm11,15.32c0-2.24-1.86-3.43-4.59-4.38v8.81c3.22-.7,4.62-2.38,4.59-4.4v-.03Z"/><path class="cls-2" d="m225.17,605.89c-.68,58.75-48.97,105.83-107.85,105.15-58.89-.68-106.07-48.86-105.4-107.61.68-58.75,48.97-105.83,107.85-105.15,58.89.68,106.07,48.86,105.4,107.61Z"/><path class="cls-10" d="m199.79,605.59c-.51,44.78-37.32,80.64-82.18,80.13-44.86-.51-80.83-37.24-80.32-81.99.51-44.78,37.32-80.64,82.18-80.13,44.89.51,80.83,37.24,80.32,81.99Z"/><path class="cls-6" d="m199.79,603.05c-.49,0-.81-3.57-2.03-9.81-1.27-6.19-3.62-15.19-9.08-25.02-2.73-4.89-6.22-9.97-10.59-14.89-4.4-4.86-9.65-9.59-15.84-13.59-3.08-2.03-6.35-3.89-9.86-5.51-3.49-1.62-7.13-3.08-11-4.19-3.84-1.11-7.81-2.05-11.89-2.59-4.08-.54-8.27-.81-12.51-.73-4.24.11-8.43.54-12.49,1.24-4.08.7-8,1.78-11.78,3.05-3.81,1.27-7.4,2.86-10.81,4.65-3.43,1.76-6.62,3.76-9.62,5.89-6,4.27-11.08,9.19-15.27,14.21-4.19,5.08-7.46,10.3-10,15.3-5.05,10.05-7.05,19.11-8.08,25.35-.97,6.27-1.14,9.86-1.65,9.86-.35,0-1.03-3.57-.76-10.11.3-6.51,1.68-16.13,6.51-26.97,2.41-5.4,5.65-11.08,9.92-16.65,4.3-5.51,9.57-10.92,15.92-15.62,3.16-2.35,6.57-4.59,10.22-6.51,3.65-1.95,7.51-3.73,11.59-5.13,4.08-1.41,8.3-2.62,12.7-3.41,4.38-.78,8.89-1.24,13.46-1.38,4.57-.05,9.08.22,13.51.84,4.4.59,8.7,1.65,12.81,2.89,4.13,1.24,8.05,2.86,11.78,4.68,3.73,1.78,7.22,3.89,10.49,6.11,6.54,4.46,12.03,9.65,16.54,14.97,4.49,5.38,7.97,10.92,10.59,16.21,5.24,10.65,7.03,20.21,7.57,26.7.51,6.54,0,10.13-.38,10.13l.03.03Z"/><path class="cls-6" d="m127.18,653.23l.05,14.16h-12.65l-.03-13.73c-12.51-.73-24.54-4.59-31.51-10.03l6.89-15.43c6.32,4.65,15.43,8.05,24.54,8.89l-.05-21.11c-14.03-3.38-29.73-8-29.78-26.08-.03-13.4,9.65-24.92,29.62-27.27l-.05-14.03h12.65l.03,13.73c9.49.73,18.7,3.22,25.67,7.62l-6.27,15.57c-6.46-3.65-13.03-5.78-19.35-6.51l.05,21.48c14.03,3.24,29.48,7.86,29.51,25.7.03,13.13-9.54,24.54-29.38,27l.05.03Zm-12.81-55.83l-.05-17.94c-6.7,1.54-9.32,5.22-9.32,9.38,0,4.43,3.81,6.81,9.38,8.57Zm21.84,30.4c0-4.43-3.68-6.81-9.13-8.7l.05,17.43c6.32-1.41,9.08-4.7,9.08-8.76v.03Z"/><path class="cls-4" d="m810,267.65c-9.78-3.57-19.35,5-26.84,12.24-27.54,26.7-63.32,44.75-101.15,51.05-5.05.84-11.05,2.16-12.92,6.95-1.92,4.92,1.89,10.08,5.73,13.73,17.78,16.86,41.94,26.86,66.43,27.46l65.32-29.32c10.57-17.7,15.89-38.51,15.13-59.13-.35-9.11-3.11-19.81-11.67-22.94l-.03-.03Z"/><path class="cls-4" d="m1053.93,833.87c-3.78-51.89-10.65-103.91-26.54-153.44-15.89-49.54-49.54-109.26-95.91-148.12l-175.93,13.62c-44.35,21.3-75.97,79.51-85.02,127.88-9.05,48.35-8.13,98.61-22.54,145.66-8.32,27.16-21.59,52.62-29.43,79.94-7.84,27.29-9.73,58.08,4.11,82.88,18,32.27,57.37,45.97,94.1,50.1,81.07,9.11,149.34,4.86,227.28-19.27,24.24-7.51,49.45-15.57,67.67-33.24,16-15.51,34.1-32.73,41.16-79.32,3.32-22.02,2.7-44.46,1.08-66.7h-.03Z"/><g class="cls-12"><path d="m904.35,586.65c-3.92-23.7-12.89-46.54-26.11-66.59l-73.37,29.19c-12.73,33.29-13.11,62.62-2.11,96.53,3.03-20.38,5.27-37.89,11.62-67.78,1.41-6.7,1.54-13.76,4.51-19.92,2.97-6.16,8.59-11.51,15.4-12.24,6.59-.7,13.03,3.05,17.27,8.16,4.24,5.11,6.68,11.43,9.03,17.62,9.76,25.59,4.76,34.05,14.54,59.64,4.76-31.75,7.35-46.21-4.59-76.02,13.57,7.59,25.27,18.46,33.86,31.4h-.05Z"/></g><path class="cls-5" d="m671.42,398.93s17.57-25.89,67.48-42.51l72.18-24.02,5.54-9.46s12.86-7.19,35.97,3.89c23.11,11.08,81.34,50.83,89.67,54.54,8.32,3.7,103.53,45.29,103.53,45.29l-48.08,134.96s-34.21-22.19-49-24.02c-14.78-1.84-51.51,11.43-65.37,14.21s-113.96,8.89-127.83-5.89c-13.86-14.78-15.73-21.27-4.62-33.27,0,0-14.35,4.38-24.08-8.95-3.86-5.3-5.49-11.92-5.13-18.46l.54-10.51s-19.4,4.62-28.65-12.03c-9.24-16.65,4.62-32.35,4.62-32.35,0,0-34.21,9.24-26.81-31.43h.03Z"/><path class="cls-7" d="m726.98,412.01c.22.32-6.24,4.78-14.43,9.97-8.19,5.19-14.97,9.11-15.19,8.78-.22-.32,6.24-4.78,14.43-9.97,8.19-5.19,14.97-9.11,15.19-8.78Z"/><path class="cls-7" d="m741.04,465.96c.24.27-3.22,3.59-8.51,6.11-5.27,2.54-10.03,3.19-10.08,2.81-.08-.41,4.38-1.62,9.49-4.08,5.11-2.43,8.86-5.16,9.13-4.84h-.03Z"/><path class="cls-7" d="m762.06,509.41c.11.38-2.38,1.54-5.57,2.62s-5.89,1.65-6.05,1.3c-.14-.35,2.35-1.54,5.57-2.62,3.22-1.08,5.92-1.65,6.05-1.3Z"/><path class="cls-7" d="m759.25,446.88s-1.46-1.46-2.84-4.43c-1.38-2.95-2.62-7.4-2.65-12.43,0-5.03,1.24-9.49,2.62-12.43,1.38-2.97,2.7-4.54,2.81-4.43.19.14-.81,1.84-1.89,4.81-1.11,2.97-2.13,7.24-2.13,12.08s1.05,9.11,2.16,12.05c1.11,2.97,2.11,4.7,1.89,4.81l.03-.03Z"/><path class="cls-7" d="m781.71,505.47s-1.49-.97-3.08-3.27c-1.59-2.3-3.22-5.92-3.76-10.19-.51-4.27.16-8.19,1.13-10.81.97-2.62,2.05-4,2.19-3.92.22.11-.54,1.65-1.22,4.22-.7,2.57-1.19,6.3-.7,10.32.51,4.03,1.89,7.51,3.22,9.84,1.3,2.35,2.41,3.65,2.22,3.81Z"/><path class="cls-7" d="m748.55,395.8s-1.51-1.27-3.08-3.97c-1.57-2.68-3.16-6.81-3.7-11.57-.49-4.78.19-9.13,1.16-12.08.97-2.97,2.03-4.59,2.16-4.54.43.11-3,7.22-1.95,16.48.89,9.27,5.78,15.48,5.38,15.7l.03-.03Z"/><path class="cls-6" d="m977.85,566.73l50.08-147.88,55.59,16.38-37.73,159.58-67.94-28.08Z"/><path class="cls-13" d="m1030.69,625.32l52.45-195.33,138.07,38.51v225.49l-190.52-68.67Z"/><path class="cls-1" d="m843.24,845.08v21.35h-23.08v-20.59c-19.24-1.35-37.51-6.92-48.67-14.62l12.51-28.08c11.92,7.89,28.84,13.27,44.43,13.27s21.92-4.43,21.92-10.97c0-21.35-76.53-5.78-76.53-55.78,0-21.16,15.19-39.05,46.35-42.89v-21.16h23.08v20.78c14.24,1.16,28.27,5,39.05,11.35l-11.73,28.27c-12.89-6.92-25.57-10.38-37.32-10.38-15.97,0-21.73,5.38-21.73,12.11,0,20.59,76.34,5.19,76.34,54.81,0,20.38-14.62,38.08-44.62,42.51v.03Z"/><path class="cls-13" d="m946.18,731.28s-.16.19-.51.46c-.43.32-.97.73-1.62,1.24-1.54,1.13-3.65,2.7-6.32,4.7-2.76,2.05-6.13,4.51-10.13,7.27-4,2.78-8.49,6-13.59,9.38-10.13,6.86-22.4,14.73-36.27,23.11-13.89,8.3-29.38,17.08-45.91,25.75-16.59,8.59-32.67,16.27-47.43,22.89-14.81,6.54-28.27,12.11-39.7,16.48-5.68,2.27-10.92,4.11-15.46,5.78-4.57,1.7-8.51,3.05-11.76,4.13-3.16,1.05-5.65,1.89-7.49,2.49-.78.24-1.43.46-1.95.62-.43.14-.68.19-.68.16s.22-.14.62-.3c.51-.19,1.13-.43,1.92-.76,1.78-.68,4.27-1.57,7.38-2.73,3.22-1.16,7.13-2.59,11.67-4.35,4.54-1.76,9.73-3.65,15.38-5.97,11.38-4.49,24.78-10.13,39.54-16.73,14.73-6.68,30.75-14.35,47.32-22.94,16.51-8.65,32-17.38,45.91-25.62,13.86-8.3,26.19-16.05,36.37-22.81,5.13-3.3,9.67-6.46,13.7-9.19,4.03-2.7,7.46-5.11,10.27-7.08,2.73-1.89,4.89-3.41,6.49-4.49.7-.46,1.24-.84,1.7-1.14.38-.24.59-.38.62-.35l-.08-.03Z"/><g class="cls-12"><path d="m752.01,839.14s83.51-83.15,169.74-90.59c0,0-130.42,80.24-169.74,90.59Z"/></g><path class="cls-13" d="m763.76,594.16c-.16,0-.14-2.73.73-7.05.84-4.3,2.7-10.16,5.95-16.05,3.24-5.89,7.22-10.59,10.4-13.62,3.19-3.03,5.49-4.51,5.57-4.38.35.32-8.4,7.03-14.73,18.67-6.46,11.57-7.43,22.57-7.89,22.43h-.03Z"/><path class="cls-13" d="m878.16,645.78s-.46-1.24-1-3.54c-.62-2.57-1.38-5.84-2.32-9.76-1.95-8.24-4.76-19.59-8.19-32.05-3.46-12.46-6.89-23.62-9.49-31.7-1.22-3.84-2.24-7.03-3.05-9.57-.7-2.27-1.05-3.54-.97-3.57.08-.03.62,1.16,1.49,3.38.86,2.22,2.05,5.43,3.46,9.43,2.81,8,6.43,19.16,9.89,31.62,3.46,12.49,6.11,23.89,7.81,32.21.86,4.16,1.49,7.51,1.89,9.86.41,2.35.57,3.65.46,3.65l.03.03Z"/><g class="cls-12"><path d="m809.44,281c-1.22-4.43-6.92-5.76-10.89-3.81s-6.59,5.97-9.24,9.7c-23.75,33.29-77.91,49-110.45,49.43,32.16,14.86,52.86,11.11,73.61,5.22,24.4-6.95,47.73-28.43,56.21-53.81.73-2.16,1.35-4.54.76-6.73Z"/></g><path class="cls-13" d="m809.08,282.16s-.11.54-.43,1.54c-.35,1-.76,2.51-1.54,4.35-1.43,3.73-3.86,9.03-7.7,15.11-3.81,6.08-9.13,12.84-16.13,19.27-6.97,6.43-15.73,12.4-25.75,16.86-10.11,4.32-20.43,6.68-29.89,7.38-9.49.76-18.08.05-25.11-1.3-7.05-1.35-12.59-3.13-16.3-4.65-1.89-.68-3.27-1.43-4.22-1.84-.95-.46-1.43-.7-1.43-.76.05-.11,2.08.76,5.84,2.08,3.73,1.35,9.3,2.97,16.27,4.19,7,1.22,15.49,1.81,24.84,1,9.32-.78,19.51-3.11,29.43-7.38,9.89-4.38,18.51-10.22,25.46-16.51,6.95-6.3,12.32-12.92,16.19-18.86,3.89-5.95,6.46-11.11,8.03-14.78,1.57-3.65,2.32-5.73,2.46-5.68v-.03Z"/><path class="cls-13" d="m718.61,357.59c0,.16-2.27.73-6.11.95-3.81.24-9.13,0-14.84-1.27-5.7-1.3-10.62-3.41-13.94-5.24-3.35-1.86-5.19-3.35-5.08-3.49.22-.41,8.13,4.86,19.35,7.35,11.19,2.59,20.62,1.24,20.62,1.7Z"/><path class="cls-7" d="m839.62,331.43c-.03.46-10.16-1-22.46.92-12.32,1.81-21.57,6.24-21.73,5.81-.08-.16,2.13-1.46,5.97-3,3.81-1.54,9.32-3.24,15.57-4.22,6.24-.95,12-.97,16.11-.62,4.11.32,6.59.92,6.59,1.08l-.05.03Z"/><path class="cls-3" d="m1096.84,604.64c0,5.81-4.7,10.51-10.51,10.51s-10.51-4.7-10.51-10.51,4.7-10.51,10.51-10.51,10.51,4.7,10.51,10.51Z"/><g class="cls-12"><path d="m1052.85,900.56c3.32-22.02,2.7-44.46,1.08-66.7-.7-9.49-1.54-19-2.49-28.48-11.57,51.7-28.16,102.61-62.53,142.18-28.32,32.59-67.24,55.1-108.67,67.29s-85.34,14.46-128.37,10.62c-44.62-3.97-89.8-15-126.99-39.62.35.54.65,1.08,1,1.62l4,3.13c.57,1.49,1.24,2.95,1.86,4.4,20.24,23.19,53.59,33.81,85.02,37.32,81.07,9.11,149.34,4.86,227.28-19.27,24.24-7.51,49.45-15.57,67.67-33.24,16-15.51,34.1-32.73,41.16-79.32l-.03.05Z"/></g><g class="cls-12"><path class="cls-1" d="m768.3,645.48c-4.16-8.08-8.81-16.57-14.59-23.62-10.62-12.92-30.32-12.43-40.02,1.19-24.16,33.92-20.03,94.99-11.16,136.39,1.08,5.05,3.49,9.81,7.4,13.19,10.19,8.76,20.73,2.27,29.35-3.84,19.35-13.7,39.92-29.38,45.89-52.32,6.27-24.11-5.43-48.83-16.81-70.99h-.05Z"/></g><g class="cls-12"><path class="cls-1" d="m771.3,920.43c-1.78-10.27-6.54-20.3-14.57-26.92-15.51-12.81-38.48-10.11-57.67-4.03-12.49,3-29.48,22.84-31.62,42.78-2.16,19.94,9.67,40.46,27.7,49.24,18.05,8.78,41.05,5.65,56.56-7.08,15.51-12.73,23.05-34.24,19.59-53.99Z"/></g><path class="cls-1" d="m203.09,303.67l-35.65-13.32c-16.57,8.38-35.46,12.4-55.05,10.73-56.32-4.81-96.96-54.94-90.8-111.99,6.16-57.05,56.78-99.4,113.1-94.59,56.29,4.81,96.96,54.94,90.8,111.99-2.57,23.81-12.92,45.05-28.16,61.4h.05l5.7,35.78Z"/><path class="cls-13" d="m203.09,303.67s-.19-.84-.46-2.41c-.3-1.65-.7-3.95-1.22-6.89-1.05-6.11-2.57-14.94-4.54-26.43l.76.35h-.05c-.24.19-.54.11-.68-.11-.14-.19-.08-.46.05-.62,9.13-9.97,19.35-24.81,24.7-44.75,2.76-9.92,3.97-21.08,3.35-32.81-.62-11.73-3.27-24.11-8.62-36.05-5.32-11.92-13.3-23.4-23.81-32.97-10.49-9.57-23.48-17.24-38.05-21.62-29.05-8.59-64.37-3.51-90.72,17.3-6.68,4.86-12.35,10.84-17.7,16.92-4.95,6.4-9.57,13.03-12.94,20.21-7.05,14.21-10.67,29.67-11.03,44.73-.84,30.35,12.73,58.1,31.73,75.61,19.08,17.86,42.89,25.73,63.29,26.48,20.62.86,37.83-4.65,50.05-10.7.14-.05.27-.08.41,0,11.4,4.4,20.19,7.81,26.24,10.16,2.95,1.14,5.22,2.03,6.84,2.68,1.54.62,2.38.97,2.38.97,0,0-.73-.22-2.22-.76-1.62-.57-3.86-1.38-6.78-2.41-6.19-2.24-15.16-5.49-26.81-9.67h.41c-12.24,6.27-29.65,12.03-50.56,11.3-20.7-.62-45.02-8.46-64.53-26.59-9.7-8.97-18.08-20.38-23.89-33.56-5.81-13.16-9.11-28.11-8.7-43.51.3-15.38,4-31.16,11.19-45.67,3.46-7.35,8.16-14.11,13.21-20.65,5.46-6.22,11.24-12.32,18.05-17.3,6.65-5.35,14.13-9.32,21.65-12.94,7.73-3.13,15.59-5.86,23.7-7.13,16.11-2.86,32.46-1.84,47.35,2.51,14.89,4.49,28.16,12.38,38.83,22.16,10.7,9.81,18.81,21.54,24.16,33.7,5.4,12.19,8.05,24.81,8.59,36.73.57,11.94-.76,23.24-3.62,33.29-5.57,20.21-16.05,35.13-25.4,45.05l-.62-.76h.05c.22-.19.54-.11.68.11.03.05.05.14.08.19,1.73,11.67,3.05,20.67,3.97,26.89.41,2.92.73,5.16.97,6.78.22,1.51.27,2.22.27,2.22v-.03Z"/><path class="cls-8" d="m152.56,265.38c36.47-16.36,52.77-59.18,36.41-95.65-16.36-36.47-59.18-52.77-95.65-36.41-36.47,16.36-52.77,59.18-36.41,95.65,16.36,36.47,59.18,52.77,95.65,36.41Z"/><path class="cls-1" d="m165.04,242.46c23.29-23.29,23.29-61.06,0-84.35-23.29-23.29-61.06-23.29-84.35,0-23.29,23.29-23.29,61.06,0,84.35,23.29,23.29,61.06,23.29,84.35,0Z"/><path class="cls-8" d="m181.28,161.9l-10.4-12.62-106.2,87.55,10.4,12.62,106.2-87.55Z"/><path class="cls-5" d="m598.67,427.15s4.54,3.49,8-4.86c3.49-8.35,12.19-35.54,13.94-44.24,1.73-8.7,10.81-26.48,10.81-32.75s6.27-4.86,5.92,5.57c-.35,10.46-4.19,30.29-4.19,30.29,0,0,5.22,0,1.73,10.11-3.49,10.11-5.22,18.81-4.54,23.35.68,4.54,2.78,13.94-2.43,23.7-5.22,9.76-20.89,14.97-20.89,14.97,0,0-8-8.35-8.35-26.13Z"/><path class="cls-7" d="m620.32,408.64c-.16-.05.08-1.84.49-4.81.41-2.95,1.14-7.03,2.13-11.46.49-2.22,1.08-4.4,2.05-6.22.95-1.84,2.35-3.24,3.68-4.03,2.81-1.68,4.97-.84,4.84-.73,0,.24-1.97-.14-4.3,1.54-1.14.84-2.27,2.08-3.08,3.78-.84,1.7-1.35,3.73-1.84,5.95-2,8.81-3.43,16.08-3.97,15.97Z"/><path class="cls-6" d="m595.59,421.15l5.78-2,14.19,34.13-5.11,4-14.86-36.13Z"/><path class="cls-3" d="m595.89,416.72c-2.51,0-91.64,43.56-91.64,43.56l-65.62-25.94-45.89-40.05,10.35,103.34s79.45,31.08,100.72,26.08c21.27-5,109.56-64.43,109.56-64.43l-17.51-42.54.03-.03Z"/><path class="cls-13" d="m505.2,487.9c-.38,0-.86-5.13-1.05-11.51-.19-6.38-.05-11.54.35-11.57.38,0,.86,5.13,1.05,11.51.19,6.38.05,11.54-.35,11.57Z"/><path class="cls-13" d="m382.5,1098.73l-1.27,58.78s59.32,21.03,60.13,31.92l-114.04,1.62-1.76-91.64,56.97-.65-.03-.03Z"/><path class="cls-6" d="m345.91,1153.05c-2.19.62-3.68,3.13-3.13,5.35.54,2.22,3.08,3.76,5.3,3.16,2.22-.59,4.08-3.54,3.3-5.7-.78-2.13-3.86-3.78-5.86-2.68"/><path class="cls-3" d="m327.32,1191.02l.19-9.24,109.26,1.92s5.11,2.13,4.59,5.73l-114.04,1.62v-.03Z"/><path class="cls-1" d="m383.07,1156.89c0,.57-2.78.84-5.51,2.68-2.76,1.76-4.13,4.19-4.65,3.97-.51-.11.27-3.43,3.59-5.59,3.3-2.19,6.68-1.57,6.57-1.05Z"/><path class="cls-1" d="m395.1,1161.67c.14.54-2.27,1.51-4.13,3.89-1.92,2.32-2.38,4.89-2.92,4.86-.51.11-.95-3.16,1.41-6.08,2.35-2.95,5.62-3.22,5.62-2.68h.03Z"/><path class="cls-1" d="m402.1,1175.89c-.51.14-1.32-2.65.08-5.7,1.38-3.08,3.97-4.32,4.22-3.86.32.46-1.35,2.11-2.43,4.65-1.16,2.51-1.3,4.86-1.84,4.92h-.03Z"/><path class="cls-1" d="m381.88,1143.46c-.22.51-2.78-.22-5.95.03-3.16.19-5.59,1.3-5.89.81-.32-.41,2.03-2.49,5.73-2.76,3.7-.27,6.35,1.46,6.08,1.89l.03.03Z"/><path class="cls-13" d="m266.57,1103.62l-7.03,58.37s56.97,26.75,56.7,37.67l-113.64-9.57,7.22-91.4,56.75,4.95v-.03Z"/><path class="cls-6" d="m224.79,1154.11c-2.24.41-3.97,2.76-3.65,5.03.32,2.27,2.7,4.05,4.95,3.68,2.24-.38,4.4-3.13,3.84-5.35-.57-2.22-3.46-4.16-5.57-3.24"/><path class="cls-3" d="m202.58,1190.08l1.08-9.19,108.56,12.62s4.86,2.62,4,6.13l-113.64-9.57Z"/><path class="cls-1" d="m261.41,1161.56c-.05.54-2.86.57-5.73,2.13-2.92,1.49-4.54,3.76-5.03,3.51-.51-.16.59-3.41,4.13-5.22,3.51-1.86,6.81-.92,6.65-.41l-.03-.03Z"/><path class="cls-1" d="m272.92,1167.51c.08.54-2.41,1.3-4.49,3.49-2.13,2.13-2.84,4.62-3.38,4.54-.54.05-.65-3.24,2-5.92,2.62-2.7,5.89-2.65,5.86-2.11Z"/><path class="cls-1" d="m278.49,1182.35c-.51.08-1.05-2.76.62-5.68,1.65-2.95,4.38-3.92,4.57-3.43.27.49-1.54,1.97-2.89,4.38-1.41,2.38-1.76,4.7-2.32,4.73h.03Z"/><path class="cls-1" d="m261.54,1148.08c-.27.49-2.76-.49-5.92-.54-3.16-.11-5.68.73-5.95.24-.3-.43,2.27-2.27,5.97-2.16,3.7.08,6.16,2.08,5.86,2.49l.03-.03Z"/><path class="cls-13" d="m213.93,736.34l-7.95,182.93s-7.4,51.91-7.86,94.26c-.54,49.75,1.46,141.45,1.46,141.45l67.48-.95s12.76-111.83,21.92-161.44c9.4-50.91,12-43.75,18.65-95.88,6.35-49.7,28.38-212.66,28.38-212.66l-122.07,52.29Z"/><path class="cls-13" d="m282.27,651.8l120.85-6.05s5.68,104.04,3.7,158.82c-1.62,44.94-7.76,133.72-7.76,156.74s-11.4,195.09-11.4,195.09h-65.72s-4.35-110.75-7.43-159.12c-3.08-48.37,4.59-49.13.76-91.37-3.84-42.24-5.38-76.78-7.67-81.37-2.3-4.59-25.32-172.74-25.32-172.74Z"/><path class="cls-6" d="m257.68,378.5l3.43-6.81,65.89,7.51,9,8.4s37.08,126.99,35.73,129.2c-1.32,2.22,2.54,162.23,2.54,162.23-23.51,21.02-49.4,16.21-75.91,5l-14.54-224.49-26.13-65.26v-15.78Z"/><path class="cls-8" d="m315,433.07l10,78.86,22.51,55.78s16.89-57.05,17.19-58.59c.3-1.54-38.78-78.64-38.78-78.64l-10.89,2.62-.03-.03Z"/><path class="cls-3" d="m259.08,375.75l-9.73,15.3-64.35,31.59,47.32,176.2s-36.48,144.18-30.65,150.01c5.84,5.84,109.8,36.89,126.47,22.7,16.67-14.19,22.16-133.96,23-150.66.84-16.67-3.43-62.02-3.43-62.02l-88.64-183.14v.03Z"/><path class="cls-8" d="m348.02,671.02l7.35,7.95,3.59-7.95-7.76-43.73-3.19,43.73Z"/><path class="cls-3" d="m332.27,384.13l16.97,8.78,43.48,1.38s8.59,71.61,10.35,90.8c1.78,19.19,0,85.67,0,85.67l22.08,153.39s-34.19,43.89-43.37,40.54c-9.19-3.32-35.78-168.5-35.78-168.5l2.62-51.37s2.27-14.62.62-54.67c-1.68-40.05-17-106.04-17-106.04l.03.03Z"/><path class="cls-13" d="m399.07,413.23s.16.54.32,1.57c.16,1.19.38,2.7.62,4.57.43,3.97.92,9.73,1.32,16.86.78,14.24,1.27,33.94,1.51,55.72.11,21.67.19,41.29.27,55.72.03,7,.05,12.7.05,16.89v4.59c0,1.05-.05,1.59-.08,1.59-.05,0-.11-.54-.19-1.59-.08-1.19-.16-2.73-.27-4.59-.19-3.97-.38-9.76-.51-16.89-.3-14.27-.46-33.97-.68-55.72-.24-21.75-.57-41.46-1.11-55.67-.27-7.11-.62-12.86-.86-16.84-.16-1.86-.27-3.38-.38-4.57-.08-1.05-.08-1.59-.03-1.62v-.03Z"/><path class="cls-13" d="m349.26,615.83s-.14-.46-.22-1.32c-.11-1.05-.22-2.32-.35-3.86-.22-3.35-.41-8.22-.51-14.21-.22-12-.08-28.59.19-46.89.27-18.3.54-34.86.59-46.86,0-6-.03-10.84-.05-14.19-.03-1.54-.08-2.81-.08-3.86,0-.89,0-1.35.05-1.35s.14.46.22,1.32c.11,1.05.22,2.32.35,3.86.22,3.35.41,8.22.51,14.21.22,12,.08,28.59-.19,46.89-.27,18.3-.54,34.86-.59,46.86,0,6,.03,10.84.05,14.19.03,1.54.08,2.81.08,3.86,0,.89,0,1.35-.05,1.35Z"/><path class="cls-13" d="m220.87,522.52s-.08-1.46,0-4.05c.08-1.3.08-2.89.03-4.76,0-1.84,0-3.95-.22-6.27-.19-4.65-.92-10.16-1.86-16.24-1.11-6.05-2.62-12.65-4.65-19.46-2.08-6.78-4.49-13.13-6.86-18.81-2.49-5.62-4.86-10.65-7.16-14.7-1.08-2.08-2.16-3.89-3.11-5.49-.92-1.62-1.76-2.97-2.46-4.05-1.38-2.22-2.13-3.46-2.05-3.51s.97,1.08,2.51,3.22c.78,1.05,1.68,2.38,2.68,3.95,1,1.57,2.16,3.35,3.3,5.4,2.41,4.03,4.89,9.05,7.46,14.67,2.46,5.7,4.92,12.08,7.03,18.92,2.05,6.86,3.54,13.54,4.59,19.65.89,6.13,1.54,11.7,1.59,16.4.14,2.35.05,4.46,0,6.32,0,1.86-.11,3.46-.27,4.76-.27,2.62-.46,4.05-.54,4.03v.03Z"/><path class="cls-8" d="m307.57,424.42c.68.65,7.43,8.62,7.43,8.62l10.54-1.22,2.65-10.62-7.27-7.67-7.38.68-5.97,10.19v.03Z"/><path class="cls-13" d="m338.18,399.39s-.03.62-.3,1.76c-.27,1.11-.68,2.76-1.32,4.81-1.24,4.13-3.68,9.84-6.95,16.48l-.38.76-.59-.62c-3.81-3.97-8.13-8.46-12.73-13.24l1.11-.16c-1.49,3.03-3.27,6.03-5.08,9.08-1.97,3.32-3.92,6.57-5.51,9.76l-.32.65-.62-.32c-10.67-5.7-19.16-12.08-24.84-17.03-2.84-2.46-5.03-4.54-6.46-6.03s-2.19-2.32-2.13-2.38c.05-.05.92.68,2.46,2.05,1.54,1.38,3.81,3.35,6.7,5.7,5.78,4.73,14.32,10.89,24.89,16.48l-.95.3c1.62-3.3,3.57-6.54,5.54-9.86,1.81-3.05,3.57-6.03,5.05-8.97l.43-.89.68.73c4.54,4.84,8.81,9.38,12.59,13.38l-.97.14c3.38-6.59,5.95-12.13,7.38-16.19,1.46-4.03,2.11-6.38,2.24-6.35l.08-.03Z"/><path class="cls-13" d="m220.52,668.75s.41-.14,1.24-.3c1-.19,2.24-.41,3.78-.7,3.49-.59,8.3-1.43,14.24-2.43,12.4-2.03,29.48-4.78,49.05-7.97l.86-.14-.05.86c-.46,6.35-.95,13.05-2.89,19.81-.57,1.49-.95,3.08-2.54,4.3-1.54.78-3,1.14-4.49,1.51-2.95.7-5.86,1.19-8.76,1.65-5.76.89-11.32,1.54-16.65,2.08-10.62,1.03-20.24,1.68-28.35,1.54-2.03-.11-3.97-.05-5.84-.76-1.95-.89-2.57-2.95-2.76-4.51-.3-3.3.35-6.05.86-8.27.57-2.19,1.11-3.86,1.54-4.97.41-1.11.7-1.7.73-1.68s-.14.59-.46,1.76c-.32,1.14-.81,2.81-1.27,5.03-.43,2.19-.97,4.95-.62,8.03.22,1.49.81,3.19,2.32,3.81,1.51.57,3.54.51,5.51.59,8.03,0,17.62-.76,28.19-1.84,5.3-.57,10.84-1.24,16.57-2.13,2.86-.46,5.76-.95,8.65-1.65,1.41-.35,2.92-.76,4.08-1.35.86-.62,1.46-2.16,1.92-3.51,1.84-6.46,2.41-13.19,2.86-19.46l.78.7c-19.46,2.95-36.48,5.51-48.81,7.38-6,.86-10.86,1.54-14.4,2.05-1.59.22-2.89.38-3.92.51-.89.11-1.38.14-1.41.11v-.05Z"/><path class="cls-13" d="m388.48,653.42s2.27-1.3,6.3-3.16c4.03-1.89,9.81-4.51,16.65-7.57l.81-.35.08.89c.57,5.49,1.19,11.62,1.84,18.05.08.84.16,1.68.24,2.46l.05.43-.35.22c-4.81,3.22-9.59,5.86-14.24,7.7-1.19.43-2.27.86-3.51,1.11-1.3.35-2.7-.11-3.65-.86-1.81-1.68-2.38-3.78-2.92-5.57-.89-3.65-1.05-6.65-1.16-8.7-.03-.89-.08-1.65-.11-2.35,0-.54-.05-.78,0-.81.14-.05.41,1.11.65,3.13.27,2.03.59,5,1.57,8.51.54,1.68,1.24,3.68,2.7,4.95.76.51,1.68.84,2.7.57,1.03-.22,2.19-.7,3.3-1.11,4.49-1.86,9.22-4.51,13.92-7.67l-.3.65c-.08-.78-.16-1.62-.24-2.46-.62-6.46-1.19-12.57-1.73-18.08l.89.51c-6.89,2.95-12.7,5.4-16.84,7.08-4.13,1.68-6.54,2.59-6.62,2.46l-.03-.03Z"/><path class="cls-13" d="m359.51,580.54c0,3.57-1.86,6.46-4.13,6.46s-4.13-2.89-4.13-6.46,1.86-6.46,4.13-6.46,4.13,2.89,4.13,6.46Z"/><path class="cls-13" d="m253.79,300.05c-2.27.22-4.62-.03-6.68-1.03-2.05-.97-3.78-2.76-4.46-4.92-.68-2.19-.16-4.76,1.51-6.32-3.38-.57-5.89-4.22-5.24-7.57.65-3.35,4.32-5.81,7.67-5.08,0-3.97,1.16-7.92,3.32-11.27l17.51,9.68-13.65,26.54v-.03Z"/><path class="cls-13" d="m346.83,276.41c6.08.86,12.51-3,14.62-8.78.62-1.73.89-3.68.32-5.43-.59-1.76-2.19-3.24-4.03-3.32,2.46-1.7,4.32-4.35,4.78-7.3.46-2.95-.59-6.19-2.95-8.05-2.32-1.89-5.89-2.19-8.38-.51.05-3.24-1.92-6.4-4.84-7.78l-13.19,3.03,13.62,38.16h.03Z"/><path class="cls-5" d="m327.02,380.26v-4.78s27.56-4.51,27.67-32.11c.05-13.32-2.05-40.78-4.27-65.62-2.38-26.7-24.84-47.08-51.64-46.86h-2.68c-28.7,1.92-43.1,27.38-40.4,55.99l5,85.75,55.26,35.67,11.03-28.05h.03Z"/><path class="cls-7" d="m327.02,375.48s-17.38,1.59-36.05-7.35c0,0,8.54,14.84,36.05,12.13v-4.78Z"/><path class="cls-13" d="m342.13,302.75c.08,2.08-1.59,3.86-3.76,4-2.16.14-4-1.43-4.08-3.51-.08-2.08,1.59-3.86,3.76-4,2.16-.14,4,1.43,4.11,3.51h-.03Z"/><path class="cls-13" d="m344.62,291.3c-.49.51-3.49-1.68-7.73-1.62-4.24,0-7.32,2.19-7.78,1.68-.22-.22.27-1.16,1.62-2.16,1.32-1,3.59-1.97,6.24-1.97s4.86.95,6.16,1.95c1.32,1,1.76,1.92,1.51,2.16l-.03-.03Z"/><path class="cls-13" d="m303.92,305c.08,2.08-1.59,3.86-3.76,4-2.16.14-4-1.43-4.08-3.51-.08-2.08,1.59-3.86,3.76-4,2.16-.14,4,1.43,4.08,3.51Z"/><path class="cls-13" d="m302.94,292.43c-.49.51-2.65-2.03-6.89-1.97-4.24,0-8.19,2.54-8.65,2.03-.22-.22.27-1.16,1.62-2.16,1.32-1,3.59-1.97,6.24-1.97s4.86.95,6.16,1.95c1.3,1,1.76,1.92,1.51,2.13Z"/><path class="cls-13" d="m318.59,323.75c0-.24,2.62-.73,6.86-1.3,1.08-.11,2.11-.35,2.27-1.08.24-.78-.22-1.95-.76-3.22-1.03-2.62-2.13-5.35-3.27-8.22-4.54-11.7-7.84-21.32-7.38-21.51.49-.19,4.54,9.16,9.08,20.86,1.08,2.89,2.13,5.65,3.13,8.27.41,1.22,1.14,2.62.59,4.24-.3.81-1.08,1.41-1.76,1.59-.7.22-1.3.24-1.84.27-4.3.27-6.97.3-6.97.05l.03.03Z"/><path class="cls-13" d="m304.46,287.89c-.68,1.03-4.65-.54-9.62-1.19-4.95-.73-9.22-.3-9.59-1.46-.16-.54.78-1.43,2.62-2.11s4.57-1.08,7.57-.68c2.97.41,5.51,1.54,7.08,2.7,1.59,1.16,2.27,2.27,1.95,2.76v-.03Z"/><path class="cls-13" d="m341.51,276.43c-.24,1.24-3.57,1.97-7,3.86-3.49,1.78-5.95,4.11-7.11,3.62-.54-.27-.54-1.35.24-2.86.78-1.49,2.49-3.32,4.86-4.57s4.84-1.65,6.49-1.46c1.68.19,2.57.81,2.49,1.41h.03Z"/><path class="cls-13" d="m347.67,265.11s-7.4-17.21-15.78-21.19c-10.13-4.81-14.38,6.3-24.02,3.7-9.65-2.62-19.3-7.22-29.08.3-10.7,8.22-5.59,13.89-6.16,26.13-2.3,49.67-11.24,63.78-14.03,40.4-.3-2.57-7.43-4.54-8.57-15.35-1.49-14.03-2.16-31.05.89-41.05,2.57-8.4,7.32-14.24,15.84-20.73,13.46-10.22,32.08-10.57,44.73-9.4,12.65,1.16,37.13,15.51,36.16,37.16l.03.03Z"/><path class="cls-5" d="m260.38,313.7c-.22-4.27-3.89-7.59-8.13-7.16-5.13.54-10.84,3.49-10.43,14.13.76,18.86,19.54,14.21,19.54,13.67,0-.38-.59-12.76-.97-20.65Z"/><path class="cls-7" d="m256.98,327.43s-.32.24-.86.51c-.54.27-1.46.49-2.46.14-2.03-.65-3.84-3.76-4.05-7.13-.11-1.7.19-3.35.73-4.73.51-1.41,1.38-2.41,2.38-2.62,1-.27,1.73.3,1.97.81.27.51.16.89.27.92.05.05.38-.32.22-1.11-.08-.38-.32-.81-.78-1.16-.46-.35-1.14-.51-1.84-.41-1.46.16-2.7,1.54-3.32,3.05-.68,1.51-1.05,3.38-.92,5.3.27,3.78,2.35,7.27,5.11,7.95,1.35.3,2.43-.16,2.97-.62.57-.49.65-.92.59-.95v.05Z"/><path class="cls-13" d="m356.1,228.65c-1.73-4.76-6.32-8.11-11.27-9.3-4.92-1.22-10.13-.51-15.03.84.24-6.86-7.43-11.81-14.3-11.35-6.84.49-12.81,4.65-18.35,8.7-8.51-4.84-20.81-.62-24.57,8.4-5.05-2.57-11.49-2.22-16.24.89-4.76,3.11-7.65,8.86-7.32,14.51-4.43,1.03-8.16,4.62-9.35,9-1.19,4.38.24,9.38,3.57,12.49-3.08,2.11-4.57,6.32-3.49,9.89s4.65,6.27,8.38,6.32l13.21-12.62c7.51,1.05,15.19-5.49,15.32-13.08,5.78,2,12.73.16,16.73-4.49,1.38,3.46,4.57,6.16,8.22,6.95,3.65.78,7.65-.38,10.35-2.97.65,5.05,4.46,9.57,9.3,11.08,4.86,1.51,10.54-.03,13.94-3.81,4.86,3.76,12.62,3.03,16.7-1.57,4.08-4.59,3.89-12.38-.43-16.76,4.54-2.27,6.35-8.35,4.62-13.11v-.03Z"/><path class="cls-3" d="m275.84,256.54s.05.59-.3,1.57-1.08,2.35-2.51,3.65c-1.41,1.27-3.62,2.43-6.27,2.43s-5.59-1.08-7.67-3.51l1.08-.08c-.89,1.41-2.11,2.65-3.57,3.57-3.13,1.97-6.95,2.41-10.03,1.41-3.11-1-5.19-3.27-6.35-5.3-1.19-2.08-1.46-4.05-1.49-5.35,0-1.32.24-2.03.32-2,.27-.05-.38,3.03,2,6.86,1.16,1.84,3.13,3.78,5.89,4.59,2.7.84,6.11.43,8.92-1.35,1.3-.84,2.38-1.92,3.16-3.13l.51-.78.59.7c1.73,2.08,4.35,3.13,6.65,3.19,2.32.08,4.32-.84,5.7-1.92,2.78-2.27,3.16-4.68,3.38-4.54h-.03Z"/><path class="cls-13" d="m320.27,335.89c-.05.38-3.13.19-6.86-.19-3.73-.38-6.78-.78-6.76-1.16,0-.38,3.11-.62,6.89-.24,3.78.38,6.78,1.19,6.73,1.57v.03Z"/><path class="cls-5" d="m213.36,753.12s4.89,6.24,6.27,10.19c1.38,3.95,2.13,20.16,2.13,20.16,0,0-3.35,2.08-7-7.08-3.65-9.13-4.4-13.54-4.4-13.54l3-9.76v.03Z"/><path class="cls-3" d="m159.85,839.62s-1.57-60.24,11.43-68.72c13-8.49,31.7-15.4,38.16-7.24,6.46,8.16,13.73,20.84,17.76,34.75,4.03,13.92,5.76,35.78,5.76,35.78l-16.08.38s-7.22-59.26-13.21-67.37-29.43,2.24-30.7,13.13c-1.24,10.89-.7,58.97-.7,58.97l-12.4.32Z"/><path class="cls-3" d="m115.99,930.78c-2.57-24.59-7.54-78.88-9.7-102.77-.59-6.51,4.08-12.32,10.57-13.16l145.72-18.81c6.51-.84,12.51,3.62,13.57,10.11l16.46,100.18c1.11,6.76-3.57,13.08-10.32,14.03l-152.5,21.24c-6.81.95-13.05-3.95-13.78-10.78v-.03Z"/><path class="cls-5" d="m212.9,785.03l1.49-29.67-12.54-30.27-35.4,9.27-1.43,32.97s4.92,15.57,7.38,18.57c2.46,2.97,7.62.97,7.62.97,2.62,4.38,10.19,3,10.19,3,3.59,4.49,9.43.51,9.43.51,0,0,4.92,4.76,7.24,4.51.81-.08,1.68-.68,2.49-1.49,2.22-2.22,3.43-5.24,3.59-8.38h-.05Z"/><path class="cls-7" d="m177.39,779.09c.35-.11,1.16,1.51,1.81,3.59.65,2.08.89,3.86.54,3.97-.35.11-1.16-1.51-1.81-3.59-.65-2.08-.89-3.86-.54-3.97Z"/><path class="cls-7" d="m186.82,778.9c.38-.03.92,2.51,1.73,5.57.81,3.08,1.59,5.54,1.24,5.7-.32.16-1.68-2.16-2.51-5.35-.84-3.19-.81-5.86-.46-5.89v-.03Z"/><path class="cls-7" d="m197.52,780.17c.38,0,.59,2.27,1.05,5.03.43,2.76.92,4.97.57,5.11-.32.14-1.41-2-1.86-4.89-.46-2.86-.11-5.24.24-5.22v-.03Z"/><path class="cls-7" d="m213.68,764.68c.35,0,.46,5.08.19,11.3-.24,6.22-.76,11.24-1.11,11.24s-.46-5.08-.19-11.3c.24-6.22.76-11.24,1.11-11.22v-.03Z"/><path class="cls-7" d="m177.04,773.12c.11.14-.14.57-.81.92-.65.38-1.73.65-2.89.35-1.16-.27-2-1-2.41-1.62-.41-.62-.46-1.11-.3-1.19.32-.16,1.3,1.13,3,1.54,1.7.43,3.16-.32,3.38,0h.03Z"/><path class="cls-7" d="m187.96,775.2c.08.14-.24.54-.97.89-.73.32-1.89.51-3.08.24-1.22-.27-2.16-.95-2.68-1.57-.51-.62-.62-1.14-.49-1.22.3-.22,1.49,1.08,3.46,1.49,1.97.49,3.59-.16,3.76.16Z"/><path class="cls-7" d="m208.98,773.6c.14-.16.81.84-.05,2.08-.89,1.11-2.54,1.86-4.49,2-1.95.14-3.68-.51-4.7-1.22-1.05-.7-1.43-1.41-1.32-1.51.22-.27,2.54,1.68,5.95,1.43,1.62-.08,3.16-.68,3.86-1.32.73-.65.59-1.41.76-1.46Z"/><path class="cls-13" d="m281.65,905.1s-.11-.27-.24-.84c-.14-.65-.32-1.49-.54-2.51-.46-2.32-1.11-5.59-1.95-9.73-1.65-8.59-4-20.81-6.89-35.86-1.43-7.59-3-15.89-4.68-24.78-.84-4.46-1.7-9.05-2.59-13.81-.22-1.19-.46-2.38-.68-3.59l-.35-1.78c-.11-.49-.35-.95-.7-1.32-.68-.78-1.73-1.19-2.76-1.05-1.24.16-2.51.32-3.76.49-20.24,2.65-42.46,5.54-65.78,8.57-23.35,3-45.56,5.86-65.8,8.46-1.27.22-2.62.16-3.43.68-.89.51-1.51,1.49-1.57,2.49.08,2.27.32,4.86.49,7.24.35,4.81.68,9.49,1,14.03.62,9.03,1.22,17.46,1.76,25.16,1.03,15.3,1.86,27.73,2.46,36.46.24,4.22.46,7.54.59,9.92.05,1.05.08,1.92.11,2.59v.89s-.08-.3-.14-.86c-.08-.68-.16-1.51-.27-2.57-.22-2.38-.51-5.68-.86-9.89-.7-8.7-1.7-21.11-2.95-36.4-.59-7.7-1.24-16.11-1.95-25.16-.35-4.51-.7-9.19-1.08-14.03-.16-2.46-.41-4.76-.51-7.43.08-1.49.95-2.86,2.24-3.62.62-.38,1.46-.57,2.05-.62l1.89-.24c20.24-2.65,42.46-5.54,65.8-8.57,23.32-3,45.56-5.86,65.8-8.46,1.27-.16,2.51-.32,3.78-.49,1.49-.19,3.03.41,3.97,1.54.49.54.84,1.22,1,1.92l.35,1.84c.22,1.22.43,2.41.65,3.59.86,4.76,1.7,9.35,2.51,13.84,1.62,8.92,3.13,17.21,4.51,24.81,2.7,15.11,4.89,27.35,6.4,35.97.7,4.16,1.27,7.46,1.68,9.78.16,1.05.3,1.89.41,2.54.08.57.11.86.08.89l-.08-.05Z"/><path class="cls-13" d="m211.84,831.69l-34.55,4.25c-.77.09-1.32.8-1.22,1.57l.82,6.65c.09.77.8,1.32,1.57,1.22l34.55-4.25c.77-.09,1.32-.8,1.22-1.57l-.82-6.65c-.09-.77-.8-1.32-1.57-1.22Z"/><path class="cls-3" d="m185.01,422.64s-10.84,10.35-11.67,28.13c-.84,17.76-26.7,144.58-25.02,170.44,1.68,25.86,10.84,115.12,10.84,115.12l56.72-8.73-8.95-108.04,1.43-13.38c5-30.86,12.51-67.59,12.51-67.59l-35.86-115.96Z"/><path class="cls-6" d="m207.87,728.85l-43.67,6.73.08.76.7,6.95,44.37-6.95-1.49-7.49Z"/><path class="cls-13" d="m220.87,538.62s-.03.54-.19,1.54c-.19,1.11-.46,2.59-.78,4.46-.73,4.03-1.78,9.67-3.08,16.73-1.3,7.19-2.84,15.81-4.59,25.59-.84,4.92-1.7,10.11-2.62,15.54-.22,1.35-.46,2.73-.65,4.13-.14,1.41-.3,2.84-.43,4.27-.3,2.86-.59,5.78-.92,8.78v-.14c1.08,12.89,2.27,26.97,3.49,41.64,1.97,24.48,3.84,47.29,5.38,66.4l.05.57-.54.08c-17.03,2.51-31.19,4.59-41.21,6.08-4.86.68-8.73,1.22-11.51,1.59-1.24.16-2.24.27-3.03.38-.68.08-1.05.11-1.05.08s.35-.11,1.03-.24c.78-.14,1.78-.32,3-.54,2.76-.46,6.62-1.11,11.46-1.92,10.03-1.59,24.16-3.86,41.13-6.57l-.51.62c-1.62-19.11-3.54-41.91-5.59-66.37-1.19-14.7-2.35-28.78-3.41-41.67v-.11c.32-2.97.65-5.92.95-8.78.16-1.43.32-2.86.46-4.27.19-1.41.46-2.78.68-4.16.97-5.46,1.86-10.65,2.73-15.57,1.78-9.81,3.46-18.4,4.89-25.54,1.46-7.03,2.62-12.65,3.46-16.65.41-1.84.76-3.3,1-4.43.24-1,.38-1.51.43-1.51v-.03Z"/><path class="cls-3" d="m334.24,775.47s-.3,1.43-1.05,3.89c-.84,2.73-1.92,6.24-3.24,10.49-2.73,8.86-6.32,21.16-9.84,34.83-3.51,13.7-6.27,26.21-8.13,35.29-.89,4.35-1.65,7.97-2.22,10.76-.51,2.54-.86,3.95-.95,3.92-.11,0,.05-1.43.41-4.03.35-2.57.95-6.27,1.78-10.86,1.62-9.13,4.24-21.73,7.76-35.46,3.51-13.73,7.3-26,10.27-34.81,1.49-4.4,2.73-7.95,3.68-10.38.92-2.43,1.49-3.76,1.57-3.73l-.03.08Z"/></g></svg>