<?xml version="1.0" encoding="UTF-8"?><svg id="OBJECTS" xmlns="http://www.w3.org/2000/svg" xmlns:xlink="http://www.w3.org/1999/xlink" viewBox="0 0 1856.36 1028.57"><defs><style>.cls-1{fill:url(#linear-gradient-75);}.cls-2{fill:url(#linear-gradient);}.cls-2,.cls-3,.cls-4,.cls-5{isolation:isolate;opacity:.4;}.cls-6{fill:url(#linear-gradient-51);}.cls-7{fill:#fff;}.cls-8{fill:url(#linear-gradient-17);}.cls-9{fill:url(#linear-gradient-87);}.cls-10{fill:url(#linear-gradient-93);}.cls-11{fill:url(#linear-gradient-92);}.cls-12{fill:url(#linear-gradient-80);}.cls-13{fill:url(#linear-gradient-109);}.cls-14{fill:url(#linear-gradient-43);}.cls-15{fill:url(#linear-gradient-15);}.cls-16{fill:url(#linear-gradient-58);}.cls-17{fill:url(#linear-gradient-69);}.cls-18{fill:url(#linear-gradient-81);}.cls-19{stroke:#c47268;stroke-width:.69px;}.cls-19,.cls-20,.cls-21,.cls-22,.cls-23,.cls-24,.cls-25,.cls-26,.cls-27,.cls-28{fill:none;}.cls-19,.cls-21,.cls-23,.cls-25,.cls-26,.cls-28{stroke-linecap:round;stroke-linejoin:round;}.cls-29{fill:url(#linear-gradient-18);}.cls-30{fill:url(#linear-gradient-56);}.cls-31{fill:url(#linear-gradient-40);}.cls-32{fill:url(#linear-gradient-52);}.cls-33{fill:url(#linear-gradient-28);}.cls-34{fill:url(#linear-gradient-14);}.cls-35{fill:url(#linear-gradient-36);}.cls-36{fill:url(#linear-gradient-78);}.cls-37{fill:url(#linear-gradient-20);}.cls-38{fill:url(#linear-gradient-6);}.cls-39{fill:url(#linear-gradient-53);}.cls-40{fill:url(#linear-gradient-91);}.cls-41{fill:url(#linear-gradient-60);}.cls-42{fill:url(#linear-gradient-108);}.cls-43{fill:url(#linear-gradient-84);}.cls-44{fill:url(#linear-gradient-104);}.cls-45{fill:url(#linear-gradient-35);}.cls-46{fill:url(#linear-gradient-48);}.cls-47{fill:url(#linear-gradient-32);}.cls-3{fill:url(#linear-gradient-4);}.cls-20{stroke:#fff;stroke-width:1.94px;}.cls-20,.cls-22,.cls-27{stroke-miterlimit:10;}.cls-48{fill:url(#linear-gradient-97);}.cls-49{fill:url(#linear-gradient-11);}.cls-50{fill:url(#linear-gradient-50);}.cls-51{fill:url(#linear-gradient-106);}.cls-52{fill:url(#linear-gradient-111);}.cls-53{fill:url(#linear-gradient-63);}.cls-54{fill:url(#linear-gradient-67);}.cls-55{fill:url(#linear-gradient-95);}.cls-56{fill:url(#linear-gradient-86);}.cls-21,.cls-25,.cls-28{stroke:#000;}.cls-57{fill:url(#linear-gradient-39);}.cls-58{fill:url(#linear-gradient-110);}.cls-22{stroke-width:.77px;}.cls-22,.cls-27{stroke:#111113;}.cls-59{fill:url(#linear-gradient-10);}.cls-60{fill:url(#linear-gradient-59);}.cls-61{fill:url(#linear-gradient-49);}.cls-62{fill:url(#linear-gradient-37);}.cls-63{fill:url(#linear-gradient-82);}.cls-64{fill:url(#linear-gradient-16);}.cls-65{fill:url(#linear-gradient-31);}.cls-66{fill:url(#linear-gradient-85);}.cls-67{fill:url(#linear-gradient-112);}.cls-68{fill:url(#linear-gradient-61);}.cls-69{fill:url(#linear-gradient-68);}.cls-70{fill:url(#linear-gradient-103);}.cls-71{fill:url(#linear-gradient-62);}.cls-72{fill:url(#linear-gradient-107);}.cls-73{fill:url(#linear-gradient-41);}.cls-74{fill:url(#linear-gradient-76);}.cls-75{fill:url(#linear-gradient-98);}.cls-23{stroke:#a8523f;}.cls-23,.cls-27{stroke-width:.75px;}.cls-76{fill:url(#linear-gradient-21);}.cls-77{fill:url(#linear-gradient-72);}.cls-78{fill:url(#linear-gradient-25);}.cls-79{fill:url(#linear-gradient-89);}.cls-80{fill:url(#linear-gradient-5);}.cls-81{fill:url(#linear-gradient-64);}.cls-82{fill:url(#linear-gradient-102);}.cls-83{fill:url(#linear-gradient-83);}.cls-84{fill:url(#linear-gradient-54);}.cls-85{fill:url(#linear-gradient-45);}.cls-86{fill:url(#linear-gradient-113);}.cls-87{fill:url(#linear-gradient-55);}.cls-88{clip-path:url(#clippath);}.cls-89{fill:#dc5368;}.cls-90{fill:url(#linear-gradient-34);}.cls-91{fill:url(#linear-gradient-65);}.cls-92{fill:url(#linear-gradient-70);}.cls-93{fill:#1e0b02;}.cls-94{fill:url(#linear-gradient-79);}.cls-95{fill:url(#linear-gradient-88);}.cls-96{fill:url(#linear-gradient-7);}.cls-97{fill:url(#linear-gradient-66);}.cls-25{stroke-width:.52px;}.cls-98{fill:url(#linear-gradient-96);}.cls-99{fill:url(#linear-gradient-24);}.cls-100{fill:url(#linear-gradient-73);}.cls-101{fill:url(#linear-gradient-100);}.cls-102{fill:url(#linear-gradient-105);}.cls-103{fill:url(#linear-gradient-9);}.cls-104{fill:url(#linear-gradient-22);}.cls-105{fill:url(#linear-gradient-74);}.cls-106{fill:url(#linear-gradient-42);}.cls-107{mask:url(#mask-1);}.cls-108{mask:url(#mask);}.cls-109{fill:url(#linear-gradient-99);}.cls-110{fill:#ebaea3;}.cls-111{fill:url(#linear-gradient-27);}.cls-112{fill:url(#linear-gradient-33);}.cls-113{fill:url(#linear-gradient-38);}.cls-114{fill:url(#linear-gradient-94);}.cls-115{fill:url(#linear-gradient-29);}.cls-116{fill:url(#linear-gradient-30);}.cls-26{stroke:#d6967c;stroke-width:.9px;}.cls-117{fill:url(#linear-gradient-23);}.cls-118{fill:url(#linear-gradient-19);}.cls-119{fill:url(#linear-gradient-71);}.cls-120{fill:url(#linear-gradient-77);}.cls-121{fill:#e8b499;}.cls-122{fill:#666;}.cls-123{fill:url(#linear-gradient-8);}.cls-124{fill:url(#linear-gradient-90);}.cls-125{fill:url(#linear-gradient-44);}.cls-126{fill:url(#linear-gradient-57);}.cls-4{fill:url(#linear-gradient-3);}.cls-28{stroke-width:.95px;}.cls-127{fill:url(#linear-gradient-47);}.cls-128{fill:url(#linear-gradient-46);}.cls-5{fill:url(#linear-gradient-2);}.cls-129{fill:url(#linear-gradient-12);}.cls-130{fill:url(#linear-gradient-13);}.cls-131{fill:url(#linear-gradient-26);}.cls-132{fill:url(#linear-gradient-101);}</style><clipPath id="clippath"><rect class="cls-24" x=".01" width="1856.35" height="1028.57"/></clipPath><linearGradient id="linear-gradient" x1="1503.07" y1="936.62" x2="1778.61" y2="936.62" gradientTransform="translate(0 1101.76) scale(1 -1)" gradientUnits="userSpaceOnUse"><stop offset="0" stop-color="#aeb8ff"/><stop offset="1" stop-color="#d7daff"/></linearGradient><linearGradient id="linear-gradient-2" x1="260.47" y1="1004.49" x2="398.19" y2="1004.49" xlink:href="#linear-gradient"/><linearGradient id="linear-gradient-3" x1="22.22" y1="582.75" x2="129.56" y2="582.75" xlink:href="#linear-gradient"/><linearGradient id="linear-gradient-4" x1="0" y1="541.18" x2="1856.36" y2="541.18" xlink:href="#linear-gradient"/><linearGradient id="linear-gradient-5" x1="1081.28" y1="946.85" x2="1239.36" y2="946.85" gradientTransform="translate(0 1101.76) scale(1 -1)" gradientUnits="userSpaceOnUse"><stop offset="0" stop-color="#181915"/><stop offset="1" stop-color="#3a3a3a"/></linearGradient><linearGradient id="linear-gradient-6" x1="1287.04" y1="80.2" x2="1287.04" y2="122.42" xlink:href="#linear-gradient-5"/><linearGradient id="linear-gradient-7" x1="1265.78" y1="99.42" x2="1265.78" y2="239.69" gradientTransform="translate(0 1101.76) scale(1 -1)" gradientUnits="userSpaceOnUse"><stop offset="0" stop-color="#efbfab"/><stop offset=".99" stop-color="#e2a286"/></linearGradient><linearGradient id="linear-gradient-8" x1="1232.05" y1="160.95" x2="1269.24" y2="160.95" gradientTransform="translate(0 1101.76) scale(1 -1)" gradientUnits="userSpaceOnUse"><stop offset="0" stop-color="#e0a78f"/><stop offset="1" stop-color="#c67b67"/></linearGradient><linearGradient id="linear-gradient-9" x1="1022.78" y1="80.58" x2="1022.78" y2="122.42" xlink:href="#linear-gradient-5"/><linearGradient id="linear-gradient-10" x1="1044.16" y1="99.39" x2="1044.16" y2="1101.75" xlink:href="#linear-gradient-7"/><linearGradient id="linear-gradient-11" x1="1040.17" y1="162.62" x2="1078.22" y2="162.62" xlink:href="#linear-gradient-8"/><linearGradient id="linear-gradient-12" x1="1277.45" y1="151.11" x2="994.65" y2="640.94" gradientTransform="translate(0 1101.76) scale(1 -1)" gradientUnits="userSpaceOnUse"><stop offset="0" stop-color="#f68700"/><stop offset="1" stop-color="#f7b334"/></linearGradient><linearGradient id="linear-gradient-13" x1="915.95" y1="777.7" x2="1110.92" y2="777.7" gradientTransform="translate(0 1101.76) scale(1 -1)" gradientUnits="userSpaceOnUse"><stop offset="0" stop-color="#e2a286"/><stop offset="1" stop-color="#efbfab"/></linearGradient><linearGradient id="linear-gradient-14" x1="1191.63" y1="732.81" x2="1356.3" y2="732.81" xlink:href="#linear-gradient-13"/><linearGradient id="linear-gradient-15" x1="1162.67" y1="842.04" x2="1162.67" y2="910.49" xlink:href="#linear-gradient-13"/><linearGradient id="linear-gradient-16" x1="1094.33" y1="936.32" x2="1127.39" y2="936.32" xlink:href="#linear-gradient-13"/><linearGradient id="linear-gradient-17" x1="1141.52" y1="888.65" x2="1176.81" y2="888.65" xlink:href="#linear-gradient-8"/><linearGradient id="linear-gradient-18" x1="1147.7" y1="888.42" x2="1147.7" y2="1002.88" xlink:href="#linear-gradient-7"/><linearGradient id="linear-gradient-19" x1="1125.32" y1="928.19" x2="1132.44" y2="928.19" xlink:href="#linear-gradient-5"/><linearGradient id="linear-gradient-20" x1="1140.78" y1="953.98" x2="1161.59" y2="953.98" xlink:href="#linear-gradient-5"/><linearGradient id="linear-gradient-21" x1="1107.06" y1="954.86" x2="1122.54" y2="954.86" xlink:href="#linear-gradient-5"/><linearGradient id="linear-gradient-22" x1="1111.33" y1="941.42" x2="1118.9" y2="941.42" xlink:href="#linear-gradient-5"/><linearGradient id="linear-gradient-23" x1="1144.5" y1="940.73" x2="1152.09" y2="940.73" xlink:href="#linear-gradient-5"/><linearGradient id="linear-gradient-24" x1="1104.66" y1="974.99" x2="1200.45" y2="974.99" xlink:href="#linear-gradient-5"/><linearGradient id="linear-gradient-25" x1="1175.37" y1="933.23" x2="1208.65" y2="933.23" xlink:href="#linear-gradient-13"/><linearGradient id="linear-gradient-26" x1="1185.14" y1="933.45" x2="1198.76" y2="933.45" xlink:href="#linear-gradient-5"/><linearGradient id="linear-gradient-27" x1="1583.08" y1="682.72" x2="1697.67" y2="682.72" gradientTransform="translate(0 1101.76) scale(1 -1)" gradientUnits="userSpaceOnUse"><stop offset="0" stop-color="#c67b67"/><stop offset="1" stop-color="#e0a78f"/></linearGradient><linearGradient id="linear-gradient-28" x1="1420.7" y1="108.98" x2="1420.7" y2="215.16" xlink:href="#linear-gradient-27"/><linearGradient id="linear-gradient-29" x1="1314.63" y1="115.62" x2="1451.5" y2="115.62" gradientTransform="translate(0 1101.76) scale(1 -1)" gradientUnits="userSpaceOnUse"><stop offset="0" stop-color="#7627ec"/><stop offset="1" stop-color="#a46ff0"/></linearGradient><linearGradient id="linear-gradient-30" x1="1399.4" y1="156.74" x2="1439.6" y2="156.74" xlink:href="#linear-gradient-8"/><linearGradient id="linear-gradient-31" x1="1593.96" y1="108.81" x2="1593.96" y2="214.99" xlink:href="#linear-gradient-27"/><linearGradient id="linear-gradient-32" x1="1566.39" x2="1703.25" xlink:href="#linear-gradient-29"/><linearGradient id="linear-gradient-33" x1="1573.18" y1="171.86" x2="1614.68" y2="171.86" xlink:href="#linear-gradient-8"/><linearGradient id="linear-gradient-34" x1="1508.16" y1="161.35" x2="1508.16" y2="635.61" xlink:href="#linear-gradient-5"/><linearGradient id="linear-gradient-35" x1="1247.63" y1="847.18" x2="1418.25" y2="847.18" xlink:href="#linear-gradient-8"/><linearGradient id="linear-gradient-36" x1="1508.27" y1="613.12" x2="1508.27" y2="897.3" xlink:href="#linear-gradient-29"/><linearGradient id="linear-gradient-37" x1="1466.15" y1="911.59" x2="1561.48" y2="911.59" xlink:href="#linear-gradient-8"/><linearGradient id="linear-gradient-38" x1="1494.84" y1="933.59" x2="1536.9" y2="933.59" xlink:href="#linear-gradient-8"/><linearGradient id="linear-gradient-39" x1="1554.11" y1="989.63" x2="1585.68" y2="989.63" xlink:href="#linear-gradient-27"/><linearGradient id="linear-gradient-40" x1="1559.95" y1="990.53" x2="1576.04" y2="990.53" xlink:href="#linear-gradient-5"/><linearGradient id="linear-gradient-41" x1="1445.29" y1="989.63" x2="1476.85" y2="989.63" xlink:href="#linear-gradient-27"/><linearGradient id="linear-gradient-42" x1="1454.93" y1="990.55" x2="1470.99" y2="990.55" xlink:href="#linear-gradient-5"/><linearGradient id="linear-gradient-43" x1="1515.38" y1="934.02" x2="1515.38" y2="1067.59" xlink:href="#linear-gradient-8"/><linearGradient id="linear-gradient-44" x1="1510.96" y1="983.35" x2="1519.79" y2="983.35" xlink:href="#linear-gradient-5"/><linearGradient id="linear-gradient-45" x1="1477.71" y1="1019.18" x2="1507.31" y2="1019.18" xlink:href="#linear-gradient-5"/><linearGradient id="linear-gradient-46" x1="1523.15" y1="1019.18" x2="1552.76" y2="1019.18" xlink:href="#linear-gradient-5"/><linearGradient id="linear-gradient-47" x1="1528.18" y1="997.86" x2="1543.79" y2="997.86" xlink:href="#linear-gradient-5"/><linearGradient id="linear-gradient-48" x1="1484.7" y1="997.86" x2="1500.33" y2="997.86" xlink:href="#linear-gradient-5"/><linearGradient id="linear-gradient-49" x1="1457.35" y1="1043.02" x2="1583.22" y2="1043.02" gradientTransform="translate(0 1101.76) scale(1 -1)" gradientUnits="userSpaceOnUse"><stop offset="0" stop-color="#2d2e5a"/><stop offset="1" stop-color="#42457c"/></linearGradient><linearGradient id="linear-gradient-50" x1="328.33" y1="77.94" x2="328.33" y2="123.97" xlink:href="#linear-gradient-29"/><linearGradient id="linear-gradient-51" x1="316.25" y1="98.74" x2="316.25" y2="249.01" xlink:href="#linear-gradient-7"/><linearGradient id="linear-gradient-52" x1="208.09" y1="77.94" x2="208.09" y2="123.97" xlink:href="#linear-gradient-29"/><linearGradient id="linear-gradient-53" x1="220.2" y1="98.68" x2="220.2" y2="248.98" xlink:href="#linear-gradient-7"/><linearGradient id="linear-gradient-54" x1="261.52" y1="166.48" x2="261.52" y2="693.57" xlink:href="#linear-gradient-49"/><linearGradient id="linear-gradient-55" x1="258.43" y1="695.63" x2="258.43" y2="864.13" xlink:href="#linear-gradient-12"/><linearGradient id="linear-gradient-56" x1="367.59" y1="756.9" x2="515.03" y2="756.9" xlink:href="#linear-gradient-7"/><linearGradient id="linear-gradient-57" x1="255.88" y1="843.3" x2="255.88" y2="914.88" xlink:href="#linear-gradient-7"/><linearGradient id="linear-gradient-58" x1="9.26" y1="807.2" x2="142.73" y2="807.2" xlink:href="#linear-gradient-7"/><linearGradient id="linear-gradient-59" x1="257.87" y1="1017.6" x2="257.87" y2="1081.07" xlink:href="#linear-gradient-5"/><linearGradient id="linear-gradient-60" x1="296.22" y1="949.84" x2="320.13" y2="949.84" xlink:href="#linear-gradient-13"/><linearGradient id="linear-gradient-61" x1="288.6" y1="924.36" x2="312.83" y2="924.36" xlink:href="#linear-gradient-29"/><linearGradient id="linear-gradient-62" x1="195.66" y1="949.84" x2="219.57" y2="949.84" xlink:href="#linear-gradient-7"/><linearGradient id="linear-gradient-63" x1="202.96" y1="924.33" x2="227.57" y2="924.33" xlink:href="#linear-gradient-29"/><linearGradient id="linear-gradient-64" x1="257.59" y1="931.63" x2="257.59" y2="1036.31" xlink:href="#linear-gradient-5"/><linearGradient id="linear-gradient-65" x1="257.41" y1="907.1" x2="257.41" y2="1024.28" xlink:href="#linear-gradient-7"/><linearGradient id="linear-gradient-66" x1="277.65" y1="955.71" x2="277.65" y2="963.47" xlink:href="#linear-gradient-5"/><linearGradient id="linear-gradient-67" x1="238.85" y1="955.71" x2="238.85" y2="963.47" xlink:href="#linear-gradient-5"/><linearGradient id="linear-gradient-68" x1="237.4" y1="971.83" x2="237.4" y2="981.76" xlink:href="#linear-gradient-5"/><linearGradient id="linear-gradient-69" x1="281.92" y1="972.1" x2="281.92" y2="981.38" xlink:href="#linear-gradient-5"/><linearGradient id="linear-gradient-70" x1="257.04" y1="986.32" x2="257.04" y2="1030.04" xlink:href="#linear-gradient-5"/><linearGradient id="linear-gradient-71" x1="711.52" y1="118.18" x2="840.54" y2="118.18" xlink:href="#linear-gradient-49"/><linearGradient id="linear-gradient-72" x1="808.81" y1="138.26" x2="808.81" y2="202.22" gradientTransform="translate(0 1101.76) scale(1 -1)" gradientUnits="userSpaceOnUse"><stop offset="0" stop-color="#e89f8e"/><stop offset="1" stop-color="#d6816e"/></linearGradient><linearGradient id="linear-gradient-73" x1="905.05" y1="118.18" x2="1034.07" y2="118.18" xlink:href="#linear-gradient-49"/><linearGradient id="linear-gradient-74" x1="908.72" y1="170.24" x2="959.9" y2="170.24" xlink:href="#linear-gradient-72"/><linearGradient id="linear-gradient-75" x1="871.96" y1="156.72" x2="871.96" y2="684.89" xlink:href="#linear-gradient"/><linearGradient id="linear-gradient-76" x1="991.1" y1="547.37" x2="1022.31" y2="547.37" gradientTransform="translate(0 1101.76) scale(1 -1)" gradientUnits="userSpaceOnUse"><stop offset="0" stop-color="#d6816e"/><stop offset=".65" stop-color="#e09381"/><stop offset="1" stop-color="#e89f8e"/></linearGradient><linearGradient id="linear-gradient-77" x1="837.2" y1="582.75" x2="837.2" y2="916.37" xlink:href="#linear-gradient-5"/><linearGradient id="linear-gradient-78" x1="858.59" y1="895.02" x2="858.59" y2="977.71" xlink:href="#linear-gradient-76"/><linearGradient id="linear-gradient-79" x1="856.71" y1="1032.89" x2="856.71" y2="1101.76" xlink:href="#linear-gradient-49"/><linearGradient id="linear-gradient-80" x1="800" y1="1012.64" x2="831.02" y2="1012.64" gradientTransform="translate(0 1101.76) scale(1 -1)" gradientUnits="userSpaceOnUse"><stop offset="0" stop-color="#e89f8e"/><stop offset=".51" stop-color="#e69d8b"/><stop offset=".74" stop-color="#e29684"/><stop offset=".91" stop-color="#db8a77"/><stop offset="1" stop-color="#d6816e"/></linearGradient><linearGradient id="linear-gradient-81" x1="887.67" y1="1012.64" x2="918.68" y2="1012.64" gradientTransform="translate(0 1101.76) scale(1 -1)" gradientUnits="userSpaceOnUse"><stop offset="0" stop-color="#d6816e"/><stop offset="1" stop-color="#e89f8e"/></linearGradient><linearGradient id="linear-gradient-82" x1="837.94" y1="961.36" x2="881.87" y2="961.36" xlink:href="#linear-gradient-8"/><linearGradient id="linear-gradient-83" x1="858.79" y1="966.39" x2="858.79" y2="1086.04" xlink:href="#linear-gradient-80"/><linearGradient id="linear-gradient-84" x1="835.46" y1="1025.74" x2="842.86" y2="1025.74" xlink:href="#linear-gradient-5"/><linearGradient id="linear-gradient-85" x1="871.75" y1="1025.74" x2="879.14" y2="1025.74" xlink:href="#linear-gradient-5"/><linearGradient id="linear-gradient-86" x1="825.39" y1="1045.13" x2="849.56" y2="1045.13" xlink:href="#linear-gradient-5"/><linearGradient id="linear-gradient-87" x1="863.5" y1="1045.13" x2="887.67" y2="1045.13" xlink:href="#linear-gradient-5"/><linearGradient id="linear-gradient-88" x1="856.31" y1="1017.22" x2="856.31" y2="1092.81" xlink:href="#linear-gradient-49"/><linearGradient id="linear-gradient-89" x1="507.44" y1="123.55" x2="507.44" y2="231.79" xlink:href="#linear-gradient-8"/><linearGradient id="linear-gradient-90" x1="396.74" y1="116.42" x2="535.64" y2="116.42" gradientTransform="translate(0 1101.76) scale(1 -1)" gradientUnits="userSpaceOnUse"><stop offset="0" stop-color="#3a3a3a"/><stop offset="1" stop-color="#181915"/></linearGradient><mask id="mask" x="384.93" y="961.69" width="150.71" height="66.88" maskUnits="userSpaceOnUse"><g id="mask0_19_2"><path class="cls-7" d="m522.45,969.74s-24.36,14.21-36.53-8.06l-89.18,47.32,138.9-.85-13.19-38.44v.03Z"/></g></mask><linearGradient id="linear-gradient-91" x1="466.23" y1="80.6" x2="466.23" y2="93.59" xlink:href="#linear-gradient"/><linearGradient id="linear-gradient-92" x1="640.71" y1="125.04" x2="640.71" y2="233.31" xlink:href="#linear-gradient-8"/><linearGradient id="linear-gradient-93" x1="612.51" y1="117.91" x2="751.41" y2="117.91" xlink:href="#linear-gradient-90"/><mask id="mask-1" x="612.51" y="960.19" width="150.71" height="66.88" maskUnits="userSpaceOnUse"><g id="mask1_19_2"><path class="cls-7" d="m625.7,968.25s24.36,14.21,36.53-8.06l89.18,47.32-138.9-.85,13.19-38.44v.03Z"/></g></mask><linearGradient id="linear-gradient-94" x1="681.92" y1="82.1" x2="681.92" y2="95.09" xlink:href="#linear-gradient"/><linearGradient id="linear-gradient-95" x1="567.84" y1="174.04" x2="567.84" y2="651.7" xlink:href="#linear-gradient-29"/><linearGradient id="linear-gradient-96" x1="502.45" y1="167.23" x2="502.45" y2="209.09" xlink:href="#linear-gradient-29"/><linearGradient id="linear-gradient-97" x1="640.82" y1="167.2" x2="640.82" y2="209.09" xlink:href="#linear-gradient-29"/><linearGradient id="linear-gradient-98" x1="615.66" y1="864.63" x2="766.2" y2="864.63" xlink:href="#linear-gradient-8"/><linearGradient id="linear-gradient-99" x1="414.8" y1="682.29" x2="544.06" y2="682.29" xlink:href="#linear-gradient-8"/><linearGradient id="linear-gradient-100" x1="562.09" y1="638.43" x2="562.09" y2="859.61" xlink:href="#linear-gradient"/><linearGradient id="linear-gradient-101" x1="455.47" y1="818.97" x2="503.85" y2="818.97" xlink:href="#linear-gradient-76"/><linearGradient id="linear-gradient-102" x1="563.03" y1="828.85" x2="563.03" y2="910.19" xlink:href="#linear-gradient-8"/><linearGradient id="linear-gradient-103" x1="577.88" y1="1001.15" x2="610.11" y2="1001.15" xlink:href="#linear-gradient-5"/><linearGradient id="linear-gradient-104" x1="504.12" y1="945.15" x2="535.15" y2="945.15" xlink:href="#linear-gradient-8"/><linearGradient id="linear-gradient-105" x1="591.76" y1="945.15" x2="622.78" y2="945.15" xlink:href="#linear-gradient-27"/><linearGradient id="linear-gradient-106" x1="562.86" y1="898.9" x2="562.86" y2="1018.55" xlink:href="#linear-gradient-8"/><linearGradient id="linear-gradient-107" x1="539.59" y1="958.23" x2="546.98" y2="958.23" xlink:href="#linear-gradient-5"/><linearGradient id="linear-gradient-108" x1="575.87" y1="958.23" x2="583.27" y2="958.23" xlink:href="#linear-gradient-5"/><linearGradient id="linear-gradient-109" x1="529.51" y1="977.64" x2="553.66" y2="977.64" xlink:href="#linear-gradient-5"/><linearGradient id="linear-gradient-110" x1="567.62" y1="977.64" x2="591.76" y2="977.64" xlink:href="#linear-gradient-5"/><linearGradient id="linear-gradient-111" x1="514.32" y1="979.17" x2="526.56" y2="979.17" xlink:href="#linear-gradient-5"/><linearGradient id="linear-gradient-112" x1="597.76" y1="981.24" x2="609.85" y2="981.24" xlink:href="#linear-gradient-5"/><linearGradient id="linear-gradient-113" x1="506.02" y1="1014.97" x2="596.01" y2="1014.97" xlink:href="#linear-gradient-5"/></defs><g class="cls-88"><path class="cls-121" d="m245.81,117.57c5.33,0,5.33-8.28,0-8.28s-5.33,8.28,0,8.28Z"/><path class="cls-2" d="m1640.84,302.91c76.09,0,137.77-61.68,137.77-137.77s-61.68-137.77-137.77-137.77-137.77,61.68-137.77,137.77,61.68,137.77,137.77,137.77Z"/><path class="cls-5" d="m355.28,161.04c35.22-14.33,52.15-54.5,37.82-89.71-14.33-35.22-54.5-52.15-89.71-37.82-35.22,14.33-52.15,54.49-37.82,89.71,14.33,35.22,54.5,52.15,89.71,37.82Z"/><path class="cls-4" d="m75.89,572.68c29.64,0,53.67-24.03,53.67-53.67s-24.03-53.67-53.67-53.67-53.67,24.03-53.67,53.67,24.03,53.67,53.67,53.67Z"/><path class="cls-3" d="m1794.97,1019.3c15.56,0,45.23-134.51,47.9-146.65,32.86-150.38,9.96-304.13-116.22-405.61-83.28-66.97-198.39-101.51-304.98-96.19-99.36,4.97-191.14,37.83-271.57-42.19-71.27-70.89-152.12-141.11-246.57-178.94-106.84-42.8-244.42-57.56-357.82-41.58-98.23,13.82-193.54,59.32-257.39,136.67-30.13,36.51-51.68,79.08-65.01,124.44-18.49,62.97-5.24,126.4-3.84,190.56,2.04,92.71-72.38,125.55-130.38,184.01C41.57,791.77,1.06,851.34.01,921.21c-.25,16.94,3.23,98.09,28.86,98.09h1766.09Z"/><path class="cls-80" d="m1139.31,94.59s-35.57,1.77-38.93,40.86c-2.54,29.17,3.09,42.24-19.1,65.59,0,0,64.93,38.33,158.08,10.13,0,0-17.52-30.21-17.03-58.91.5-28.7-7.72-41.28-22.68-52.15-14.96-10.87-45.36-17.27-60.32-5.55l-.03.03Z"/><path class="cls-38" d="m1310.97,995.54l27.26,13.44c2.9,1.43,4.64,4.69,3.75,7.78-.72,2.46-3.01,4.69-9.08,4.8-13.46.25-73.09-9.05-73.09-9.05v6.73h-27.76s-1.85-35.26,6.57-39.9l72.38,16.17-.03.03Z"/><path class="cls-96" d="m1271.34,966.98l-6.93-100.74-43.87-4.17,18.1,117.33s26.08,12.14,46.88,20.17c20.8,8.06,25.49-4.03,25.49-4.03l-39.65-28.59-.03.03Z"/><path class="cls-123" d="m1269.24,936.8l-35.95,8.03-1.24-8.03h37.19Z"/><path class="cls-103" d="m998.92,995.54l-27.26,13.44c-2.9,1.43-4.64,4.69-3.75,7.78.72,2.46,3.03,4.31,9.11,4.42,13.46.25,73.09-8.66,73.09-8.66v6.73h27.57s2.04-35.26-6.37-39.9l-72.37,16.17v.03Z"/><path class="cls-59" d="m1045.5,866.24l-6.93,100.74-39.65,28.59s4.69,12.09,25.49,4.03c20.8-8.06,46.88-20.17,46.88-20.17l18.1-117.33-43.87,4.17-.03-.03Z"/><path class="cls-49" d="m1078.22,934.43l-37.42.27-.63,9.16,38.05-9.44Z"/><path class="cls-129" d="m1193.48,396.17s37.64,12.2,65.45,139.76c27.81,127.59,37.61,306.14,42.52,400.86h-100.66l-52.7-394.69-24.89,392.01-101.04.69s5.82-495.7,84.54-538.66h86.81l-.03.03Z"/><path class="cls-22" d="m1148.06,542.11l-26.54-10.1"/><path class="cls-22" d="m1299.05,892.43h-102.73"/><path class="cls-22" d="m1124.72,892.43h-101.13"/><path class="cls-130" d="m1067.05,267.76c-16.34,25.41-66.09,64.9-142.9,91.5l-8.19,47.46s130.73-32.72,182.33-86.34l12.64-78.97s-27.51.94-43.84,26.35h-.03Z"/><path class="cls-110" d="m1106.67,396.17c-1.49,2.02,86.81,0,86.81,0v-13.02l-87.36.25s2.04,10.76.55,12.77Z"/><path class="cls-34" d="m1356.3,391.01c-.05-4.66-1.3-9.44-3.97-13.85l-63.77-78.72c-22.38-42.24-56.7-41.94-56.7-41.94l-29.94,4.97-10.29,47.71,24.86,25.61c3.56-5.66,6.46-11.09,8.83-16.28l67.82,69.23-79.41,56.04-18.04-4.69,21.72,42.33,21.27-13.19-.41-.47,100.02-50.55c11.34-3.81,18.49-14.63,17.99-26.21l.03.03Z"/><path class="cls-22" d="m1190.74,429.23l33.09,64.7"/><path class="cls-7" d="m1201.15,248.33l30.71,8.19s-25.91,29.47-15.37,78.28l-23.04,48.34-87.36.25-18.71-57.75c-5.13-15.87-9.08-32.67-1.27-47.4l19.97-36.62,19.18-.8,75.85,7.51h.03Z"/><path class="cls-15" d="m1181.55,242.01l-2.67-50.74-37.25,15.73.25,30.57-21.16,2.87s11.34,36.78,83.91,8.75l-23.04-7.17h-.03Z"/><path class="cls-64" d="m1127.39,165.2c.14,9.13-7.15,16.64-16.28,16.78-9.13.14-16.64-7.15-16.78-16.28-.14-9.13,7.15-16.64,16.28-16.78,9.13-.14,16.64,7.15,16.78,16.28Z"/><path class="cls-8" d="m1141.82,227.8l34.99-29.39-35.29,5.33.3,24.06Z"/><path class="cls-29" d="m1142.71,213.35c-21.11-1.08-37.8-20.36-37.5-37.61l.88-37.44c.39-21.63,17.85-39.07,39.49-39.4,22.16-.33,44.26,17.27,44.62,39.43l-1.13,32.75c-.88,25.33-21.02,41.89-46.35,42.27Z"/><path class="cls-118" d="m1131.31,178.69h-.11l-2.9-.28c-.91-.08-1.74-.55-2.29-1.27-.55-.72-.77-1.66-.63-2.54l.91-5.21c.11-.61.69-1.02,1.3-.91s1.02.69.91,1.3l-.91,5.21c-.05.28,0,.58.19.8.16.22.44.39.72.39l2.9.28c.61.06,1.08.61,1.02,1.21-.05.58-.55,1.02-1.1,1.02Z"/><path class="cls-37" d="m1150.02,144.7s-8.97-1.21-9.24,2.43c0,0-.14,2.48,7.7,3.39,7.84.91,12.22.83,13.05-1.46.85-2.29-7.29-4.14-11.51-4.39v.03Z"/><path class="cls-76" d="m1114.64,144.09s7.48-.36,7.89,3.12c0,0,.22,2.35-6.32,2.51-6.54.17-8.61-.77-9.11-2.68-.58-2.18,4-3.09,7.53-2.95Z"/><path class="cls-104" d="m1118.89,160.42c-.05,2.1-1.77,3.75-3.86,3.7-2.1-.05-3.75-1.77-3.7-3.86.05-2.1,1.77-3.75,3.86-3.7,2.1.06,3.75,1.77,3.7,3.86Z"/><path class="cls-117" d="m1152.09,161.11c-.05,2.1-1.77,3.75-3.86,3.7-2.1-.06-3.75-1.77-3.7-3.86.05-2.1,1.77-3.75,3.86-3.7,2.09.06,3.75,1.77,3.7,3.86Z"/><path class="cls-89" d="m1121.13,184.32l22.49-1.49s-3.78,4.17-14.13,4.17c-6.65,0-8.36-2.65-8.36-2.65v-.03Z"/><path class="cls-99" d="m1192.59,113.82c-17.74-17.08-31.51-19.09-31.51-19.09l-25.83.55s-3.95,1.68-7.75,4.72c-1.1.33-2.35.72-3.81,1.24-15.92,5.68-22.1,26.46-17.61,37.08,0,0,10.57-7.37,18.4-17.02,10.37,14.79,39.15,32.28,68.07,37.53,0,0,17.74-27.9,0-44.98l.03-.03Z"/><path class="cls-78" d="m1208.65,168.29c.14,9.19-7.2,16.75-16.39,16.89-9.19.14-16.75-7.2-16.89-16.39-.14-9.19,7.2-16.75,16.39-16.89,9.19-.14,16.75,7.2,16.89,16.39Z"/><path class="cls-131" d="m1186.28,174.69c-.61,0-1.13-.5-1.13-1.1,0-.25-.06-6.04,3.78-9.38,2.21-1.93,5.19-2.65,8.89-2.1.61.08,1.05.66.94,1.27-.08.61-.69,1.02-1.27.94-3.01-.44-5.38.08-7.06,1.55-3.07,2.68-3.01,7.62-3.01,7.64,0,.63-.49,1.13-1.1,1.13l-.03.06Z"/><path class="cls-111" d="m1682.89,352.44l-44.01-74.94-55.79,29.03,58.77,87.55-49.78,97.48c-2.76,3.5-5.43,10.01-6.23,22.13-1.85,27.46-8.72,45.53,10.1,46.82,18.82,1.3,50.99-14.46,29.05-36.59l-6.93-19.76,70.58-88.76c15.28-17.8,9.66-36.43-5.77-62.97Z"/><path class="cls-33" d="m1398.71,990.33l1.41-101.57,42.58-2.15-6.1,106.18-37.89-2.45Z"/><path class="cls-115" d="m1441.4,972.83s-32.5,14.07-47.79-8.08l-78.97,42.8,136.86-.91-10.1-33.8Z"/><path class="cls-7" d="m1314.78,1019.54l136.86-.91-.08-12.09-136.85.91.08,12.09Z"/><path class="cls-116" d="m1439.6,940.19l-.55,9.99-39.65-10.32,40.2.33Z"/><path class="cls-65" d="m1621.52,990.49l-12.55-101.57-42.58-2.15,17.25,106.18,37.88-2.45Z"/><path class="cls-47" d="m1576.49,972.83s32.51,14.07,47.79-8.08l78.97,42.8-136.86-.91,10.1-33.8Z"/><path class="cls-7" d="m1703.29,1007.45l-136.86-.91-.08,12.09,136.85.91.08-12.09Z"/><path class="cls-112" d="m1573.18,928.55l41.5,6.73-1.33-10.76-40.17,4.03Z"/><path class="cls-90" d="m1407.51,466.15l-31.59,473.52,93.73.74,32.89-401,35.76,392.64,102.09-10.24-48.67-455.66h-184.21Z"/><path class="cls-27" d="m1502.54,539.41l33.17-11.92"/><path class="cls-45" d="m1366.98,284.04l-22.24,28.53-30.55-102.62c2.81-4.8,8.53-17.8,7.37-42.66-.08-2.04-1.43-3.84-3.37-4.5-2.81-.99-5.9.66-6.59,3.59l-5.79,13.99-5.63-44.98c-.27-1.9-1.82-4.47-4.28-4.33-2.71,0-4.53,2.04-4.39,4.14l2.21,32.06-9.71-36.78c-.47-1.79-2.26-2.9-4.08-2.48-1.77.39-2.95,2.1-2.68,3.89l6.04,40.37-11.51-32.5c-.63-1.77-2.43-2.81-4.25-2.51-2.18.36-3.59,2.46-3.14,4.61l7.87,36.15-18.46-21.14c-1.55-1.52-4.08-1.32-5.41.39-.99,1.3-1.02,3.09-.03,4.39l16.36,26.19s2.35,15.37,17.3,29.72l15.07,126.29c-.11,31.62,36.78,48.98,61.06,28.72l60.1-52.87-51.24-35.65h-.03Z"/><path class="cls-35" d="m1655.93,289.67c-29.05-77.37-78.86-82.14-78.86-82.14v.06c-.44-.08-.88-.17-1.35-.19l-39.37-1.99-103.45-.94s-20.47,2.98-36.01,22.96c-15.53,19.98-36.28,57.12-36.28,57.12l53.45,54.96-9.96,126.51,196.27,22.63-7.7-151.93,63.27-47.07v.03Z"/><path class="cls-27" d="m1589.79,277.5l2.6,57.78"/><path class="cls-27" d="m1414.03,339.53l4.66-59.16"/><path class="cls-62" d="m1537.56,204.65c0-.3.05-.61.05-.91l-2.18-53.5-42.11-1.19-2.26,55.43-24.89.3s-2.68,25.22,45.92,26.46c48.59,1.24,49.39-24.83,49.39-24.83l-23.92-1.74v-.03Z"/><path class="cls-113" d="m1494.84,161.39l42.05,24.72-1.46-35.87-40.59,11.15Z"/><path class="cls-57" d="m1585.68,112.14c0,8.72-7.06,15.78-15.78,15.78s-15.78-7.06-15.78-15.78,7.06-15.78,15.78-15.78,15.78,7.06,15.78,15.78Z"/><path class="cls-31" d="m1561.07,116.69c-.22,0-.47-.08-.67-.22-.49-.36-.61-1.08-.22-1.55.08-.14.22-.36.39-.66,1.27-2.4,5.16-9.71,14.54-8.33.61.08,1.02.66.94,1.27-.09.61-.64,1.05-1.27.94-7.83-1.16-10.93,4.69-12.25,7.17-.25.44-.41.77-.55.97-.22.3-.55.44-.88.44l-.03-.03Z"/><path class="cls-73" d="m1445.29,112.14c0,8.72,7.06,15.78,15.78,15.78s15.79-7.06,15.79-15.78-7.07-15.78-15.79-15.78-15.78,7.06-15.78,15.78Z"/><path class="cls-106" d="m1469.9,116.69c-.33,0-.66-.17-.88-.44-.14-.19-.33-.52-.55-.97-1.32-2.48-4.36-8.33-12.25-7.17-.61.11-1.16-.33-1.27-.94-.08-.61.33-1.16.94-1.27,9.38-1.38,13.24,5.93,14.54,8.33.17.3.28.55.39.66.36.5.28,1.19-.22,1.55-.2.14-.44.22-.67.22l-.03.03Z"/><path class="cls-14" d="m1564.54,83.96c0,20.09-2.9,37.44-5.79,49.75-2.84,12.06-10.84,20.47-22.13,27.26l-2.04,1.21c-12.06,7.23-27.32,7.42-39.54.44-12.22-6.98-20.8-16.17-23.43-29.11-4.8-23.54-5.32-49.58-5.32-49.58,0,0-4.55-50.74,48.43-49.75,52.98.99,49.83,49.75,49.83,49.75v.03Z"/><path class="cls-125" d="m1514.65,124.14c-.83,0-1.63-.28-2.29-.83-.88-.72-1.38-1.77-1.38-2.92v-6.57c0-.61.5-1.13,1.1-1.13s1.13.5,1.13,1.13v6.57c0,.47.22.91.55,1.19.33.28.74.39,1.16.28l3.5-.75c.63-.14,1.19.28,1.32.86.14.61-.25,1.19-.86,1.32l-3.5.75c-.25.06-.49.08-.74.08v.03Z"/><path class="cls-85" d="m1507.31,83.72l-29.61,3.53s2.37-7.81,14.49-9.16c12.09-1.35,15.12,5.63,15.12,5.63Z"/><path class="cls-128" d="m1523.15,83.72l29.61,3.53s-2.37-7.81-14.49-9.16c-12.09-1.35-15.12,5.63-15.12,5.63Z"/><path class="cls-7" d="m1497.91,130.68h31.1s-2.45,8-15.53,8c-10.95,0-15.53-8-15.53-8h-.03Z"/><path class="cls-127" d="m1542.11,107c-.44,0-.86-.17-1.19-.5-1.55-1.55-3.17-2.35-4.83-2.35h-.08c-2.79.06-4.91,2.26-4.94,2.29-.64.69-1.71.72-2.38.08-.69-.63-.72-1.68-.08-2.37.14-.14,3.09-3.28,7.31-3.37h.16c2.57,0,5,1.13,7.2,3.34.66.66.66,1.74,0,2.37-.33.33-.77.5-1.19.5Z"/><path class="cls-46" d="m1498.65,107c-.44,0-.85-.17-1.19-.5-1.54-1.55-3.17-2.35-4.83-2.35h-.08c-2.79.06-4.91,2.26-4.94,2.29-.63.69-1.71.72-2.37.08-.69-.63-.72-1.68-.08-2.37.14-.14,3.09-3.28,7.31-3.37,2.78-.06,5.1,1.08,7.36,3.31.67.66.67,1.74,0,2.37-.33.33-.77.5-1.19.5v.03Z"/><path class="cls-61" d="m1583.22,58.83l-10.76-9.57,8.17-2.87c-3.75-6.04-18.29-12.31-18.29-12.31l7.56-1.35s-12.31-22.13-53.83-19.59c-41.53,2.54-44.07,31.98-44.07,31.98v.14c-2.4.8-29.83,11.09-2.87,59.3,0,0,7.09-22.87,5.88-43.98,2.04-3.12,10.63-14.13,24.53-6.4,12.99,7.23,25.85,14.13,45.45,12.8,3.03-.06,6.12-.33,9.16-.72.99,19.31,8.41,38.3,8.41,38.3,8.69-19.59,10.02-32.86,8.25-41.75,7.34-2.01,12.42-3.97,12.42-3.97Z"/><path class="cls-50" d="m351.93,995.57l26.88,14.79c2.84,1.57,4.58,5.16,3.7,8.55-.69,2.71-3.01,4.75-8.97,4.86-13.3.27-72.13-9.55-72.13-9.55v6.9l-27.29-3.45s-1.9-34.82,6.4-39.93l71.41,17.8v.03Z"/><path class="cls-6" d="m316.25,966.43v-113.68l-35.7,2.9,3.75,106.73-3.75,15.4s25.72,13.35,46.25,22.21c20.53,8.86,25.16-4.44,25.16-4.44l-35.7-29.14v.03Z"/><path class="cls-32" d="m184.5,995.57l-26.88,14.79c-2.84,1.57-4.58,5.16-3.7,8.55.69,2.71,3.01,4.75,8.97,4.86,13.3.27,72.13-9.55,72.13-9.55v6.9l27.29-3.45s1.9-34.82-6.4-39.93l-71.41,17.8v.03Z"/><path class="cls-39" d="m252.15,962.4l-2.73-106.73-35.7-2.9,5.9,114.12-35.13,28.7s4.64,13.3,25.16,4.44c20.53-8.86,46.25-22.21,46.25-22.21l-3.75-15.4v-.03Z"/><path class="cls-84" d="m309.9,419.68s43.04,27.26,34.54,151.65c-8.5,124.39-21.63,363.95-21.63,363.95h-43.93l-14.84-410.55-7.2-.3.19,410.85h-43.93l-34.52-373.24s-10.13-83,30.55-142.35c-5.77,3.81,52.87-27.68,100.77,0Z"/><path class="cls-21" d="m283.47,524.7l-44.15,2.02"/><path class="cls-87" d="m408.05,358.76s-23.84-38.3-42.11-78.83c-9.71-21.58-22.21-29.11-31.76-31.46l-35.46-8.36-85.7-2.48-31.65,8.44c-9.82,1.1-24.67,7.37-35.84,32.17-18.27,40.53-36.75,86.86-36.75,86.86l33.88,9.11,43.98-65.28c10.98,46.99,22.52,97.21,22.52,97.21,49.61-8.47,100.77,0,100.77,0,4.53-24.2,10.18-60.7,14.9-92.49l44.01,62.3,39.24-17.14-.03-.05Z"/><path class="cls-21" d="m324.8,313.59l1.93-19.18"/><path class="cls-30" d="m503.6,297.26l11.42,16.8-111.36,74.66c-12.64,8.17-29.58,2.43-34.68-11.73-4.25-11.75,1.52-24.81,13.08-29.58l121.54-50.16Z"/><path class="cls-93" d="m309.9,406.11v13.6s-50.38-5.68-100.77,0v-13.6l50.49-14.65,50.27,14.65Z"/><path class="cls-126" d="m275.55,229.54l-2.84-42.05-28.03-.61-3.92,40.31-27.73,10.46s4.53,20.86,41.28,20.8c43.15-.08,44.42-18.32,44.42-18.32l-23.18-10.6Z"/><path class="cls-21" d="m187.39,310.03l-3.34-17.8"/><path class="cls-16" d="m140.51,360.5l-54.47-119.31c-.08-1.54-.25-3.09-.58-4.61l-1.13-5.16c-1.52-6.93-4.64-13.41-9.11-18.9l-7.89-9.69c-1.88-2.29-5.35-2.37-7.31-.14-1.66,1.88-1.99,4.58-.86,6.82l5.96,11.84-38.13-25.11c-1.85-1.27-4.39-.66-5.41,1.32l-.69,1.32c-.83,1.57-.41,3.5.97,4.61l25.05,17.8-31.59-16.47c-1.9-1.16-4.39-.36-5.3,1.66l-.44,1.02c-.77,1.71-.14,3.73,1.46,4.69l27.12,16.14-23.29-7.73c-2.24-.83-4.64.63-4.97,2.98l-.06.47c-.22,1.6.63,3.17,2.12,3.86l23.62,9.74-13.3-2.21c-2.62-.83-5.19,1.35-4.8,4.06.19,1.3,1.02,2.4,2.24,2.9l50.44,20.06,26.46,113.41c3.67,14.6,19.98,21.96,33.36,15.09,11.12-5.71,15.81-19.15,10.62-30.55l-.11.08Z"/><path class="cls-26" d="m65.1,221.35s-3.92,9.49,2.59,20.58"/><path class="cls-60" d="m257.86,84.16c17.52,0,31.73-14.21,31.73-31.73s-14.21-31.73-31.73-31.73-31.73,14.21-31.73,31.73,14.21,31.73,31.73,31.73Z"/><path class="cls-41" d="m302.87,140.03s8.39-6.51,14.51,1.21c9.33,11.75-6.98,33.06-21.16,22.1l6.65-23.32Z"/><path d="m301.6,157.06s-.22,0-.33-.08c-.36-.19-.5-.63-.33-.99,5.3-10.32,10.4-8.83,10.65-8.77.39.11.61.52.47.91-.11.39-.52.61-.91.5-.08,0-4.28-.99-8.88,8.03-.14.25-.39.39-.66.39v.03Z"/><path class="cls-68" d="m300.83,193.15c-5.46,0-11.42-5.63-12.22-16.42-.06-.8.55-1.52,1.35-1.57.72-.06,1.52.55,1.57,1.35.66,8.88,5.3,13.69,9.3,13.69,4.99,0,9.05-5.74,9.05-12.8s-4.06-12.8-9.05-12.8c-.8,0-1.46-.66-1.46-1.46s.66-1.46,1.46-1.46c6.59,0,11.97,7.06,11.97,15.73s-5.38,15.73-11.97,15.73v.03Z"/><path class="cls-71" d="m212.92,140.03s-8.39-6.51-14.51,1.21c-9.33,11.75,6.98,33.06,21.16,22.1l-6.65-23.32Z"/><path d="m214.19,157.06c-.28,0-.52-.14-.66-.39-4.66-9.11-8.86-8.06-8.91-8.03-.36.11-.8-.11-.91-.5-.11-.39.08-.8.47-.91.22-.06,5.35-1.55,10.65,8.77.19.36.06.8-.33.99-.11.06-.22.08-.33.08l.03-.03Z"/><path class="cls-53" d="m214.93,193.15c-6.59,0-11.98-7.06-11.98-15.73s5.38-15.73,11.98-15.73c.8,0,1.46.66,1.46,1.46s-.66,1.46-1.46,1.46c-4.99,0-9.05,5.74-9.05,12.8s4.06,12.8,9.05,12.8c3.92,0,9.69-6.13,9.69-14.6,0-.8.66-1.46,1.46-1.46s1.46.66,1.46,1.46c0,9.71-6.9,17.55-12.64,17.55l.03-.03Z"/><path class="cls-81" d="m257.59,170.14c29.64,0,53.67-23.43,53.67-52.34s-24.03-52.34-53.67-52.34-53.67,23.43-53.67,52.34,24.03,52.34,53.67,52.34Z"/><path class="cls-122" d="m243.43,191.58c1.24.69,30.96,21.66,30.96,21.66l-1.71-26.21-29.25,4.55Z"/><path class="cls-91" d="m302.95,113.87s5.66,80.79-43.51,80.79c-53.17,0-47.6-80.79-47.6-80.79,0,0,.3-36.39,45.97-36.39,41.86,0,45.14,36.39,45.14,36.39Z"/><path class="cls-97" d="m273.76,142.18c0,2.15,1.74,3.89,3.89,3.89s3.89-1.74,3.89-3.89-1.74-3.89-3.89-3.89-3.89,1.74-3.89,3.89Z"/><path class="cls-54" d="m234.96,142.18c0,2.15,1.74,3.89,3.89,3.89s3.89-1.74,3.89-3.89-1.74-3.89-3.89-3.89-3.89,1.74-3.89,3.89Z"/><path class="cls-7" d="m272.16,165.83h-24.5s1.66,6.24,12.11,6.24,12.39-6.24,12.39-6.24Z"/><path class="cls-25" d="m262,151.93v6.29l-4.58.08"/><path class="cls-69" d="m239.18,120.33s9.96-1.93,10.4,3.42c0,0,.25,3.64-8.47,5.1-8.69,1.46-14.79,1.85-15.84-1.49-1.02-3.34,9.19-6.59,13.88-7.04h.03Z"/><path class="cls-17" d="m284.82,120.86s10.13.44,9.33,5.77c0,0-.63,3.59-9.44,2.98-8.8-.61-15.07-1.63-15.07-5.49,0-4.53,10.49-3.92,15.15-3.26h.03Z"/><path class="cls-92" d="m306.48,115.45c-1.02-31.18-18.4-37.33-28.92-38.19v-.14s-3.75-9.22-34.85-3.56c-31.1,5.66-35.13,40.4-35.13,40.4,40.23,1.32,57.67-14.46,65.01-25.8,9.05,20.58,33.88,27.29,33.88,27.29Z"/><path class="cls-119" d="m831.93,963.51h-45.36l-75.05,40.15,129.02-1.55-8.61-38.6Z"/><path class="cls-93" d="m808.89,1011.35c4.25,0,7.7,3.56,7.78,7.97l24.28-.05-.44-17.19-129.02,1.55.44,16.97,89.12-1.08c0-4.53,3.5-8.17,7.81-8.17h.03Z"/><path class="cls-7" d="m770.07,985.11c-.25,0-.5-.03-.72-.11l-14.87-4.06c-1.46-.38-2.32-1.9-1.93-3.39.39-1.46,1.91-2.35,3.39-1.93l14.87,4.06c1.46.39,2.32,1.91,1.93,3.39-.33,1.21-1.43,2.02-2.65,2.02l-.03.03Z"/><path class="cls-7" d="m784.61,977.66c-.25,0-.5-.03-.72-.11l-14.87-4.06c-1.46-.38-2.32-1.9-1.93-3.39.39-1.46,1.91-2.32,3.39-1.93l14.87,4.06c1.46.39,2.32,1.91,1.93,3.39-.33,1.21-1.43,2.02-2.65,2.02l-.03.03Z"/><path class="cls-77" d="m831.93,899.55h-46.24v63.96h46.24v-63.96Z"/><path class="cls-100" d="m913.66,963.51h45.39l75.03,40.15-129.02-1.55,8.61-38.6Z"/><path class="cls-93" d="m936.7,1011.35c-4.25,0-7.7,3.56-7.78,7.97h-24.25l.41-17.25,129.02,1.55-.44,16.97-89.13-1.08c0-4.53-3.5-8.17-7.81-8.17h-.03Z"/><path class="cls-7" d="m977.84,987.4c-.99,0-1.96-.55-2.45-1.52-.69-1.35-.14-3.01,1.21-3.7l12.56-6.38c1.35-.69,3.01-.14,3.7,1.22.69,1.35.14,3.01-1.21,3.7l-12.56,6.37c-.39.19-.83.31-1.24.31Z"/><path class="cls-7" d="m965.62,977.66c-1.1,0-2.13-.66-2.57-1.74-.55-1.41.14-3.01,1.55-3.59l10.24-4.06c1.41-.55,3.01.14,3.59,1.55.55,1.41-.14,3.01-1.55,3.59l-10.23,4.06c-.33.14-.69.2-1.02.2Z"/><path class="cls-105" d="m954.96,899.55h-46.24l4.94,63.96h46.24l-4.94-63.96Z"/><path class="cls-1" d="m938.63,416.87c3.48,37.11,31.29,528.18,31.29,528.18h-72.21l-31.65-436.21-12.99.25-8.42,435.96h-68.98s-3.95-455.64.28-527.02l162.69-1.16Z"/><path class="cls-28" d="m834.83,509.17h52.9"/><path class="cls-121" d="m975.47,466.01l21.16,53.95,16.36-1.71-12.42-69.84-25.11,17.6Z"/><path class="cls-74" d="m995.83,511.46s-8.39,15.12-1.52,33.31l-3.12,18.38c-.5,2.84,1.08,5.71,3.64,6.7,2.79,1.08,5.8-.41,6.79-3.34l3.59-10.49.69,3.89c1.1,6.18.22,12.5-2.46,17.96l-7.61,15.56c-.85,1.77-.74,3.95.28,5.66,2.01,3.31,6.46,3.48,8.52.33l12.45-18.96c4.83-7.34,6.4-16.67,4.36-25.55l-11.01-47.82-14.6,4.39v-.03Z"/><path class="cls-120" d="m1018.57,510.08s-27.43-199.72-53.86-274.27c-13.19-37.22-37.97-43.43-37.97-43.43l-15.45-6.87-105.46-.11-21.66,9.08c-1.16.47-2.24,1.05-3.28,1.71-68.87,35.59-125.05,99.11-125.05,99.11l37.78,45.5,75.91-48.23v154.38h177.92l-.05-19.97,23.87,92.05,47.32-8.91v-.03Z"/><path class="cls-36" d="m883.17,173.31l-3.92-48.45s-8.75,6.18-16.72,7.7c-7.97,1.52-15.73-3.09-15.81-3.15-.11-.06-9.3-5.35-9.3-5.35l-3.72,49.91-27.84,11.45c52.59,47.9,105.46.11,105.46.11l-28.12-12.2-.03-.03Z"/><path class="cls-20" d="m805.86,185.39s18.32,21.69,52.59,21.69,52.87-21.58,52.87-21.58"/><path class="cls-28" d="m947.35,420.73l-.5-153.08"/><path class="cls-28" d="m769.54,292.56v-25.69"/><path class="cls-94" d="m884.63,6.21c-35.43-18.05-55.43,9-55.43,9-41.19,10.87-16.69,53.67-16.69,53.67l11.59-15.07,78.39,14.85s21-42.66-17.85-62.47v.03Z"/><path class="cls-12" d="m831.02,88.68c.25,8.55-6.51,15.7-15.07,15.95-8.55.25-15.7-6.51-15.95-15.07-.25-8.55,6.51-15.7,15.07-15.95,8.55-.25,15.7,6.51,15.95,15.07Z"/><path class="cls-19" d="m806.71,86.94s6.18-3.01,12.06,7.73"/><path class="cls-18" d="m887.67,89.12c0,8.55,6.95,15.51,15.5,15.51s15.51-6.95,15.51-15.51-6.95-15.51-15.51-15.51-15.5,6.95-15.5,15.51Z"/><path class="cls-19" d="m911.92,86.7s-6.26-2.84-11.84,8.06"/><path class="cls-63" d="m837.94,124.47l41.31.47,2.62,31.4-43.93-31.87Z"/><path class="cls-83" d="m901.24,62.11c.08,17.52-2.35,32.67-4.77,43.43-2.4,10.54-11.64,17.91-21.36,23.87l-1.77,1.08c-10.27,6.32-18.76,6.51-29.25.55-10.57-6.02-20.42-14.02-22.73-25.27-4.25-20.5-4.8-43.24-4.8-43.24,0,0-5.96-47.43,39.73-46.8,45.69.63,44.98,46.38,44.98,46.38h-.03Z"/><path class="cls-43" d="m842.86,76.02c0,2.04-1.66,3.7-3.7,3.7s-3.7-1.66-3.7-3.7,1.66-3.7,3.7-3.7,3.7,1.66,3.7,3.7Z"/><path class="cls-66" d="m879.14,76.02c0,2.04-1.66,3.7-3.7,3.7s-3.7-1.66-3.7-3.7,1.66-3.7,3.7-3.7,3.7,1.66,3.7,3.7Z"/><path class="cls-19" d="m853.95,85.7v5.91h4.8"/><path class="cls-56" d="m825.39,60.4l24.14-2.18s-2.15-6.26-11.92-5.24c-9.99,1.05-12.22,7.42-12.22,7.42Z"/><path class="cls-9" d="m887.67,60.4l-24.14-2.18s2.15-6.26,11.92-5.24c9.99,1.05,12.23,7.42,12.23,7.42Z"/><path class="cls-7" d="m845.7,100.05h23.84s-1.13,7.31-12.28,7.31-11.56-7.31-11.56-7.31Z"/><path class="cls-95" d="m896.41,21.49l.41,8.72c-5.68-9.33-17.36-21.66-39.15-21.25-31.65.58-25.69,10.18-24.31,11.98-26.46,6.98-26.96,31.43-26.96,31.43l9.68,28.81s7.89-29.41,7.42-43.35c-.47-13.44,12.69-17.47,13.6-17.74,3.97-.72,10.82-.25,17.66,8.36,8.17,10.29,28.5,20.78,42.69,14.29l2.04,41.8c16.72-43.4-3.09-63.08-3.09-63.08v.03Z"/><path class="cls-79" d="m530.95,885.42l-9.6,91.06-34.6,1.74-2.81-108.25,47.02,15.45Z"/><path class="cls-124" d="m522.45,969.74s-24.36,14.21-36.53-8.06l-89.18,47.32,138.9-.85-13.19-38.44v.03Z"/><g class="cls-108"><path class="cls-7" d="m412.63,980.81s34.3,5.13,31.65,47.76l-59.35-16.25,27.7-31.51Z"/></g><path class="cls-40" d="m535.64,1008.17l-138.9.85.08,12.14,138.9-.85-.08-12.14Z"/><path class="cls-7" d="m475.35,984.86c-.36-.16-.72-.38-.96-.74-5.41-7.06-10.82-10.57-10.87-10.59-1.08-.69-1.35-2.07-.63-3.07.72-1.02,2.18-1.27,3.23-.61.25.16,6.13,3.92,12.06,11.67.75.99.52,2.38-.52,3.09-.69.47-1.57.55-2.29.25Z"/><path class="cls-7" d="m464.01,990.52c-.36-.14-.72-.39-.97-.74-5.41-7.07-10.82-10.57-10.87-10.6-1.08-.69-1.35-2.04-.63-3.06.72-1.02,2.18-1.27,3.23-.61.25.16,6.12,3.92,12.06,11.67.74.99.52,2.37-.52,3.09-.69.47-1.57.55-2.29.25Z"/><path class="cls-7" d="m452.67,996.2c-.36-.16-.72-.39-.97-.74-5.41-7.07-10.81-10.57-10.87-10.6-1.08-.69-1.35-2.07-.64-3.06.72-1.02,2.18-1.27,3.23-.61.25.16,6.13,3.92,12.06,11.67.74.99.52,2.37-.52,3.09-.69.47-1.57.55-2.29.25Z"/><path class="cls-11" d="m617.2,883.9l9.6,91.08,34.6,1.74,2.81-108.27-47.02,15.45Z"/><path class="cls-10" d="m625.7,968.25s24.36,14.21,36.53-8.06l89.18,47.32-138.9-.85,13.19-38.44v.03Z"/><g class="cls-107"><path class="cls-7" d="m735.52,979.32s-34.3,5.13-31.65,47.76l59.35-16.25-27.7-31.51Z"/></g><path class="cls-114" d="m612.51,1006.67l-.08,12.14,138.9.85.08-12.14-138.9-.85Z"/><path class="cls-7" d="m672.8,983.35c.36-.14.72-.39.97-.75,5.41-7.06,10.81-10.57,10.87-10.59,1.08-.69,1.35-2.07.64-3.06-.72-1.02-2.18-1.27-3.23-.61-.25.16-6.13,3.92-12.06,11.67-.74.99-.52,2.37.52,3.09.69.47,1.57.55,2.29.25Z"/><path class="cls-7" d="m684.14,989.03c.36-.16.72-.38.96-.74,5.41-7.06,10.82-10.57,10.87-10.59,1.08-.69,1.35-2.04.63-3.07-.72-1.02-2.18-1.27-3.23-.61-.25.17-6.13,3.92-12.06,11.67-.75.99-.52,2.37.52,3.09.69.47,1.57.55,2.29.25Z"/><path class="cls-7" d="m695.48,994.69c.36-.16.72-.38.97-.74,5.41-7.06,10.82-10.57,10.87-10.59,1.08-.69,1.35-2.07.63-3.07-.72-1.02-2.18-1.27-3.23-.61-.25.16-6.12,3.92-12.06,11.67-.74.99-.52,2.38.52,3.09.69.47,1.57.55,2.29.25Z"/><path class="cls-55" d="m648.71,461.32l-86.95-7.7-71.93-3.56-29.08,247.04c-.33,3.17-.22,6.26.19,9.27l4.75,215.33h73.95l-4.31-213.65,34.44-170.5,35.26,390.16h70.09l-26.43-466.4h.03Z"/><path class="cls-98" d="m548.64,892.68h-92.38v41.86h92.38v-41.86Z"/><path class="cls-48" d="m689.25,934.56h-92.41l-4.44-41.89h92.38l4.47,41.89Z"/><path class="cls-75" d="m764.91,341.76l-34.38-135.48,16.94-75.88c.33-1.41-.14-2.9-1.19-3.92-2.2-2.12-5.88-1.19-6.81,1.74l-6.62,20.47,6.46-34.77c.33-1.79-.52-3.59-2.15-4.44l-.47-.25c-2.35-1.24-5.24,0-5.93,2.57l-9.68,32.26,4.52-41.22c.17-2.1-1.27-3.97-3.31-4.39l-1.21-.25c-2.46-.5-4.78,1.27-4.97,3.75l-5.52,39.46.06-34.35c-.11-1.96-1.6-3.59-3.56-3.86l-1.66-.22c-2.48-.36-4.69,1.55-4.72,4.06l-1.93,57.94-6.9-13.11c-1.3-2.48-3.97-3.92-6.76-3.64-3.31.33-5.49,3.56-4.64,6.76l3.7,13.44c2.09,7.64,5.96,14.68,11.28,20.56l10.18,11.26,6.18,112.22-41.39-25.63-54.77,32.59,110.45,52.73c4.72,2.96,10.4,4.44,16.36,3.89,16.75-1.6,27.68-18.35,22.38-34.32l.05.06Z"/><path class="cls-23" d="m698.8,165.03s11.2,2.59,17.03,15.73"/><path class="cls-23" d="m711.68,314.72l2.29,28.39"/><path class="cls-28" d="m655.09,360.06l-20.12-9.33"/><path class="cls-109" d="m541.32,491.23c-10.84-5.57-33.67-18.62-42.66-21.88l-36.2-50.03,28.53-71.32-50.97-18.02-24.92,89.73c-1.79,9.08,4.39,18.9,12.64,25.8,17.83,19.4,52.09,43.35,52.09,43.35,0,0,2.79,14.68,8.44,19.65,0,0,24.5,3.81,35.04-10.57,0,0,8.47,4.25,16.78,2.56,4.58-.94,5.41-7.17,1.24-9.33l-.03.05Z"/><path class="cls-23" d="m462.44,419.35l-9.66-13.38"/><path class="cls-101" d="m701.77,306.25s-25.03-29.55-62-43.43l-52.37-20.67-49.69.44-65.51,30.66s-41.31,13.8-49.8,87.14l54.99,16.39,7.31,86.56,164.29-2.26,6.07-101.02,15.87,7.37,30.82-61.17h.03Z"/><path class="cls-28" d="m478.3,378.63l-3.7-40.76"/><path class="cls-132" d="m503.83,258.49s-8.33,4.47-1.79,17.38c3.72,7.34,1.27,16.33-5.66,20.78l-14.4,9.27c-8.03,5.16-18.87,2.26-23.07-6.32-2.84-5.77-4.64-12.36-2.48-18.02,5.19-13.6,35.56-29.22,47.43-23.12l-.03.03Z"/><path class="cls-82" d="m587.15,242.43h-.08l.33-.25-4.03-49.8s-8.75,6.18-16.72,7.7c-7.97,1.52-15.73-3.09-15.81-3.15-.11-.06-9.3-5.35-9.3-5.35l-3.81,51.05.3.25h-.55l-14.62,6.73s-.16,24.53,39.62,23.26c40.78-1.3,40.7-24.42,40.7-24.42l-15.98-6.02h-.05Z"/><path class="cls-70" d="m577.88,79.3s22.85-10.18,30.96,9.08c7.81,18.54-23.18,36.23-23.18,36.23l-7.78-45.28v-.03Z"/><path class="cls-44" d="m535.14,156.17c.25,8.55-6.51,15.7-15.07,15.95-8.55.25-15.7-6.51-15.95-15.07-.25-8.55,6.51-15.7,15.07-15.95,8.55-.25,15.7,6.51,15.95,15.07Z"/><path class="cls-23" d="m510.81,154.44s6.18-3.01,12.06,7.73"/><path class="cls-102" d="m591.76,156.62c0,8.58,6.95,15.51,15.51,15.51s15.51-6.95,15.51-15.51-6.95-15.51-15.51-15.51-15.51,6.95-15.51,15.51Z"/><path class="cls-23" d="m616.02,154.19s-6.26-2.84-11.84,8.06"/><path class="cls-122" d="m542.18,195l41.31.47,2.62,31.4-43.93-31.87Z"/><path class="cls-51" d="m605.34,129.6c.08,17.52-2.35,32.67-4.77,43.43-2.4,10.51-9.24,17.91-18.96,23.87l-1.77,1.08c-10.27,6.32-23.56,6.51-34.08.55-10.57-6.02-17.99-14.02-20.34-25.27-4.25-20.5-4.8-43.24-4.8-43.24,0,0-5.96-47.43,39.73-46.8,45.69.63,44.98,46.38,44.98,46.38Z"/><path class="cls-72" d="m546.98,143.54c0,2.04-1.66,3.7-3.7,3.7s-3.7-1.66-3.7-3.7,1.66-3.7,3.7-3.7,3.7,1.66,3.7,3.7Z"/><path class="cls-42" d="m579.57,147.23c2.04,0,3.7-1.66,3.7-3.7s-1.66-3.7-3.7-3.7-3.7,1.66-3.7,3.7,1.66,3.7,3.7,3.7Z"/><path class="cls-23" d="m558.07,148.92v10.21h6.57"/><path class="cls-13" d="m529.51,127.89l24.14-2.18s-2.15-6.26-11.92-5.24c-9.99,1.05-12.23,7.42-12.23,7.42Z"/><path class="cls-58" d="m591.76,127.89l-24.14-2.18s2.15-6.26,11.92-5.24c9.99,1.05,12.22,7.42,12.22,7.42Z"/><path class="cls-7" d="m549.8,167.57h23.84s-1.13,7.31-12.28,7.31-11.56-7.31-11.56-7.31Z"/><path class="cls-52" d="m522.2,152.48s6.76-51.29,3.45-59.77c0,0-23.01,19.04-3.45,59.77Z"/><path class="cls-67" d="m603.63,152.06s-7.61-48.98-5.49-63.08c0,0,22.21,19.67,5.49,63.08Z"/><path class="cls-86" d="m596.01,99.25s-13.6,11.31-31.15,1.9c0,0-44.65,27.51-57.26-2.43-10.51-24.97,33.11-58.85,78.12-20.67l10.29,21.19Z"/><path class="cls-28" d="m547.34,531.93l45.14,5.74"/></g></svg>