<?xml version="1.0" encoding="UTF-8"?><svg id="OBJECTS" xmlns="http://www.w3.org/2000/svg" viewBox="0 0 1315.53 1171.69"><defs><style>.cls-1{fill:#fff;}.cls-2{fill:#3a6bea;}.cls-3{fill:#e49b31;}.cls-4{fill:#1f3c88;}.cls-5{opacity:.8;}.cls-6{fill:#eb5d60;isolation:isolate;opacity:.4;}.cls-7{fill:#f7f0e3;}.cls-8{fill:#e28b6d;}.cls-9{fill:#102048;}.cls-10{fill:#fbc343;}.cls-11{fill:#d3dfff;}.cls-12{fill:#f9b384;}</style></defs><path class="cls-7" d="m1292.7,843.43c-21.85-49.58-63.82-90.96-114.24-111.32-52.51-21.21-112.8-13.49-168.11-20.59-48.04-6.17-82.69-27.56-111.38-65.59-27.48-36.44-52.12-76.8-97.05-93.66-35.5-13.32-75.87-9.62-111.16,4.25-65.02,25.58-114.14,79.95-155.5,134.13-37.77,49.46-68.57,103.62-138.42,105.39-69.9,1.76-136.44-38-206.81-27.47-93.01,13.93-170.48,91.17-186.71,183.11-15.21,86.17,22.96,169.76,88.54,218.86h1127.23c82.64-87.45,125.99-208.25,73.61-327.12Z"/><path class="cls-1" d="m273.7,1170.56h3.1c21.53-23.61,38.41-52.26,49.12-84.06,17.35-51.47,16.63-105.49-2.06-152.11-9.44-23.56-23.08-45.51-36.27-66.75-13.37-21.54-27.2-43.8-36.59-67.66-3.88-9.87-6.75-20.46-8.47-31.27-.78-.1-1.56-.18-2.33-.28,1.73,11.2,4.68,22.17,8.7,32.37,9.46,24.05,23.35,46.41,36.78,68.02,13.14,21.15,26.72,43.03,36.09,66.4,18.49,46.12,19.2,99.59,2.01,150.55-10.85,32.2-28.08,61.11-50.08,84.78h0Z"/><path class="cls-1" d="m1213.65,1072.49c23.23,4.94,45.61,9.36,67.25,12.15.37-.71.73-1.43,1.09-2.15-21.82-2.77-44.42-7.22-67.88-12.22-35.72-7.59-74.38-15.81-112.74-15.81-23.75,0-47.37,3.15-70.09,11.55-8.6,3.18-16.9,7.22-24.81,12.03-20.52-8.72-41.15-18.24-61.57-28.7,14.82-11.14,29.81-22.05,44.95-32.59,112.41-78.3,216.16-122.69,316.38-135.29-.2-.73-.41-1.46-.62-2.2-100.5,12.7-204.46,57.21-317.05,135.63-15.47,10.77-30.77,21.92-45.9,33.3-22.98-11.84-45.68-24.85-67.66-39.22-39.86-26.05-87.26-63.23-128.66-112.64,160.44-17.95,323.78-40.57,457.18-129.51,5.07-3.37,10.68-7.36,16.49-11.87-.64-.45-1.3-.91-1.94-1.36-5.57,4.31-10.94,8.1-15.8,11.35-133.36,88.91-297.01,111.35-457.65,129.31-29.26-35.3-55.4-76.76-73.56-124.76-28.3-74.77-26.8-148.14,4.1-201.31,1.34-2.3,2.76-4.58,4.21-6.83-1.29.59-2.56,1.2-3.84,1.82-.8,1.28-1.58,2.58-2.33,3.88-31.24,53.76-32.8,127.83-4.26,203.24,18.07,47.74,43.98,89.03,72.99,124.26-9.3,1.04-18.61,2.06-27.87,3.08-33.45,3.68-68.05,7.49-101.63,11.8-12.26,1.57-24.73,3.41-37.14,5.72-26.59-56-55.81-110.61-93.57-157.46-.54.53-1.09,1.06-1.63,1.59,37.44,46.49,66.47,100.71,92.91,156.31-54.11,10.29-106.65,29.65-134.71,74.69-26.2,42.07-26.18,100.21.07,172.82.91,2.51,1.84,4.98,2.79,7.44h2.43c-1.04-2.69-2.07-5.41-3.08-8.21-26-71.93-26.1-129.42-.28-170.87,27.72-44.51,79.98-63.6,133.79-73.77,9.39,19.81,18.46,39.78,27.47,59.64l.98,2.16c31.31,68.94,63.69,135.46,106.08,191.05h2.83c-42.78-55.7-75.34-122.61-106.85-191.98l-.98-2.16c-8.94-19.68-17.94-39.49-27.24-59.13,12.17-2.24,24.4-4.04,36.42-5.58,33.57-4.31,68.15-8.12,101.59-11.8,9.77-1.08,19.56-2.15,29.35-3.25,41.8,50.18,89.81,87.87,130.12,114.22,21.73,14.21,44.18,27.1,66.9,38.84-38.56,29.09-76.06,59.7-112.68,89.58-12.68,10.35-25.51,20.8-38.44,31.26h3.59c12.2-9.87,24.3-19.74,36.28-29.5,36.88-30.09,74.65-60.92,113.48-90.18,20.32,10.43,40.83,19.93,61.24,28.64-27.92,17.71-50.67,45.14-64.43,78.44-1.72,4.17-3.23,8.38-4.62,12.61h2.38c1.31-3.93,2.72-7.86,4.32-11.75,13.79-33.39,36.74-60.8,64.87-78.22,57.05,24.17,113.11,42.12,161.3,56.34l1.81.53c20.3,5.99,41.07,12.13,59.43,21.98.52-.59,1.03-1.17,1.54-1.76-18.67-10.1-39.73-16.32-60.33-22.39l-1.81-.53c-47.69-14.07-103.11-31.8-159.54-55.61,7.35-4.37,15.05-8.05,23.01-11,58.81-21.74,124.03-7.88,181.57,4.35h-.04Z"/><path class="cls-1" d="m97.55,926.04c10.01,40.88,5.55,85.03-12.26,121.12-11.66,23.64-28.5,45.05-49.23,63.43.41.64.83,1.28,1.25,1.91,21.07-18.62,38.18-40.34,50.01-64.34,18.03-36.57,22.56-81.27,12.42-122.66-7.92-32.33-23.84-59.72-45.84-79.54-.49.58-.98,1.16-1.46,1.74,21.63,19.51,37.29,46.49,45.1,78.34h0Z"/><path class="cls-7" d="m610.58,408.19c19.75,20.12,28.6,54.04,17.71,85.3-10.55,30.27-33.66,55.34-61.42,71.47-22.34,12.97-51.48,20.13-73.45,6.54-16.42-10.15-24.94-30.06-25.41-49.32-.47-19.26,6.02-38.03,14.04-55.56,11.32-24.7,26.54-48.66,49.23-63.68,31.26-20.71,60.31-14.09,79.3,5.26Z"/><path class="cls-3" d="m1279.18,202.6c-10.59-35.12-29.21-67.36-55.87-96.84-26.71-29.48-63.14-53.81-109.3-73.06-46.15-19.25-104.79-28.87-175.91-28.87-56.74,0-114.56,7.63-173.47,22.9-58.97,15.32-110.11,37.11-153.49,65.43l56.47,154.64-30.27,24.46,43.89,12.87c43.32-22.62,82.8-39.04,118.41-49.27,35.56-10.17,73.35-15.27,113.42-15.27s70.31,9.62,90.89,28.87c20.57,19.3,30.84,42.47,30.84,69.69,0,32.85-10.59,62-31.65,87.5-21.17,25.49-44.52,51.26-70.1,77.31-17.75,18.09-35.01,36.77-51.69,56.02-16.66,19.3-31.43,39.93-44.19,62.05-12.81,22.07-23.08,45.85-30.84,71.34-7.82,25.5-11.67,54.09-11.67,85.78,0,10.23.22,22.39.82,36.56.1,2.61.24,5.16.39,7.67h-41.49l45.28,30.54h220.17c-1.14-6.8-1.69-14.71-1.69-23.78v-20.41c0-19.25,3.91-38.21,11.67-56.91,7.76-18.69,17.54-36.5,29.22-53.53,11.67-16.98,24.71-33.13,39.19-48.39,14.44-15.32,28.34-29.76,41.7-43.36,17.75-18.09,36.1-37.33,55-57.74,18.89-20.41,35.61-41.87,50.06-64.54,14.44-22.68,26.39-47.29,35.83-73.94,9.45-26.6,14.23-55.75,14.23-87.49s-5.32-65.09-15.86-100.21v-.02Z"/><path class="cls-10" d="m866.47,208.79c-39.6,0-76.94,4.92-112.09,14.77-35.2,9.9-74.2,25.79-117.03,47.69l-69.27-185.78c42.87-27.4,93.42-48.5,151.69-63.32C777.99,7.39,835.14,0,891.21,0c70.29,0,128.25,9.32,173.85,27.94,45.6,18.62,81.61,42.17,108.01,70.7,26.35,28.53,44.75,59.73,55.21,93.72,10.41,33.99,15.67,66.31,15.67,96.98s-4.73,58.93-14.05,84.67c-9.34,25.79-21.14,49.62-35.42,71.56-14.27,21.94-30.8,42.71-49.47,62.46-18.67,19.75-36.81,38.37-54.36,55.88-13.2,13.17-26.94,27.13-41.21,41.97-14.33,14.77-27.2,30.4-38.74,46.83-11.53,16.49-21.2,33.72-28.87,51.81-7.67,18.09-11.53,36.45-11.53,55.07v19.75c0,8.78.53,16.43,1.66,23.02h-217.58c-2.26-10.97-3.59-23.28-4.13-36.98-.59-13.7-.81-25.48-.81-35.38,0-30.67,3.81-58.34,11.53-83.02,7.67-24.67,17.82-47.69,30.48-69.04,12.61-21.41,27.2-41.37,43.67-60.05,16.47-18.62,33.54-36.72,51.09-54.22,25.27-25.21,48.34-50.15,69.27-74.82,20.82-24.67,31.28-52.88,31.28-84.67,0-26.34-10.14-48.76-30.48-67.43-20.34-18.62-50.28-27.94-89.82-27.94h0Z"/><path class="cls-3" d="m1034.89,1046.08c0,39.6-12.85,70.15-38.55,91.7-25.7,21.6-54.75,32.35-87.18,32.35s-61.52-10.75-87.22-32.35c-25.66-21.55-38.51-52.11-38.51-91.7s12.85-70.1,38.51-91.7c39.56-33.3,98.09-40.72,144.4-17.35,41.1,20.74,68.55,62.86,68.55,109.05Z"/><path class="cls-10" d="m991.82,1046.08c0,39.6-12.85,70.15-38.55,91.7-25.69,21.6-54.74,32.35-87.18,32.35s-61.52-10.75-87.22-32.35c-25.66-21.55-38.51-52.11-38.51-91.7s12.85-70.1,38.51-91.7c25.69-21.55,54.74-32.35,87.22-32.35s61.47,10.8,87.18,32.35c25.7,21.6,38.55,52.15,38.55,91.7Z"/><path class="cls-11" d="m340.06,484.8c2.41-12.84-6.06-25.2-18.93-27.6-12.87-2.41-25.26,6.05-27.67,18.89-2.41,12.84,6.06,25.2,18.94,27.6,12.87,2.41,25.26-6.05,27.67-18.89Z"/><path class="cls-11" d="m351.34,529.15c1.36-7.22-3.45-14.18-10.74-15.54-7.29-1.36-14.3,3.39-15.65,10.61-1.35,7.22,3.45,14.18,10.74,15.54,7.29,1.36,14.3-3.39,15.65-10.61Z"/><path class="cls-11" d="m324.24,427.17c36.46-36.37,36.46-95.33,0-131.69-36.46-36.37-95.56-36.37-132.02,0-36.46,36.36-36.46,95.33,0,131.69,36.46,36.36,95.57,36.36,132.02,0Z"/><path class="cls-1" d="m222.38,373.05c6.5,0,11.76-5.25,11.76-11.73s-5.26-11.73-11.76-11.73-11.76,5.25-11.76,11.73,5.26,11.73,11.76,11.73Z"/><path class="cls-1" d="m258.23,373.05c6.49,0,11.76-5.25,11.76-11.73s-5.26-11.73-11.76-11.73-11.76,5.25-11.76,11.73,5.27,11.73,11.76,11.73Z"/><path class="cls-1" d="m294.07,373.05c6.5,0,11.76-5.25,11.76-11.73s-5.26-11.73-11.76-11.73-11.76,5.25-11.76,11.73,5.26,11.73,11.76,11.73Z"/><path class="cls-9" d="m191.35,1123.51l8.72,33.55c2.28,8.74,10.75,14.66,20.14,14.02,28.6-1.94,88.02-8.93,122.13-34.01l-9.69-48.34c-46.89-2.64-90.74-.04-128.72,12.71-9.51,3.19-15.01,12.7-12.57,22.07h0Z"/><path class="cls-1" d="m246.01,1150.21c-.5,0-.95-.32-1.09-.82l-11.71-41.83c-.17-.6.18-1.22.79-1.39.61-.16,1.23.18,1.4.79l11.71,41.83c.17.6-.18,1.22-.79,1.39-.1.03-.21.04-.31.04h0Z"/><path class="cls-1" d="m271.32,1144.56c-.5,0-.95-.32-1.09-.82l-11.71-41.83c-.17-.6.18-1.22.79-1.39.61-.17,1.23.18,1.4.79l11.71,41.83c.17.61-.18,1.22-.79,1.39-.1.03-.21.04-.31.04h0Z"/><path class="cls-10" d="m300.72,942.19l-108.99,32.27,80.93,110.62,116.2,9.23,160.28-67.61-60.9-91.42-187.52,6.91Z"/><path class="cls-10" d="m435.08,957.56c239.35-70.67,277.81,140.33-95.63,178.74-13.19-14.8-28.61-40.49-34.73-61.97l197.21-90.9-66.85-25.87Z"/><path class="cls-12" d="m445.25,1108.79c-11.2-3.57-21.93-10.64-21.93-10.64l-38.46,12.04,8.81,41.74,39.96,8.1c12.18-22.21,12.89-40.45,11.62-51.24Z"/><path class="cls-3" d="m305.58,1075.79l-1.7-2.93c41.14-23.85,146.52-81.15,236.31-98.05l.63,3.34c-89.26,16.81-194.24,73.88-235.23,97.64h-.01Z"/><path class="cls-10" d="m300.72,942.19c-222.79-42.25-280.49,171.32,92.96,209.73,13.19-14.8,23.53-32.3,29.65-53.78-57.37-38.29-121.5-74.68-191.79-109.35l69.19-46.61h0Z"/><path class="cls-3" d="m422.42,1099.57c-10.6-6.73-21.64-13.84-33.33-21.37-58.69-37.8-125.21-80.64-181.72-105.07l1.35-3.11c56.77,24.54,123.41,67.46,182.21,105.33,11.69,7.52,22.72,14.63,33.31,21.36l-1.82,2.86Z"/><path class="cls-3" d="m137.26,1048.08l-2.97-1.64c8.36-15.1,21.76-25.29,39.81-30.27l.91,3.26c-17.38,4.8-29.73,14.17-37.75,28.64Z"/><path class="cls-3" d="m602.25,1035.23c-8.02-14.47-20.36-23.84-37.75-28.65l.91-3.26c18.05,4.98,31.45,15.18,39.81,30.27l-2.97,1.64Z"/><path class="cls-3" d="m372.82,1150.05l-2.48-2.31c17.82-19.04,28.77-39.14,33.47-61.45l3.33.69c-4.82,22.93-16.05,43.56-34.3,63.07h0Z"/><path class="cls-9" d="m556.36,1096.35c-28.55-17.59-83.88,12.81-97.77,14.35-4.05.45-8.73-.44-13.34-1.91,1.27,10.79.56,29.02-11.62,51.24l6.79,1.38s46.92,17.16,96.7,7.17c45.94-9.22,41.67-58.38,19.23-72.21h0Z"/><path class="cls-1" d="m517.46,1153.89c-.11,0-.23-.02-.35-.05-.6-.19-.92-.82-.74-1.42,3.39-10.71,4.87-31.78-4.95-45.94-.35-.52-.23-1.22.29-1.58.52-.35,1.22-.22,1.58.29,10.28,14.82,8.78,36.77,5.25,47.9-.16.48-.6.79-1.08.79h0Z"/><path class="cls-1" d="m495.07,1158.12c-.11,0-.23-.02-.35-.06-.6-.19-.92-.82-.74-1.42,3.39-10.71,4.87-31.78-4.95-45.94-.35-.52-.23-1.22.29-1.58.52-.35,1.22-.22,1.58.29,10.28,14.82,8.78,36.77,5.25,47.9-.16.48-.6.79-1.08.79h0Z"/><path class="cls-12" d="m261.31,666.83s56.11-47.59,54.03-56.64c-1.49-6.47-17.38,3.01-17.38,3.01,0,0,22.29-26.38,21.15-29.58-2.02-5.72-17.45,4.95-17.45,4.95,0,0,10.42-14.96,5.44-17.4-4.98-2.44-15.84,6.78-15.84,6.78,0,0,6.35-8.3,3.36-10.48-2.98-2.18-15.84,6.79-15.84,6.79,0,0,4.62-10.47-5.19-6.5-9.8,3.97-78.55,66.9-78.55,66.9l66.25,32.18Z"/><path class="cls-8" d="m284.26,610.38c-.27,0-.54-.1-.76-.3-9.63-8.77-13.88-10.91-24.5-14.17-.6-.18-.93-.81-.75-1.41s.82-.93,1.41-.75c11.01,3.37,15.4,5.58,25.37,14.66.46.42.5,1.14.07,1.6-.23.24-.53.37-.83.37h0Z"/><path class="cls-8" d="m267.35,636.19c-.05,0-.11,0-.15,0-.62-.09-1.05-.66-.96-1.27,1.11-7.87,3.59-12.79,7.59-15.03,3.43-1.92,7.88-1.73,13.25.59.57.24.84.91.59,1.48-.24.57-.92.84-1.49.59-4.68-2.02-8.46-2.25-11.23-.69-3.3,1.85-5.48,6.35-6.46,13.38-.08.56-.56.98-1.12.98h0Z"/><path class="cls-8" d="m264.71,588.62c-.3,0-.6-.12-.83-.35-.43-.45-.41-1.17.05-1.6l14.08-13.23c.45-.43,1.17-.41,1.6.04.43.45.41,1.17-.05,1.6l-14.08,13.23c-.22.21-.5.31-.78.31Z"/><path class="cls-8" d="m277.74,593.14c-.28,0-.56-.11-.79-.32-.45-.43-.46-1.15-.04-1.6l13.53-14.06c.44-.45,1.15-.47,1.6-.04.45.43.46,1.15.04,1.6l-13.53,14.05c-.23.23-.52.34-.82.34h0Z"/><path class="cls-8" d="m291.06,601.05c-.28,0-.55-.1-.77-.31-.45-.42-.48-1.14-.05-1.6l10.61-11.35c.43-.45,1.14-.48,1.61-.05.45.42.48,1.14.05,1.6l-10.61,11.35c-.23.24-.53.36-.83.36Z"/><path class="cls-2" d="m473.25,985.15l-205.14,7.91-22.67-186.54s68.67-64.97,95.1-88.91l44.61-2.28c138.39,62.75,115.73,141.12,88.1,269.81Z"/><path class="cls-2" d="m385.14,715.34s158.33,13.51,208.24,121.71c48.85,105.88-151.87,143.58-151.87,143.58l-56.37-265.29Z"/><path class="cls-2" d="m204.16,738.52l65.43-79.42-61.18-36.98c-25.52,17.7-74.88,57.79-116.7,103.19-9.23,10.02-16.45,21.72-20.07,34.61-3.1,11-3.66,21.86-1.92,32.5,4.54,27.73,26.4,49.12,55.59,52.53,24.93,2.91,120.14-4.52,197.21-27.13l22.67-87.27c-11.65-6.59-98.21-7.74-141.01,7.97Z"/><g class="cls-5"><path class="cls-1" d="m517.28,758.27c.34-.08.68-.15,1.02-.23-.72-.42-1.43-.83-2.15-1.25-11.61,2.67-23.58,5.39-35.38,6.81-7.09.85-30.79,2.42-37.71-13.33-3.44-7.83-.83-16.55,3.06-22.66-.57-.16-1.13-.33-1.7-.49-3.99,6.48-6.55,15.57-2.92,23.83,7.39,16.82,32.09,15.23,39.48,14.33,12.14-1.46,24.43-4.28,36.3-7.01Z"/><path class="cls-1" d="m591.16,880.32c-7.56-2.91-15.38-5.93-23.59-5.16-14.41,1.36-26.74,15.58-27.49,31.68-.51,10.99,3.7,22.5,11.71,32.62.48-.3.96-.61,1.44-.91-7.84-9.84-11.96-21.01-11.46-31.64.71-15.3,12.35-28.8,25.95-30.07,7.81-.73,15.11,2.08,22.82,5.05,2.75,1.06,5.56,2.13,8.4,3.04.15-.54.29-1.09.42-1.65-2.77-.89-5.51-1.93-8.22-2.98h0Z"/><path class="cls-1" d="m191.53,826.38c-9.88-8.16-25.24-10.34-42.13-5.98-15.05,3.88-27.96,11.58-36.83,21.75.58.19,1.15.4,1.74.57,8.63-9.66,21.06-16.96,35.52-20.68,16.35-4.22,31.16-2.16,40.62,5.64,4.5,3.71,7.68,8.53,9.99,13.72.58-.06,1.17-.14,1.76-.2-2.42-5.59-5.79-10.81-10.66-14.83h0Z"/><path class="cls-1" d="m102.18,714.22c18.52-4.59,36.59-11.04,53.27-20.62,6.3-3.62,13.41-8.23,18.42-15,5.32-7.21,7.09-15.79,4.73-22.95-.92-2.81-2.57-5.28-4.62-7.25-.44.35-.87.71-1.31,1.07,1.91,1.82,3.45,4.11,4.31,6.72,2.19,6.65.52,14.65-4.48,21.42-4.81,6.52-11.75,11.02-17.9,14.54-15.72,9.03-32.73,15.29-50.2,19.8-.74.76-1.48,1.53-2.21,2.29h0Z"/></g><path class="cls-12" d="m399.63,673.86l-.03,2.89-.46,44.98-.06,4.88c-.08,7.62-3.22,14.53-8.28,19.55-5.04,4.98-11.96,8.11-19.63,8.17-15.46.08-28.11-12.3-28.25-27.75l-.55-55.59,57.25,2.87Z"/><path class="cls-9" d="m399.6,676.75l-.46,44.98c-25.06-10.18-35.38-37.24-35.38-37.24l35.83-7.74h0Z"/><path class="cls-12" d="m409.52,598.27c8.98,10.75,35.21,71.67,8.62,92.45-29.91,23.39-75.44-15.05-75.44-15.05l-6.11-70.95,39.52-10.39,33.41,3.94Z"/><path class="cls-9" d="m316.47,594.36s-87.65,45.6-16.19,177.04c9.18,16.88,29.51,24.25,46.9,16.02,18.66-8.84,25.72-31.57,15.59-49.53-11.69-20.71-22.97-47.39-18.15-67.24l-28.15-76.29h0Z"/><path class="cls-10" d="m341.52,632.67c9.26-9.23,9.26-24.21,0-33.45-9.26-9.23-24.27-9.23-33.53,0-9.26,9.24-9.26,24.21,0,33.45,9.26,9.24,24.27,9.24,33.53,0Z"/><path class="cls-9" d="m353.91,644.36c-2.57-14.75-4.13-24.87,10.83-32.48,0,0,52.69,9.56,62.74-10.28,10.06-19.82-5.27-51.12-37.36-29.38-82.15-16.01-93.16,60.68-68.26,86.24l24.58-3.76c4.95-.76,8.31-5.43,7.46-10.35h0Z"/><path class="cls-9" d="m394.71,647.89c1.93,0,3.5-1.56,3.5-3.49s-1.57-3.49-3.5-3.49-3.5,1.56-3.5,3.49,1.57,3.49,3.5,3.49Z"/><path class="cls-9" d="m418.41,636.24c1.93,0,3.5-1.56,3.5-3.49s-1.57-3.49-3.5-3.49-3.5,1.56-3.5,3.49,1.57,3.49,3.5,3.49Z"/><path class="cls-9" d="m415.99,655.16c-.24,0-.49-.09-.68-.27-.4-.38-.42-1-.04-1.4,1.4-1.47,2.95-3.54,2.29-5.06-.67-1.56-3.51-2.23-4.81-2.23-2.79,0-4.13-4.96-4.38-5.95-.13-.53.2-1.07.73-1.2.53-.13,1.07.2,1.2.73.51,2.1,1.67,4.44,2.45,4.44,1.34,0,5.43.63,6.64,3.44.86,2-.04,4.42-2.68,7.2-.19.21-.45.31-.72.31h0Z"/><path class="cls-9" d="m416.17,668.42c-.19,0-.38-.06-.55-.17-6.59-4.44-13.26-.72-13.32-.68-.47.27-1.08.11-1.35-.36-.27-.47-.11-1.08.36-1.35.32-.18,7.81-4.37,15.42.75.45.31.57.92.26,1.38-.19.28-.51.43-.83.43Z"/><path class="cls-9" d="m393.17,629.27c2,3.74-1.48,4.49-5.55,6.65s-8.23,2.95-9.18,1.16c-.95-1.78,1.58-4.97,5.65-7.13,4.07-2.16,7.54-3.57,9.08-.68h0Z"/><path class="cls-9" d="m408.01,622.52c.88,3.34,3.37,1.88,7,.93,3.63-.95,6.56-2.77,6.15-4.36-.42-1.59-3.7-2.12-7.33-1.17-3.64.95-6.5,2.02-5.82,4.6h0Z"/><path class="cls-6" d="m385.56,668.22c4.19-3.86,4.46-10.37.59-14.56-3.87-4.18-10.4-4.44-14.59-.59-4.19,3.86-4.46,10.38-.59,14.56,3.87,4.18,10.4,4.44,14.59.59Z"/><path class="cls-12" d="m351.9,670.46c4.72-6.1,2.91-15.38-4.03-20.73-6.95-5.35-16.41-4.74-21.13,1.36-4.72,6.1-2.91,15.39,4.03,20.74,6.95,5.35,16.41,4.74,21.13-1.36Z"/><path class="cls-9" d="m345.47,665.91c-.55,0-.99-.44-.99-.99,0-2.92-1.42-5.62-3.82-7.23-2.04-1.37-4.48-1.69-6.52-.87-.51.2-1.09-.04-1.3-.54-.21-.5.04-1.08.55-1.29,2.65-1.07,5.78-.69,8.37,1.06,2.94,1.97,4.7,5.28,4.7,8.86,0,.54-.45.99-.99.99h0Z"/><path class="cls-9" d="m203.35,737.74l-35.78,38.61,1.66,1.53,35.78-38.61-1.66-1.53Z"/><path class="cls-9" d="m455.45,903.71l-.66-2.16c26.05-7.92,51.34-17.39,74.25-45.97l1.77,1.41c-23.32,29.09-48.95,38.7-75.35,46.73h0Z"/><path class="cls-11" d="m471.29,816.15h-221.62c-7.97,0-14.43,6.97-14.43,15.57v157.83c0,8.6,6.46,15.57,14.43,15.57h221.62c7.97,0,14.44-6.97,14.44-15.57v-157.83c0-8.6-6.47-15.57-14.44-15.57Z"/><path class="cls-4" d="m372.18,900.66c.84,0,1.52.73,1.52,1.65v16.66c0,.9-.68,1.64-1.52,1.64h-23.4c-.84,0-1.52-.73-1.52-1.64v-16.66c0-.9.68-1.65,1.52-1.65h23.4Zm0-4.52h-23.4c-3.34,0-6.06,2.77-6.06,6.17v16.66c0,3.4,2.72,6.17,6.06,6.17h23.4c3.34,0,6.06-2.77,6.06-6.17v-16.66c0-3.4-2.72-6.17-6.06-6.17Z"/></svg>