<?xml version="1.0" encoding="UTF-8"?><svg id="OBJECTS" xmlns="http://www.w3.org/2000/svg" xmlns:xlink="http://www.w3.org/1999/xlink" viewBox="0 0 1138.16 922.9"><defs><style>.cls-1{fill:#fff;}.cls-2{fill:#f0c64b;}.cls-3{fill:#0c0c5b;}.cls-4{fill:#f5f5ff;}.cls-5{fill:#1c1c84;}.cls-6{fill:#d5cbfb;}.cls-7{fill:#2525ad;}.cls-8{stroke:#7b70ee;stroke-width:2.15px;}.cls-8,.cls-9{stroke-miterlimit:10;}.cls-8,.cls-9,.cls-10{fill:none;}.cls-9{stroke:#2525ad;stroke-width:1.9px;}.cls-11{fill:#f4e7bd;}.cls-12{fill:#d8a32b;}.cls-13{fill:#7b70ee;}.cls-14{clip-path:url(#clippath);}.cls-15{fill:#fff6dc;}</style><clipPath id="clippath"><rect class="cls-10" width="1138.16" height="922.9"/></clipPath></defs><g class="cls-14"><path class="cls-4" d="m40.08,481.72c53.39,60.48,121,83.99,154.34,157.49,22.84,50.39,12.13,110.03,29.03,162.71,23.13,72.22,99.18,120.71,174.97,120.98,75.79.26,148.02-42.7,192.99-103.73,14.74-20.01,27.53-42.52,48.21-56.32,29.6-19.77,68.02-17.22,103.47-20.38,87.42-7.79,170.26-56.9,219.07-129.88,0,0,126.63-149.49,37-363.35-26.05-62.16-68.29-119.24-126.55-153.12-58.23-33.88-159.6-34.67-219.57-3.98-63.76,32.65-106.16,104.23-176.05,119.95-40.5,9.11-82.34-2.74-123.13-10.48-57.24-10.87-115.55-17.61-173.34-10.27-68,8.64-136.6,42.76-168.34,119.45-11.11,26.85-14.84,56.34-10.42,85.07,3.97,25.77,14,58.39,38.26,85.88l.05-.03Z"/><path class="cls-4" d="m565.62,40.02c-14.71-18.46-37.6-28.54-60.5-34.23-31.6-7.85-65.58-8.42-96.23,2.53-30.66,10.98-57.53,34.36-68.84,64.9-11.31,30.54-5.08,67.9,18.37,90.49,13.13,12.66,31.6,19.46,49.74,19.43,10.76,1.16,21.76-.05,31.87-3.95,22.5-8.66,39.02-28.36,60.6-39.12,23.45-11.69,53.6-13.56,69.47-34.44,14.29-18.77,10.21-47.13-4.5-65.58l.02-.03Z"/><path class="cls-4" d="m142.84,694.35c-2.45-5.03-4.74-10.11-6.21-15.48-4.76-17.22-1.32-36.86-10.55-52.15-11.61-19.19-40.18-22.69-59.63-11.53-19.45,11.19-30.58,33.04-35.32,54.97-2.92,13.51-3.76,27.88.84,40.91,5.37,15.14,17.6,26.91,30.95,35.86,14.84,9.95,32.16,17.25,50,16.64,7.95-.26,15.95-2.37,23.03-6.08,5.58-2.42,10.53-6.16,13.92-11.03,2.47-2.92,4.55-6.19,6.08-9.77,6.34-14.93.63-34.57-13.13-42.36l.03.03Z"/><path class="cls-13" d="m846.06,316.36H288.84c-5.25,0-9.5,4.26-9.5,9.5v357.72c0,5.25,4.25,9.5,9.5,9.5h557.23c5.25,0,9.5-4.26,9.5-9.5v-357.72c0-5.25-4.25-9.5-9.5-9.5Z"/><path class="cls-6" d="m841.3,343.76H293.6v312.8h547.7v-312.8Z"/><path class="cls-6" d="m570.88,328.94c0,1.9-1.55,3.45-3.45,3.45s-3.45-1.55-3.45-3.45,1.55-3.45,3.45-3.45,3.45,1.55,3.45,3.45Z"/><path class="cls-6" d="m933.11,816.01l-70.79-112.71c-4-6.37-10.97-10.22-18.47-10.22H291.05c-7.5,0-14.5,3.87-18.48,10.22l-70.79,112.71c-2,3.18-2.71,6.97-2.08,10.63h735.48c.63-3.66-.08-7.45-2.08-10.63Z"/><path class="cls-13" d="m199.71,826.65c.13.76.29,1.5.55,2.24l1.11,3.34c2.08,6.22,7.87,10.4,14.39,10.4h703.38c6.53,0,12.34-4.18,14.42-10.4l1.11-3.34c.24-.74.42-1.5.55-2.24H199.71Z"/><path class="cls-13" d="m317.68,748.69l3.45-7.58h-17.05l-3.66,7.58h17.26Z"/><path class="cls-13" d="m347.73,727.1l1.68-3.95,1.55-3.63h-16.5l-3.45,7.58h16.71Z"/><path class="cls-13" d="m324.65,741.11l-3.45,7.58h17.29l3.24-7.58h-17.08Z"/><path class="cls-13" d="m322.57,737.89l3.45-7.58h-16.76l-3.63,7.58h16.95Z"/><path class="cls-13" d="m669.83,719.51l1.9,7.58h14.68l-2.13-7.58h-14.45Z"/><path class="cls-13" d="m406.67,741.11l-2.31,7.58h17.45l2.21-7.58h-17.34Z"/><path class="cls-13" d="m386.28,741.11l-2.71,7.58h17.45l2.32-7.58h-17.05Z"/><path class="cls-13" d="m365.81,741.11l-3.03,7.58h17.37l2.74-7.58h-17.08Z"/><path class="cls-13" d="m345.23,741.11l-3.24,7.58h17.31l3.05-7.58h-17.13Z"/><path class="cls-13" d="m687.62,719.51l2.11,7.58h13.71l-2.21-7.58h-13.61Z"/><path class="cls-13" d="m465.65,730.31l-1.9,7.58h13.79l1.71-7.58h-13.6Z"/><path class="cls-13" d="m615.25,719.51l1.29,7.58h15.92l-1.5-7.58h-15.71Z"/><path class="cls-13" d="m463.15,727.1l1.92-7.58h-14.47l-2.11,7.58h14.66Z"/><path class="cls-13" d="m445.15,727.1l2.11-7.58h-13.58l-2.21,7.58h13.69Z"/><path class="cls-13" d="m479.96,727.1l1.71-7.58h-13.32l-1.9,7.58h13.5Z"/><path class="cls-13" d="m704.56,719.51l2.21,7.58h17.13l-2.31-7.58h-17.03Z"/><path class="cls-13" d="m394.07,719.51l-2.74,7.58h16.29l1.19-3.92,1.13-3.66h-15.87Z"/><path class="cls-13" d="m387.91,727.1l2.74-7.58h-16.21l-3.03,7.58h16.5Z"/><path class="cls-13" d="m354.46,719.51l-3.26,7.58h16.76l1.58-3.95,1.45-3.63h-16.53Z"/><path class="cls-13" d="m653.22,719.51l1.71,7.58h13.5l-1.92-7.58h-13.29Z"/><path class="cls-13" d="m634.25,719.51l1.47,7.58h15.92l-1.71-7.58h-15.68Z"/><path class="cls-13" d="m428.12,727.1l2.21-7.58h-17.05l-2.32,7.58h17.16Z"/><path class="cls-13" d="m448.15,716.3l1.97-7.05h-13.45l-2.08,7.05h13.55Z"/><path class="cls-13" d="m431.25,716.3l2.08-7.05h-16.92l-2.16,7.05h17Z"/><path class="cls-13" d="m596.51,719.51l.89,7.58h15.89l-1.29-7.58h-15.5Z"/><path class="cls-13" d="m501.28,716.3l1.4-7.05h-15.42l-1.58,7.05h15.61Z"/><path class="cls-13" d="m482.38,716.3l1.58-7.05h-13l-1.79,7.05h13.21Z"/><path class="cls-13" d="m465.86,716.3l1.79-7.05h-14.18l-1.97,7.05h14.37Z"/><path class="cls-13" d="m783.93,719.51l3.24,7.58h16.71l-3.45-7.58h-16.5Z"/><path class="cls-13" d="m352.33,716.3l3.03-7.05h-16.24l-3.21,7.05h16.42Z"/><path class="cls-13" d="m372.28,716.3l2.82-7.05h-16.26l-3,7.05h16.45Z"/><path class="cls-13" d="m410.91,716.3l2.16-7.05h-15.32l-2.55,7.05h15.71Z"/><path class="cls-13" d="m803.96,719.51l3.45,7.58h16.66l-3.63-7.58h-16.47Z"/><path class="cls-13" d="m391.81,716.3l2.53-7.05h-15.76l-2.84,7.05h16.08Z"/><path class="cls-13" d="m724.96,719.51l2.32,7.58h16.29l-2.74-7.58h-15.87Z"/><path class="cls-13" d="m499.65,741.11l-1.5,7.58h16.5l1.29-7.58h-16.29Z"/><path class="cls-13" d="m427.36,741.11l-2.21,7.58h14l2.11-7.58h-13.9Z"/><path class="cls-13" d="m480.1,741.11l-1.68,7.58h16.47l1.5-7.58h-16.29Z"/><path class="cls-13" d="m444.59,741.11l-2.13,7.58h15.26l1.9-7.58h-15.03Z"/><path class="cls-13" d="m462.94,741.11l-1.89,7.58h14.08l1.68-7.58h-13.87Z"/><path class="cls-13" d="m522.88,719.51l-1.29,7.58h15.89l.87-7.58h-15.47Z"/><path class="cls-13" d="m520.17,716.3l1.21-7.05h-15.45l-1.4,7.05h15.63Z"/><path class="cls-13" d="m501.78,730.31l-1.5,7.58h16.21l1.29-7.58h-16Z"/><path class="cls-13" d="m763.91,719.51l3.03,7.58h16.74l-3.24-7.58h-16.53Z"/><path class="cls-13" d="m536.22,737.89l.87-7.58h-16.05l-1.29,7.58h16.47Z"/><path class="cls-13" d="m744.25,719.51l2.71,7.58h16.5l-3.03-7.58h-16.18Z"/><path class="cls-13" d="m327.49,727.1l3.45-7.58h-16.47l-3.66,7.58h16.68Z"/><path class="cls-13" d="m692.41,748.69l-2.11-7.58h-15.05l1.92,7.58h15.24Z"/><path class="cls-13" d="m447.6,730.31l-2.11,7.58h14.95l1.9-7.58h-14.74Z"/><path class="cls-13" d="m720.62,716.3l-2.16-7.05h-16.89l2.05,7.05h17Z"/><path class="cls-13" d="m759.14,716.3l-2.82-7.05h-15.79l2.55,7.05h16.05Z"/><path class="cls-13" d="m739.67,716.3l-2.53-7.05h-15.32l2.16,7.05h15.68Z"/><path class="cls-13" d="m649.2,716.3l-1.58-7.05h-15.39l1.37,7.05h15.61Z"/><path class="cls-13" d="m630.33,716.3l-1.39-7.05h-15.42l1.21,7.05h15.61Z"/><path class="cls-13" d="m779.06,716.3l-3.03-7.05h-16.26l2.84,7.05h16.45Z"/><path class="cls-13" d="m683.38,716.3l-1.95-7.05h-14.18l1.76,7.05h14.37Z"/><path class="cls-13" d="m665.7,716.3l-1.76-7.05h-13.03l1.58,7.05h13.21Z"/><path class="cls-13" d="m673.85,748.69l-1.92-7.58h-13.87l1.71,7.58h14.08Z"/><path class="cls-13" d="m792.9,748.69l-3.24-7.58h-17.13l3.03,7.58h17.34Z"/><path class="cls-13" d="m751.33,748.69l-2.74-7.58h-17.03l2.32,7.58h17.45Z"/><path class="cls-13" d="m834.46,748.69l-3.63-7.58h-17.05l3.45,7.58h17.24Z"/><path class="cls-13" d="m813.69,748.69l-3.45-7.58h-17.1l3.24,7.58h17.31Z"/><path class="cls-13" d="m772.11,748.69l-3.03-7.58h-17.08l2.71,7.58h17.39Z"/><path class="cls-13" d="m656.49,748.69l-1.71-7.58h-16.26l1.47,7.58h16.5Z"/><path class="cls-13" d="m798.96,716.3l-3.21-7.05h-16.21l3,7.05h16.42Z"/><path class="cls-13" d="m827.64,727.1h15.39l-4.29-7.58h-14.76l3.66,7.58Z"/><path class="cls-13" d="m709.75,748.69l-2.24-7.58h-13.87l2.1,7.58h14Z"/><path class="cls-13" d="m818.88,716.3l-3.39-7.05h-16.21l3.21,7.05h16.39Z"/><path class="cls-13" d="m730.51,748.69l-2.32-7.58h-17.34l2.24,7.58h17.42Z"/><path class="cls-13" d="m836.93,716.3l-4-7.05h-13.9l3.39,7.05h14.5Z"/><path class="cls-13" d="m700.27,716.3l-2.05-7.05h-13.47l1.97,7.05h13.55Z"/><path class="cls-13" d="m596.67,748.69l-.87-7.58h-16.63l.29,7.58h17.21Z"/><path class="cls-13" d="m349.84,730.31l-1.68,3.95-1.55,3.63h17.03l3.05-7.58h-16.84Z"/><path class="cls-13" d="m615.15,737.89l-1.29-7.58h-16.08l.9,7.58h16.47Z"/><path class="cls-13" d="m343.1,737.89l3.26-7.58h-16.82l-1.79,3.98-1.66,3.61h17Z"/><path class="cls-13" d="m484.96,719.51l-1.71,7.58h15.89l1.5-7.58h-15.68Z"/><path class="cls-13" d="m503.91,719.51l-1.5,7.58h15.92l1.29-7.58h-15.71Z"/><path class="cls-13" d="m409.99,730.31l-2.32,7.58h17.29l2.21-7.58h-17.18Z"/><path class="cls-13" d="m370.12,730.31l-3.03,7.58h16.95l2.71-7.58h-16.63Z"/><path class="cls-13" d="m430.52,730.31l-2.21,7.58h13.84l2.11-7.58h-13.74Z"/><path class="cls-13" d="m578.72,730.31l.32,7.58h16.39l-.9-7.58h-15.82Z"/><path class="cls-13" d="m390.18,730.31l-2.74,7.58h16.87l2.32-7.58h-16.45Z"/><path class="cls-13" d="m592.91,716.3l-.82-7.05h-14.21l.29,7.05h14.74Z"/><path class="cls-13" d="m636.72,748.69l-1.5-7.58h-16.29l1.29,7.58h16.5Z"/><path class="cls-13" d="m560.2,709.25l-.26,7.05h15.03l-.29-7.05h-14.47Z"/><path class="cls-13" d="m559.8,719.51l-.32,7.58h15.89l-.29-7.58h-15.29Z"/><path class="cls-13" d="m594.17,727.1l-.87-7.58h-15l.29,7.58h15.58Z"/><path class="cls-13" d="m611.46,716.3l-1.21-7.05h-14.92l.82,7.05h15.32Z"/><path class="cls-13" d="m559.36,730.31l-.29,7.58h16.76l-.32-7.58h-16.16Z"/><path class="cls-13" d="m558.94,741.11l-.32,7.58h17.63l-.29-7.58h-17.03Z"/><path class="cls-13" d="m556.73,716.3l.26-7.05h-14.21l-.82,7.05h14.76Z"/><path class="cls-13" d="m523.44,716.3h15.29l.84-7.05h-14.95l-1.18,7.05Z"/><path class="cls-13" d="m634.59,737.89l-1.5-7.58h-16l1.29,7.58h16.21Z"/><path class="cls-13" d="m482.54,730.31l-1.71,7.58h16.18l1.5-7.58h-15.97Z"/><path class="cls-13" d="m277.84,751.9l-3.74,6.64h18.03l3.18-6.64h-17.47Z"/><path class="cls-13" d="m706.59,737.89l-2.21-7.58h-13.76l2.13,7.58h13.84Z"/><path class="cls-13" d="m696.64,751.9l1.84,6.64h14.13l-1.95-6.64h-14.03Z"/><path class="cls-13" d="m671.14,737.89l-1.92-7.58h-13.58l1.71,7.58h13.79Z"/><path class="cls-13" d="m555.41,748.69l.31-7.58h-16.66l-.87,7.58h17.21Z"/><path class="cls-13" d="m755.88,751.9l2.4,6.64h17.79l-2.66-6.64h-17.53Z"/><path class="cls-13" d="m808.77,737.89l-3.45-7.58h-16.79l3.24,7.58h17Z"/><path class="cls-13" d="m776.85,751.9l2.66,6.64h17.6l-2.84-6.64h-17.42Z"/><path class="cls-13" d="m519.2,741.11l-1.29,7.58h17.05l.9-7.58h-16.66Z"/><path class="cls-13" d="m283.94,741.11l-4.29,7.58h17.21l3.63-7.58h-16.55Z"/><path class="cls-13" d="m600.28,751.9l.79,6.64h17.58l-1.13-6.64h-17.24Z"/><path class="cls-13" d="m340.62,751.9l-2.84,6.64h17.58l2.66-6.64h-17.39Z"/><path class="cls-13" d="m555.28,751.9h-17.45l-.79,6.64h17.97l.26-6.64Z"/><path class="cls-13" d="m788.27,737.89l-3.24-7.58h-16.82l3.03,7.58h17.03Z"/><path class="cls-13" d="m298.86,751.9l-3.18,6.64h17.53l3.03-6.64h-17.37Z"/><path class="cls-13" d="m636.38,730.31l1.5,7.58h16.18l-1.71-7.58h-15.97Z"/><path class="cls-13" d="m714.01,751.9l1.95,6.64h17.58l-2.05-6.64h-17.47Z"/><path class="cls-13" d="m640.64,751.9l1.29,6.64h16.76l-1.5-6.64h-16.55Z"/><path class="cls-13" d="m727.22,737.89l-2.32-7.58h-17.18l2.21,7.58h17.29Z"/><path class="cls-13" d="m747.43,737.89l-2.71-7.58h-16.47l2.32,7.58h16.87Z"/><path class="cls-13" d="m620.78,751.9l1.13,6.64h16.76l-1.32-6.64h-16.58Z"/><path class="cls-13" d="m734.85,751.9l2.03,6.64h17.97l-2.37-6.64h-17.63Z"/><path class="cls-13" d="m296.15,719.51l-4.29,7.58h15.39l3.63-7.58h-14.74Z"/><path class="cls-13" d="m818.67,751.9l3.03,6.64h17.53l-3.21-6.64h-17.34Z"/><path class="cls-13" d="m301.94,709.25l-3.97,7.05h14.47l3.39-7.05h-13.89Z"/><path class="cls-13" d="m767.8,737.89l-3.05-7.58h-16.63l2.74,7.58h16.95Z"/><path class="cls-13" d="m512.96,758.53l1.13-6.64h-152.6l-2.66,6.64h154.13Z"/><path class="cls-13" d="m660.49,751.9l1.5,6.64h14.34l-1.66-6.64h-14.18Z"/><path class="cls-13" d="m540.7,727.1h15.58l.31-7.58h-15l-.89,7.58Z"/><path class="cls-13" d="m850.93,741.11h-16.55l8.39,17.43h18.03l-9.87-17.43Z"/><path class="cls-13" d="m832.82,737.89h16.29l-4.29-7.58h-15.63l3.63,7.58Z"/><path class="cls-13" d="m829.27,737.89l-3.66-7.58h-16.76l3.45,7.58h16.97Z"/><path class="cls-13" d="m533.83,758.53l.76-6.64h-17.24l-1.13,6.64h17.61Z"/><path class="cls-13" d="m558.49,751.9l-.26,6.64h39.6l-.76-6.64h-38.58Z"/><path class="cls-13" d="m797.77,751.9l2.82,6.64h17.58l-3.03-6.64h-17.37Z"/><path class="cls-13" d="m689.41,737.89l-2.11-7.58h-14.76l1.92,7.58h14.95Z"/><path class="cls-13" d="m677.96,751.9l1.68,6.64h15.5l-1.84-6.64h-15.34Z"/><path class="cls-13" d="m290.05,730.31l-4.29,7.58h16.29l3.66-7.58h-15.66Z"/><path class="cls-13" d="m332.39,716.3l3.21-7.05h-16.18l-3.39,7.05h16.37Z"/><path class="cls-13" d="m319.73,751.9l-3,6.64h17.55l2.84-6.64h-17.4Z"/><path class="cls-13" d="m555.83,737.89l.32-7.58h-15.82l-.87,7.58h16.37Z"/><path class="cls-13" d="m615.7,741.11h-16.66l.87,7.58h17.08l-1.29-7.58Z"/><path class="cls-13" d="m667.99,815.09h-201.1c-.87,0-1.63-.39-2.16-1.08-.5-.69-.66-1.55-.4-2.37l12.79-41.57c.34-1.13,1.37-1.87,2.55-1.87h175.52c1.19,0,2.21.76,2.55,1.87l12.79,41.57c.26.82.1,1.68-.4,2.37-.5.69-1.29,1.08-2.16,1.08Zm-188.31-44.52s-.24.08-.26.21l-12.79,41.57s0,.21.05.26c.05.05.1.11.24.11h201.1s.19-.05.24-.11c.03-.05.08-.13.05-.26l-12.79-41.57s-.16-.21-.26-.21h-175.57Z"/><path class="cls-5" d="m665.09,391.68l-218.44,34.49,210.05,105.13,217.52-32.38-209.13-107.23Z"/><path class="cls-7" d="m446.65,426.17v5l210.21,109.89,217.36-37.36v-4.79l-217.52,32.38-210.05-105.13Z"/><path class="cls-7" d="m527.91,544.44l-3.34,22.22s89.68,72.06,216.18,36.62l1.95-17.35c-111.79,18.72-182.15-17.53-214.76-41.49h-.02Z"/><path class="cls-2" d="m794.22,661.44c-11.71-9.29-20-22.98-23.95-37.41-.29-1.08-1.71-.69-1.89.24-.26-.34-.79-.39-1.24-.18-.21-.74-1.42-1.08-1.87-.19-8.03,15.56-1.82,33.15,3.55,48.55.42,1.21,1.76.55,1.34-.66-4.21-12.06-8.71-25.54-6.13-38.25-1.42,16.06,3.92,32.49,13.71,45.23.71.92,1.82-.19,1.11-1.11-8.89-11.56-13.47-26.25-13-40.84.26,5.74,1.16,11.48,3,16.88,2.82,8.29,7.53,16.22,12.21,23.56.69,1.08,1.79-.03,1.11-1.11-4.53-7.06-8.42-14.64-11.24-22.56-1.21-3.4-2-6.95-2.5-10.56,2.71,11.69,8.34,22.64,16.45,31.57.84.95,1.97.11,1.11-.84-8.87-9.77-14.21-22.27-16.42-35.17,3.26,12.08,9.26,23.51,17.21,33.33.82,1,1.63-.08.82-1.08-7.76-9.58-12.87-20.77-16.08-32.57,4.32,12.16,9.89,23.88,19.79,32.54.97.84,2.03-.13,1.05-.97-6.79-5.95-11.26-13.95-14.92-22.01,3.95,7.03,8.71,13.61,14.24,19.56.87.95,1.61-.55.74-1.47-4.87-5.24-8.58-11.01-12.18-17.14,3.71,4.98,8.03,9.53,12.95,13.4,1,.79,2.08.08,1.08-.71l-.02-.03Z"/><path class="cls-2" d="m773.64,493.2c-4.55-5.45-10.71-9.03-17.03-12.11-12.55-6.08-26.5-8.74-40.11-11.32-19.24-3.63-38.89-7-54.87-19.14-.63-.48-1.21-.24-1.58.24-.03.03-.05.05-.08.11,0,0,0,.03-.03.05-.4.48-.5,1.16.08,1.71,11.71,11.22,27.37,16.74,42.79,20.67,15.58,3.95,31.48,6.63,46.39,12.85.47.18.92.39,1.4.58.08.02.58.26.58.26.76.37,1.52.76,2.29,1.13,2.79,1.4,5.5,2.82,8.05,4.61,3.05,2.16,5.9,4.79,7.87,8,2.16,3.5,2.89,7.45,2.82,11.53-.08,4.24-.87,8.48-1.55,12.64-.71,4.32-1.34,8.66-2.03,13-1.37,8.98-2.66,17.93-3.63,26.96-2.13,19.85-2.71,40.1.87,59.84.26,1.47,2.71,1.13,2.61-.34-1.39-18.72.13-37.49,2.76-56.05,1.32-9.24,2.89-18.43,4.5-27.62,1.53-8.64,3.53-17.32,4.21-26.04.63-7.92-1.18-15.4-6.34-21.56h.03Z"/><path class="cls-12" d="m764.88,626.24c.24-.1.45-.21.69-.31q.13-.05,0,0c.08,0,.13-.05.21-.08.1-.03.21-.08.31-.11.5-.16,1-.26,1.53-.34.13,0,.24-.05.37-.05-.34,0,.05,0,.13,0h.76c.26,0,.5,0,.76.05.13,0,.24,0,.37.05.08,0,.13,0,.21.03q-.18-.03-.02,0c.37.08.68.08,1.02-.11.29-.16.55-.45.63-.76.16-.63-.13-1.53-.87-1.66-2.5-.47-5.03-.18-7.32.95-.63.32-.9,1.19-.55,1.79.37.63,1.13.87,1.79.55h-.03Z"/><path class="cls-12" d="m764.62,623.63c.23-.11.45-.21.68-.32q.13-.05,0,0c.08,0,.13-.05.21-.08.11-.02.21-.08.32-.1.5-.16,1-.26,1.53-.34.13,0,.24-.05.37-.05-.34,0,.05,0,.13,0h.76c.26,0,.5,0,.76.05.13,0,.24,0,.37.05.08,0,.13,0,.21.02q-.19-.02-.03,0c.37.08.69.08,1.03-.1.29-.16.55-.45.63-.76.16-.63-.13-1.53-.87-1.66-2.5-.48-5.03-.19-7.31.95-.63.32-.9,1.19-.55,1.79.37.63,1.13.87,1.79.55h-.02Z"/><path class="cls-3" d="m749.22,533.64l1.11-8.64-93.47,16.06-117.68-61.53-2.53,14.53,117.84,59.34,94.73-19.77Z"/><path class="cls-5" d="m654.49,553.41l-117.84-59.37-8.74,50.37c32.6,23.93,102.97,60.19,214.76,41.49l6.55-52.29-94.73,19.77v.03Z"/><path class="cls-15" d="m511.65,621.76c5.21,14.06-6,31.17-25.03,38.25-19.05,7.08-29.89-1.84-37.52-14.77-11.13-18.88-.4-29.07,18.63-36.15,19.05-7.08,38.71-1.4,43.92,12.64v.02Z"/><path class="cls-1" d="m321.52,466.95s47.24,48.68,85.97,136.06c0,0,18.37,47.44,30.42,59.29,0,0-9.76-10.98,5.13-28.54,10.95-12.9,26.89-20.8,43.76-21.38,9.45-.34,19.29,1.63,24.89,9.59,0,0-63.02-74.27-104.18-138.35-16.45-25.59-24.24-46.76-27.66-62.93,0,0-3.11-3.66-9.29-6.71-22.74-11.24-49.5,3.9-53.47,28.93-.37,2.34-.61,4.82-.66,7.48,0,0-.32,11.11,5.08,16.56Z"/><path class="cls-11" d="m437.88,662.3s20.68,24.96,67.53-5c0,0,29-19.35,14.53-53.05,0,0-30.05-22.43-53.76-50.84-23.71-28.41-53.02-67.11-77.34-118.29l-6.21-3.76s4.48,24.27,33.42,65.16c28.95,40.89,82.37,109.37,82.37,109.37l8.16,9.85c4.68,5.66,6.29,13.43,3.71,20.3-3.68,9.79-14.53,21.38-44.74,23.14l-18.87-29.3s-18.32,15.19-8.76,32.44h-.03Z"/><path class="cls-1" d="m483.62,572.42s-54.29-56.63-92.34-146.28c0,0-6.87-10.9-11.24-15.96,0,0,33.08,102.29,103.55,162.21l.03.03Z"/><path class="cls-2" d="m383.81,555.99c11.42-20.62,36.1-34.23,59.58-33.07,8.37.42,8.34-9.98,0-10.4-27.87-1.4-55.47,12.5-69,36.89,0,0,5.34,13.9,9.39,6.55l.03.03Z"/><path class="cls-7" d="m299.7,486.99h-106.52c-14.18,0-25.68,11.5-25.68,25.7v55.5c0,14.19,11.5,25.7,25.68,25.7h106.52c14.18,0,25.68-11.51,25.68-25.7v-55.5c0-14.19-11.5-25.7-25.68-25.7Z"/><path class="cls-6" d="m229.5,540.43v-19.59l16.95,9.8,16.95,9.79-16.95,9.8-16.95,9.77v-19.56Z"/><path class="cls-1" d="m215.6,358.14c0-32.65-26.45-59.08-59.05-59.08s-59.05,26.46-59.05,59.08c0,23.64,13.89,44.05,33.95,53.5v18.85h50.21v-18.85c20.05-9.45,33.95-29.83,33.95-53.5Z"/><path class="cls-2" d="m183.26,440.2h-53.45c-2.68,0-4.87-2.18-4.87-4.87s2.18-4.87,4.87-4.87h53.45c2.68,0,4.87,2.18,4.87,4.87s-2.18,4.87-4.87,4.87Z"/><path class="cls-2" d="m137,445.07h39.05v3.24c0,10.8-8.74,19.54-19.53,19.54s-19.53-8.74-19.53-19.54v-3.24Z"/><path class="cls-12" d="m183.26,449.94h-53.45c-2.68,0-4.87-2.18-4.87-4.87s2.18-4.87,4.87-4.87h53.45c2.68,0,4.87,2.18,4.87,4.87s-2.18,4.87-4.87,4.87Z"/><path class="cls-2" d="m161.92,430.46h-2.76v-82.09c0-1.45-1.16-2.61-2.61-2.61s-2.61,1.16-2.61,2.61v82.09h-2.76v-82.09c0-2.97,2.42-5.37,5.37-5.37s5.37,2.42,5.37,5.37v82.09Z"/><path class="cls-13" d="m63.71,338l-1.63,8.45,24.68,4.74c.34-2.9.84-5.71,1.5-8.48l-24.58-4.71h.03Z"/><path class="cls-13" d="m83.26,299.03l-5.21,6.87,19.68,14.9c1.58-2.42,3.29-4.71,5.16-6.9l-19.63-14.88Z"/><path class="cls-13" d="m117.76,272.73l-7.68,3.87,11.08,21.96c2.47-1.45,5.03-2.74,7.68-3.9l-11.05-21.93h-.03Z"/><path class="cls-13" d="m250.99,346.45l-1.63-8.45-24.58,4.71c.66,2.77,1.18,5.61,1.5,8.48l24.68-4.74h.02Z"/><path class="cls-13" d="m235.02,305.91l-5.21-6.87-19.63,14.88c1.84,2.19,3.58,4.5,5.16,6.9l19.68-14.9Z"/><path class="cls-13" d="m203,276.6l-7.68-3.87-11.05,21.93c2.66,1.13,5.21,2.45,7.68,3.9l11.08-21.96h-.03Z"/><path class="cls-13" d="m160.94,289.13l-.21-24.99-8.6.08.21,24.91c1.39-.08,2.79-.13,4.21-.13s2.95.05,4.39.16v-.03Z"/><path class="cls-2" d="m1028.95,809.45h-249.6v49.23h249.6v-49.23Z"/><path class="cls-12" d="m803.46,809.45h-10.05v49.23h10.05v-49.23Z"/><path class="cls-12" d="m818.56,809.45h-10.05v49.23h10.05v-49.23Z"/><path class="cls-12" d="m999.82,809.45h-10.05v49.23h10.05v-49.23Z"/><path class="cls-12" d="m1014.9,809.45h-10.05v49.23h10.05v-49.23Z"/><path class="cls-1" d="m1052.98,782.02v-7.58c0-10.77-8.76-19.53-19.53-19.53h-222.47v46.63h222.47c10.76,0,19.53-8.77,19.53-19.53v.02Z"/><path class="cls-7" d="m1033.45,746.71h-223.92v8.21h223.92c10.76,0,19.53,8.77,19.53,19.54v7.58c0,10.77-8.76,19.54-19.53,19.54h-223.92v8.21h223.92c15.29,0,27.71-12.43,27.71-27.72v-7.58c0-15.3-12.42-27.72-27.71-27.72v-.05Z"/><path class="cls-4" d="m1037.82,765.35h-226.81v3.74h226.81v-3.74Z"/><path class="cls-4" d="m1037.82,776.57h-226.81v3.74h226.81v-3.74Z"/><path class="cls-4" d="m1037.82,787.81h-226.81v3.74h226.81v-3.74Z"/><path class="cls-1" d="m791.93,722.02v-6.82c0-9.69,7.89-17.59,17.58-17.59h200.31v41.97h-200.31c-9.68,0-17.58-7.9-17.58-17.59v.02Z"/><path class="cls-2" d="m809.51,690.24h201.63v7.4h-201.63c-9.68,0-17.58,7.9-17.58,17.59v6.82c0,9.69,7.89,17.59,17.58,17.59h201.63v7.4h-201.63c-13.76,0-24.95-11.19-24.95-24.96v-6.82c0-13.77,11.18-24.96,24.95-24.96v-.05Z"/><path class="cls-4" d="m805.59,710.38h204.23v-3.37h-204.23v3.37Z"/><path class="cls-4" d="m805.59,720.49h204.23v-3.37h-204.23v3.37Z"/><path class="cls-4" d="m805.59,730.63h204.23v-3.37h-204.23v3.37Z"/><path class="cls-2" d="m389.47,166.73c9.42,0,17.08,7.42,17.08,16.56v2.53c3.42,9.66,5.53,22.25,5.53,36.04s-2.08,26.38-5.53,36.04v2.53c0,9.13-7.63,16.56-17.08,16.56-12.47,0-22.6-24.67-22.6-55.1s10.1-55.1,22.6-55.1v-.05Z"/><path class="cls-12" d="m374.54,222.55c0,18.61,1.45,33.73,3.21,33.73s3.21-15.09,3.21-33.73-1.44-33.73-3.21-33.73-3.21,15.09-3.21,33.73Z"/><path class="cls-13" d="m430.44,196.88v51.36c-1.16,12.72-12.84,24.49-28.5,28.72v-108.81c15.66,4.27,27.34,16.03,28.5,28.72Z"/><path class="cls-7" d="m401.94,282.87c2.55,0,4.63-2.03,4.63-4.5v-111.63c0-2.47-2.08-4.5-4.63-4.5s-4.63,2.03-4.63,4.5v111.63c0,2.48,2.08,4.5,4.63,4.5Z"/><path class="cls-2" d="m300.78,166.73c-9.42,0-17.08,7.42-17.08,16.56v2.53c-3.42,9.66-5.53,22.25-5.53,36.04s2.08,26.38,5.53,36.04v2.53c0,9.13,7.63,16.56,17.08,16.56,12.47,0,22.6-24.67,22.6-55.1s-10.1-55.1-22.6-55.1v-.05Z"/><path class="cls-12" d="m315.7,222.55c0,18.61-1.45,33.73-3.21,33.73s-3.21-15.09-3.21-33.73,1.45-33.73,3.21-33.73,3.21,15.09,3.21,33.73Z"/><path class="cls-13" d="m259.81,196.88v51.36c1.16,12.72,12.84,24.49,28.5,28.72v-108.81c-15.66,4.27-27.34,16.03-28.5,28.72Z"/><path class="cls-7" d="m288.31,282.87c-2.55,0-4.63-2.03-4.63-4.5v-111.63c0-2.47,2.08-4.5,4.63-4.5s4.63,2.03,4.63,4.5v111.63c0,2.48-2.08,4.5-4.63,4.5Z"/><path class="cls-13" d="m402.36,98.81c-9.26-7.66-21.39-12.48-32.92-15.32-11.81-2.9-24.18-3.66-36.26-2.24-3.66.42-7.29,1-10.87,1.76-2.45.53-5.16.92-7.45,2-2.4,1.13-4.71,2.37-7.08,3.58-6.4,3.21-12.76,6.45-19.16,9.66-2.55,1.29-2.24,5,0,6.37,5.9,3.58,12.66,4.03,19.34,2.98,4.71-.74,9-2.5,13.45-4.05,8-2.76,16.68-4.13,25.13-4.19,7.55-.03,15.18,1.11,22.16,4.08,10.32,4.45,22.66,7.4,32.9,1.16,1.87-1.13,2.63-4.24.74-5.79h.02Z"/><path class="cls-7" d="m346.73,77.14v-.08c-.53,0-1.05.03-1.61.05-.53,0-1.08-.05-1.61-.05v.08c-53.16,1.68-95.73,45.31-95.73,98.91v60.08c0,6.66,5.39,12.09,12.08,12.09v-59.24l-.26-1.55c-4.08-24.01,1.13-49.02,15.79-68.48,6.84-9.08,16.1-17.64,28.66-23.83.16-.08.29-.16.45-.21,25.55-12.48,55.74-12.48,81.29,0,.16.08.29.16.45.21,12.63,6.21,21.92,14.85,28.79,23.98,14.55,19.43,19.71,44.39,15.66,68.32l-.26,1.53v59.24c6.66,0,12.08-5.4,12.08-12.08v-60.08c0-53.6-42.58-97.23-95.76-98.91v.03Z"/><path class="cls-6" d="m1076.77,292.48h-157.02v227.18h157.02v-227.18Z"/><path class="cls-13" d="m1059.82,325.81h-123.13v5.03h123.13v-5.03Z"/><path class="cls-13" d="m1059.82,348.87h-123.13v5.03h123.13v-5.03Z"/><path class="cls-13" d="m1059.82,371.96h-123.13v5.03h123.13v-5.03Z"/><path class="cls-13" d="m1059.82,395.05h-123.13v5.03h123.13v-5.03Z"/><path class="cls-13" d="m1059.82,418.14h-123.13v5.03h123.13v-5.03Z"/><path class="cls-13" d="m1059.82,441.2h-123.13v5.03h123.13v-5.03Z"/><path class="cls-1" d="m1059.82,497.28h-123.13v1.4h123.13v-1.4Z"/><path class="cls-13" d="m953.53,475.46c6.29,1.05,12.68,1.37,19.02.82,5.87-.5,12.11-1.5,17.58-3.77,3.89-1.61,8.16-6.03,5.42-10.48-2.42-3.92-8.45-4.32-12.48-3.37-4.68,1.11-8.84,4.19-11.68,8-2.84,3.82-4.81,9.35-1.45,13.48,3.11,3.82,8.82,4.58,13.4,3.95,2.58-.37,5.08-1.21,7.34-2.53,1.05-.61,2.03-1.34,2.97-2.11,1.21-1,2.5-2.34,4.16-2.58,1.97-.26,2.45,1.21,3.68,2.32.87.76,2,1,3.13.9,1.4-.13,2.66-.74,3.95-1.24,1.63-.63,3.24-.87,4.97-.82,7.5.18,15.03,1.19,22.5,1.79,1.34.11,1.32-1.13,0-1.24-5.55-.45-11.1-1.74-16.68-2.18-2.53-.21-5.16-.61-7.69-.4-2.39.19-4.32,1.45-6.6,1.92-2.58.55-2.92-2.05-5-2.84-1.84-.71-3.84-.11-5.42.95-1.92,1.26-3.47,2.95-5.5,4.06-2.29,1.24-4.87,1.97-7.47,2.13-4.21.26-10.47-1.03-11.37-6.01-.81-4.55,2.97-9.24,6.24-11.93,3.37-2.76,7.92-4.58,12.31-3.76,2.11.39,4.82,1.37,5.34,3.71.61,2.74-1.82,4.95-4.03,6.03-2.55,1.26-5.53,1.9-8.32,2.53-3.08.69-6.21,1.19-9.34,1.45-6.16.53-12.37.84-18.48-.18-1.31-.21-1.87,1.24-.55,1.45l.03-.05Z"/><path class="cls-6" d="m1118.86,397.68l15.89,8.63c3.24,1.76,4.42,5.81,2.68,9.03l-8.12,14.97-27.6-14.98,8.12-14.97c1.76-3.24,5.81-4.42,9.03-2.68Z"/><path class="cls-7" d="m1127.23,433.97l-27.59-14.98-79.75,147.01,27.59,14.98,79.75-147.01Z"/><path class="cls-5" d="m1118.52,429.03l-9.85-5.35-79.72,147.02,9.85,5.35,79.72-147.02Z"/><path class="cls-2" d="m1134.25,429.01l-34.16-18.54-3.59,6.62,34.16,18.54,3.59-6.62Z"/><path class="cls-6" d="m1047.61,580.93l-27.61-14.98-2.82,25.04,10.95,5.95,19.47-16.01Z"/><path class="cls-7" d="m1028.14,596.93l-10.95-5.95-1.82,16.43,12.76-10.48Z"/><path class="cls-8" d="m142.13,175.11l28.24,28.28"/><path class="cls-8" d="m170.92,175.11l-28.24,28.28"/><path class="cls-8" d="m1092.29,598.96l28.24,28.25"/><path class="cls-8" d="m1121.11,598.96l-28.26,28.25"/><path class="cls-9" d="m62.42,499.91l25,25.04"/><path class="cls-9" d="m87.95,499.91l-25.03,25.04"/><path class="cls-8" d="m49.16,292.48c0,11.3-9.16,20.46-20.45,20.46s-20.45-9.16-20.45-20.46,9.16-20.46,20.45-20.46,20.45,9.16,20.45,20.46Z"/><path class="cls-8" d="m849.11,276.73c11.29,0,20.45-9.16,20.45-20.46s-9.15-20.46-20.45-20.46-20.45,9.16-20.45,20.46,9.15,20.46,20.45,20.46Z"/><path class="cls-9" d="m942.37,227.76c0,2.87-2.32,5.19-5.18,5.19s-5.18-2.32-5.18-5.19,2.32-5.19,5.18-5.19,5.18,2.32,5.18,5.19Z"/><path class="cls-9" d="m441.46,54.47c0,2.87-2.32,5.19-5.19,5.19s-5.18-2.32-5.18-5.19,2.32-5.19,5.18-5.19,5.19,2.32,5.19,5.19Z"/><path class="cls-7" d="m110.02,713.99v12.29c-16.5.92-29.66,14.61-29.66,31.36v10.45c0,17.17,13.82,31.12,30.87,31.44,6.21,33.64,35.66,59.16,71.08,59.16,39.95,0,72.31-32.38,72.31-72.35v-72.35H110h.03Zm-19.5,54.1v-10.45c0-11.14,8.61-20.3,19.5-21.19v49.89c0,1,.03,1.97.08,2.97-10.95-.87-19.58-10.03-19.58-21.19v-.03Z"/><path class="cls-6" d="m218.63,631.63c-9.21-4.74-21.29-2.5-28.68,4.74-1.32-10.56-11.34-18.53-21.87-20.12-10.53-1.58-21.18,2.11-30.42,7.4-9.05,5.19-17.5,12.38-21.29,22.09-3.79,9.71-1.66,22.25,6.92,28.17,3.5,2.4,7.95,3.08,12.1,2.37.55,3.32,1.87,6.45,4,9.08,7.16,8.71,21.95,9.59,30.08,1.76,6.16,5.45,15.63,6.85,23.1,3.37,1.63-.76,3.13-1.74,4.5-2.89-.55,7.24-3.29,14.32-7.92,19.93,8.97-3.13,16.63-9.82,20.95-18.27,2.82-5.55,4.16-11.82,3.97-18.06,6.97-1.34,13.39-6.45,15.66-13.3,3.26-9.82-1.95-21.54-11.13-26.27h.03Z"/><path class="cls-7" d="m543.15,197.35c-.37-.03-.76-.05-1.16-.05-7.69,0-13.95,6.27-13.95,13.95s6.26,13.95,13.95,13.95c.39,0,.79,0,1.13-.05,7.18-.58,12.82-6.71,12.82-13.9s-5.61-13.32-12.79-13.9Z"/><path class="cls-7" d="m592.04,211.28c0-2.42-.95-4.69-2.66-6.4-1.71-1.71-3.97-2.66-6.39-2.66h-5.16l-.52-1.74c-.69-2.29-1.61-4.5-2.74-6.61l-.87-1.61,3.66-3.66c3.53-3.53,3.53-9.24,0-12.77-1.71-1.71-3.97-2.63-6.4-2.63s-4.68.95-6.39,2.63l-3.66,3.66-1.61-.87c-2.11-1.13-4.32-2.05-6.61-2.74l-1.74-.53v-5.16c0-4.29-3.05-8-7.23-8.85-.58-.13-1.19-.18-1.79-.18-2.42,0-4.68.95-6.39,2.66-1.71,1.71-2.66,3.98-2.66,6.4v5.16l-1.74.53c-2.29.68-4.5,1.61-6.61,2.74l-1.61.87-3.66-3.66c-3.53-3.53-9.24-3.53-12.76,0-1.71,1.71-2.63,3.98-2.63,6.4s.95,4.69,2.63,6.4l3.66,3.66-.87,1.61c-1.13,2.11-2.05,4.32-2.74,6.61l-.53,1.74h-5.16c-4.97,0-9.03,4.05-9.03,9.03,0,2.42.95,4.69,2.66,6.4,1.71,1.71,3.97,2.66,6.4,2.66h5.16l.53,1.74c.68,2.29,1.61,4.5,2.74,6.61l.87,1.61-3.66,3.66c-3.53,3.53-3.53,9.24,0,12.77,1.71,1.71,3.97,2.63,6.39,2.63s4.68-.95,6.39-2.63l3.66-3.66,1.61.87c2.1,1.13,4.32,2.05,6.6,2.74l1.74.53v5.16c0,4.98,4.05,9.03,9.03,9.03.58,0,1.19-.05,1.76-.16l.26-.05c1.66-.37,3.16-1.21,4.34-2.42,1.71-1.71,2.66-3.98,2.66-6.4v-5.16l1.74-.53c2.29-.68,4.5-1.61,6.61-2.74l1.6-.87,3.66,3.66c1.71,1.71,3.97,2.63,6.39,2.63s4.68-.95,6.4-2.63c1.71-1.71,2.63-3.98,2.63-6.4s-.95-4.69-2.63-6.4l-3.66-3.66.87-1.61c1.13-2.11,2.05-4.32,2.74-6.61l.53-1.74h5.16c4.97,0,9.03-4.05,9.03-9.03v-.03Zm-31.4,17.3c-4.34,4.69-10.21,7.56-16.58,8.08-.69.05-1.4.08-2.11.08-14.03,0-25.45-11.43-25.45-25.46s11.42-25.46,25.45-25.46c.71,0,1.45.03,2.13.08,6.32.53,12.21,3.4,16.55,8.08,4.37,4.71,6.76,10.85,6.76,17.3s-2.4,12.58-6.76,17.3Z"/><path class="cls-7" d="m929.53,604.62c-.11.24-.21.48-.29.71-1.82,4.69.55,9.98,5.24,11.77,4.69,1.82,9.97-.55,11.77-5.24.1-.24.18-.47.24-.71,1.32-4.53-1.08-9.37-5.47-11.08-4.39-1.68-9.42.29-11.47,4.53v.02Z"/><path class="cls-7" d="m949.48,578.06c-1.47-.55-3.08-.53-4.5.1-1.45.63-2.55,1.79-3.11,3.27l-1.21,3.16-1.19-.08c-1.55-.11-3.11-.08-4.66.13l-1.19.16-1.37-3.08c-1.32-2.98-4.81-4.32-7.79-3-1.45.63-2.55,1.79-3.11,3.26-.55,1.47-.53,3.08.11,4.5l1.37,3.08-.9.79c-1.19,1.03-2.26,2.16-3.21,3.37l-.73.95-3.16-1.21c-2.61-1-5.58,0-7.08,2.34-.21.34-.39.68-.52,1.05-.55,1.47-.53,3.08.1,4.5.63,1.45,1.79,2.55,3.26,3.11l3.16,1.21-.08,1.19c-.1,1.55-.08,3.11.11,4.66l.16,1.19-3.08,1.37c-2.97,1.32-4.32,4.82-3,7.79.63,1.45,1.79,2.55,3.26,3.11,1.47.55,3.08.52,4.5-.11l3.08-1.37.79.9c1.03,1.18,2.16,2.26,3.37,3.21l.95.74-1.21,3.16c-1.16,3.03.34,6.45,3.39,7.63,1.47.55,3.08.53,4.5-.1,1.44-.63,2.55-1.79,3.11-3.27l1.21-3.16,1.18.08c1.55.11,3.11.08,4.66-.13l1.18-.16,1.37,3.08c1.32,2.98,4.82,4.32,7.79,3,1.45-.63,2.55-1.79,3.11-3.26.55-1.47.52-3.08-.11-4.5l-1.37-3.08.9-.79c1.18-1.03,2.26-2.16,3.21-3.37l.74-.95,3.16,1.21c3.03,1.16,6.45-.34,7.63-3.39.13-.37.24-.74.31-1.11v-.19c.19-1.08.03-2.21-.42-3.21-.63-1.45-1.79-2.55-3.26-3.11l-3.16-1.21.08-1.19c.1-1.55.08-3.11-.11-4.66l-.16-1.19,3.08-1.37c1.45-.63,2.53-1.79,3.11-3.27.58-1.47.53-3.08-.11-4.5-.63-1.45-1.79-2.55-3.26-3.11-1.47-.55-3.08-.53-4.5.11l-3.08,1.37-.79-.9c-1.02-1.19-2.16-2.26-3.37-3.21l-.95-.74,1.21-3.16c1.16-3.03-.34-6.45-3.39-7.64l-.02-.02Zm3.16,23.19c1.84,3.74,2.21,8,1.03,12.01-.13.42-.26.87-.45,1.32-3.29,8.56-12.92,12.82-21.47,9.53-8.55-3.29-12.81-12.93-9.53-21.48.16-.45.37-.87.55-1.29,1.79-3.74,4.92-6.63,8.79-8.19,3.89-1.55,8.18-1.58,12.1-.08,3.92,1.5,7.08,4.42,8.95,8.19h.03Z"/></g></svg>