<?xml version="1.0" encoding="UTF-8"?><svg id="Layer_1" xmlns="http://www.w3.org/2000/svg" xmlns:xlink="http://www.w3.org/1999/xlink" viewBox="0 0 100 100"><defs><style>.cls-1{fill:url(#linear-gradient-2);}.cls-2{fill:url(#linear-gradient-3);}.cls-3{fill:url(#linear-gradient);}</style><linearGradient id="linear-gradient" x1="-9.17" y1="19.6" x2="80.3" y2="65.75" gradientUnits="userSpaceOnUse"><stop offset="0" stop-color="#2b44ff"/><stop offset=".72" stop-color="#0014aa"/></linearGradient><linearGradient id="linear-gradient-2" x1="-16.98" y1="52.21" x2="65.33" y2="88.55" gradientUnits="userSpaceOnUse"><stop offset="0" stop-color="#2b44ff"/><stop offset=".72" stop-color="#0014aa"/></linearGradient><linearGradient id="linear-gradient-3" x1="14.01" y1="-10.87" x2="91.11" y2="51.93" gradientUnits="userSpaceOnUse"><stop offset="0" stop-color="#2b44ff"/><stop offset=".7" stop-color="#0014aa"/></linearGradient></defs><path class="cls-3" d="m49.88,59.02c-13.33,0-26.65-.02-39.98.01-2.88,0-5.42-.74-7.37-2.92-2.46-2.75-2.99-5.96-1.69-9.35,1.29-3.36,3.91-5.15,7.46-5.57.57-.07,1.16-.06,1.74-.06,26.59,0,53.17,0,79.76-.02,2.87,0,5.43.68,7.41,2.84,2.52,2.76,3.07,5.99,1.75,9.42-1.31,3.41-3.96,5.2-7.56,5.58-.64.07-1.3.06-1.95.06-13.19,0-26.38,0-39.57,0Z"/><path class="cls-1" d="m49.91,72.81c13.56,0,27.12,0,40.69,0,4.35,0,7.79,2.77,8.8,7,1.16,4.86-2.1,9.84-7.03,10.73-.8.14-1.63.21-2.44.21-26.68.01-53.36.01-80.04,0-4.55,0-7.99-2.32-9.26-6.21-1.87-5.75,2.36-11.72,8.4-11.73,13.63-.03,27.26-.01,40.89-.01Z"/><path class="cls-2" d="m49.9,27.33c-13.56,0-27.12,0-40.69,0-4.34,0-7.8-2.79-8.8-7-1.15-4.86,2.12-9.88,7.04-10.73.8-.14,1.63-.2,2.45-.2,26.68-.01,53.36-.01,80.04,0,4.92,0,8.43,2.62,9.45,7,1.29,5.55-2.89,10.93-8.6,10.94-13.63.03-27.26.01-40.89.01Z"/></svg>