<?xml version="1.0" encoding="UTF-8"?><svg id="Layer_1" xmlns="http://www.w3.org/2000/svg" viewBox="0 0 100 100"><defs><style>.cls-1{fill:#0014aa;stroke:#0014aa;stroke-linecap:round;stroke-linejoin:round;stroke-width:2px;}</style></defs><path class="cls-1" d="m39.39,49.91c-2.14-2.1-4.23-4.12-6.28-6.17-5.97-5.95-11.92-11.92-17.87-17.88-2.17-2.17-2.85-4.78-1.96-7.7.85-2.81,2.83-4.52,5.69-5.09,2.67-.53,5,.26,6.93,2.19,5.91,5.9,11.82,11.8,17.72,17.71,2.1,2.11,4.18,4.24,6.46,6.54,1.56-1.62,2.96-3.12,4.42-4.58,6.52-6.54,13.04-13.07,19.59-19.59,2.57-2.56,5.98-3.14,8.96-1.63,4.52,2.29,5.52,8.23,1.91,11.98-3.61,3.75-7.35,7.39-11.03,11.08-4.2,4.2-8.4,8.4-12.59,12.6-.18.18-.34.39-.68.78,2.24,2.18,4.47,4.32,6.66,6.5,5.83,5.81,11.67,11.63,17.46,17.48,3.46,3.5,3.05,8.94-.8,11.63-3.02,2.11-7.05,1.75-9.78-.95-4.55-4.5-9.05-9.04-13.58-13.56-3.23-3.22-6.46-6.44-9.68-9.67-.27-.27-.46-.61-.75-1.01-.52.49-.85.79-1.17,1.1-7.64,7.63-15.29,15.27-22.93,22.91-1.49,1.49-3.21,2.46-5.37,2.51-3.18.08-5.92-1.54-7.11-4.32-1.3-3.03-.93-5.91,1.37-8.3,3.66-3.81,7.44-7.51,11.18-11.25,4.22-4.23,8.45-8.45,12.68-12.68.13-.13.25-.29.55-.63Z"/></svg>