<?xml version="1.0" encoding="UTF-8"?><svg id="Layer_1" xmlns="http://www.w3.org/2000/svg" viewBox="0 0 462.58 169.76"><defs><style>.cls-1{fill:#231f20;}</style></defs><path class="cls-1" d="m382.44,77.82c.13-.37.32-.72.4-1.1.42-2.18.84-4.36,1.22-6.54,1.27-7.23,2.53-14.45,3.79-21.68.3-1.72.59-3.45.9-5.17.08-.45.23-.89.36-1.39h14.27c0,.54.07,1.04-.01,1.52-.86,4.96-1.74,9.92-2.61,14.88-1.34,7.65-2.66,15.3-4.01,22.95-.88,5-1.81,9.99-2.7,14.99-.65,3.65-1.27,7.31-1.91,10.97-.54,3.06-1.08,6.13-1.64,9.31-.44.08-.89.23-1.34.23-4.32.02-8.64,0-12.97,0-.12,0-.25-.05-.49-.1-.37-1.66-.76-3.35-1.14-5.05-1.27-5.66-2.55-11.32-3.81-16.98-1.15-5.12-2.27-10.24-3.43-15.36-.86-3.83-1.76-7.65-2.62-11.48-1.65-7.28-3.31-14.56-4.89-21.85-.22-1,0-2.11.05-3.16.03-.7.49-.94,1.13-.92.21,0,.43,0,.64,0,3.98,0,7.96,0,11.94,0,1.24,0,1.29.04,1.53,1.21,1.35,6.52,2.7,13.03,4.03,19.55.89,4.35,1.77,8.7,2.64,13.05.14.69.23,1.39.34,2.09.11.01.21.02.32.03Z"/><path class="cls-1" d="m441.82,77.73c.17-.73.39-1.44.52-2.18.86-4.87,1.71-9.74,2.56-14.61,1.05-6.01,2.09-12.01,3.14-18.02.15-.88.26-1.02,1.15-1.03,4.11-.02,8.21-.02,12.32,0,.99,0,1.16.17,1.03,1.16-.25,1.9-.59,3.79-.91,5.68-.91,5.3-1.81,10.59-2.74,15.89-.78,4.45-1.6,8.9-2.38,13.35-.85,4.83-1.66,9.67-2.51,14.49-.67,3.82-1.39,7.64-2.07,11.46-.69,3.95-1.37,7.9-2.02,11.86-.1.64-.43.89-.99.97-.29.04-.6.04-.9.04-3.89,0-7.79,0-11.68,0-1.37,0-1.41-.05-1.71-1.35-1.22-5.5-2.42-11-3.66-16.49-1.27-5.66-2.6-11.3-3.88-16.96-1.79-7.95-3.56-15.9-5.34-23.84-.93-4.16-1.85-8.33-2.85-12.47-.27-1.11,0-2.12.17-3.16.04-.24.41-.5.69-.62.26-.11.59-.03.89-.03,3.98,0,7.96,0,11.94,0,1.39,0,1.41.03,1.68,1.35.86,4.13,1.75,8.26,2.6,12.4,1.45,7.06,2.89,14.12,4.34,21.18.06.31.22.61.34.91h.26Z"/><path class="cls-1" d="m289.5,58.8c-.81,4.47-1.58,8.73-2.38,13.12.69.04,1.31.1,1.94.1,5.86,0,11.72,0,17.58.01.63,0,1.26.06,2.01.09-.09.79-.14,1.46-.25,2.12-.64,3.66-1.3,7.31-1.96,10.96-.26,1.42-.27,1.44-1.73,1.44-6.08,0-12.15,0-18.23,0-.59,0-1.18,0-1.89,0-.97,5.24-1.9,10.33-2.68,15.6.55.04.92.1,1.28.1,6.03,0,12.07,0,18.1,0,.63,0,1.25.05,2.05.09-.14,1.1-.22,2.06-.38,3.01-.58,3.41-1.18,6.81-1.77,10.21-.18,1.05-.29,1.16-1.3,1.16-11.47,0-22.93,0-34.4,0-.21,0-.41-.03-.72-.06.02-.34,0-.62.05-.89,1.22-6.89,2.46-13.77,3.68-20.66,1.08-6.09,2.15-12.18,3.22-18.27.99-5.63,1.97-11.26,2.95-16.89.21-1.22.23-1.24,1.46-1.24,3.94,0,7.87-.01,11.81-.02.42,0,.84,0,1.55,0Z"/><path class="cls-1" d="m86.39,13.16c1.12-.39,37.9-2.13,39.42-1.98-1.19,11.91-2.39,23.82-3.58,35.7-1.02.36-34.76,2.25-39.44,2.21.61-6.01,1.22-12.02,1.83-18.02.6-5.98,1.19-11.97,1.78-17.92Z"/><path class="cls-1" d="m75.24,125.32c1.22-11.98,2.42-23.84,3.63-35.8,13.06-.6,25.99-1.2,39.06-1.8-.1,1.39-.16,2.69-.29,3.99-.38,3.82-.79,7.64-1.19,11.46-.44,4.24-.88,8.49-1.29,12.74-.21,2.25-.36,4.51-.52,6.76-.09,1.2-.25,1.34-1.49,1.38-4.66.12-9.31.21-13.97.37-5.68.2-11.36.48-17.04.72-2.05.09-4.1.17-6.15.25-.16,0-.33-.03-.75-.07Z"/><path class="cls-1" d="m82.81,51.7c1.4-.13,2.54-.28,3.69-.33,5.89-.3,11.78-.59,17.67-.87,3.54-.17,7.09-.3,10.63-.47,1.45-.07,2.9-.2,4.35-.28.72-.04,1.44,0,2.14,0,.45.98.19,1.88.11,2.74-.29,3.18-.63,6.36-.96,9.54-.39,3.77-.79,7.55-1.17,11.32-.3,2.97-.57,5.94-.86,8.92-.09.93-.21,1.86-.33,2.95-.5.1-1.02.28-1.54.31-4.3.27-8.61.52-12.92.76-1.88.1-3.76.15-5.64.24-4.27.2-8.54.42-12.81.63-1.91.09-3.83.17-5.94.26.09-.91.18-1.65.24-2.39.19-2.34.35-4.68.56-7.01.24-2.76.51-5.51.79-8.27.25-2.41.57-4.82.82-7.23.26-2.54.46-5.09.71-7.64.11-1.05.29-2.09.45-3.2Z"/><path class="cls-1" d="m41.07,169.76c-4.38-9.8-8.7-19.46-13.1-29.3,12.27-.67,24.32-1.32,36.49-1.99,4.51,9.84,9,19.63,13.55,29.56-12.4.58-24.62,1.15-36.94,1.73Z"/><path class="cls-1" d="m0,78.04c12.25-.68,24.32-1.35,36.45-2.02,4.49,9.83,8.93,19.56,13.44,29.45-.55.07-.96.14-1.36.16-5.55.26-11.11.51-16.66.76-5.38.25-10.76.5-16.14.75-.3.01-.6.03-.9.05-1.8.13-1.82.14-2.53-1.46-3.96-8.84-7.91-17.69-11.87-26.54-.14-.3-.23-.63-.43-1.15Z"/><path class="cls-1" d="m344.37,42.05c-.31,1.84-.59,3.55-.88,5.27-1.25,7.23-2.49,14.46-3.76,21.69-.97,5.5-1.98,11-2.96,16.5-.98,5.54-1.95,11.09-2.92,16.64-.77,4.37-1.55,8.74-2.31,13.11-.26,1.46-.33,1.54-1.8,1.55-3.77,0-7.53,0-11.3,0-.21,0-.43,0-.64,0-.91-.07-1.08-.25-.93-1.11.33-1.93.69-3.86,1.02-5.8.75-4.33,1.5-8.66,2.26-12.99.63-3.57,1.29-7.14,1.92-10.71.91-5.21,1.81-10.42,2.72-15.63.4-2.27.83-4.53,1.22-6.8.88-5,1.75-10,2.62-15,.34-1.93.67-3.87,1.01-5.8.17-.95.24-1.05,1.12-1.05,4.32-.02,8.64-.01,12.97-.01.16,0,.32.07.66.15Z"/><path class="cls-1" d="m63.61,136.6c-1.74.08-3.31.16-4.89.23-4.83.21-9.66.4-14.48.62-5.25.24-10.5.51-15.75.74-1.37.06-1.46-.05-2.01-1.29-2.65-5.97-5.3-11.93-7.96-17.9-1.29-2.88-2.6-5.76-3.9-8.64-.12-.26-.16-.56-.28-.99.85-.04,1.6-.06,2.34-.1,3.16-.17,6.31-.36,9.47-.52,4.18-.21,8.37-.38,12.55-.6,3.63-.19,7.25-.39,10.88-.62.62-.04.93.17,1.17.72,1.43,3.2,2.88,6.38,4.33,9.57,2.39,5.24,4.79,10.48,7.18,15.73.44.96.85,1.93,1.34,3.05Z"/><path class="cls-1" d="m116.44,165.52c-12.1.75-23.99,1.33-36.01,2.01-4.33-9.59-8.66-19.18-13.09-28.97.92-.11,1.66-.24,2.4-.27,4.4-.2,8.8-.37,13.2-.57,2.94-.13,5.89-.3,8.83-.47.97-.06,1.85.12,2.7.61,4.08,2.34,8.17,4.65,12.24,7.01.41.24.81.64,1,1.07,2.77,6.1,5.51,12.22,8.25,18.34.14.31.24.63.46,1.23Z"/><path class="cls-1" d="m74.8,103.92c-7.45.42-14.9.84-22.48,1.27-4.69-9.65-8.52-19.6-13.33-29.31,1.18-.09,2.15-.18,3.12-.23,3.29-.16,6.57-.31,9.86-.45.51-.02,1.03-.02,1.54-.04,2.73-.15,5.46-.31,8.19-.46.43-.02.85-.03,1.28-.06,2.64-.15,5.29-.33,7.93-.45,1.45-.07,2.91-.04,4.36-.07.45,0,.67.21.88.59,1.01,1.85,1.41,3.72,1.13,5.88-.7,5.42-1.15,10.87-1.7,16.3-.21,2.08-.4,4.16-.61,6.25-.02.21-.09.41-.18.79Z"/><path class="cls-1" d="m247.89,59.02c-.08.77-.11,1.36-.21,1.94-1.15,6.6-2.29,13.19-3.46,19.78-1.12,6.3-2.28,12.59-3.4,18.88-.93,5.2-1.83,10.41-2.74,15.61-.26,1.47-.33,1.55-1.81,1.55-3.93.02-7.87.01-11.8,0-.33,0-.67-.06-1.16-.11.03-.55.02-1.05.1-1.53,1.06-5.96,2.14-11.92,3.19-17.88,1.23-6.97,2.43-13.94,3.65-20.91.96-5.5,1.92-11,2.85-16.5.11-.63.39-.89,1.01-.9,1.24-.02,2.48-.08,3.72-.08,2.86,0,5.73.02,8.59.04.42,0,.84.05,1.47.1Z"/><path class="cls-1" d="m50.89,50.69c-12.23.58-24.29,1.16-36.52,1.75.15-.43.21-.71.35-.95,4.09-7.16,8.19-14.3,12.25-21.48.44-.78.94-1.02,1.81-1.06,5.38-.26,10.76-.6,16.14-.91,2.09-.12,4.19-.19,6.28-.3,3.76-.2,7.51-.41,11.27-.61.42-.02.84,0,1.22,0,.07.08.1.11.12.14.02.04.05.09.03.12-4.31,7.76-8.62,15.52-12.94,23.3Z"/><path class="cls-1" d="m49.87,52.08c-.32.62-.53,1.03-.75,1.43-3.87,6.89-7.75,13.77-11.62,20.65-.1.19-.23.36-.32.55-.29.65-.73.92-1.49.94-2.44.04-4.87.16-7.3.28-4.31.22-8.62.49-12.93.7-4.91.24-9.82.45-14.73.67-.16,0-.32-.04-.65-.09.26-.47.48-.86.7-1.25,3.83-6.71,7.66-13.42,11.49-20.14.19-.33.41-.66.57-1,.25-.53.65-.73,1.22-.76,2.52-.14,5.03-.31,7.55-.45,5.76-.33,11.52-.66,17.29-.99,3.33-.19,6.66-.37,9.99-.54.25-.01.51,0,1,0Z"/><path class="cls-1" d="m77.38,2.41c-.28.6-.45,1.02-.67,1.42-3.59,6.65-7.18,13.3-10.78,19.94-.16.3-.35.59-.51.89-.25.45-.62.6-1.15.65-3.88.3-7.76.48-11.65.61-5.08.18-10.15.59-15.23.86-2.72.14-5.45.19-8.31.29.22-.45.38-.83.59-1.19,3.85-6.75,7.73-13.48,11.53-20.26.62-1.11,1.36-1.52,2.62-1.56,3.37-.09,6.74-.35,10.11-.55,2.56-.15,5.12-.29,7.68-.44,3.88-.22,7.76-.47,11.64-.67,1.27-.06,2.55-.01,4.11-.01Z"/><path class="cls-1" d="m147.58,22.6c1.07.22,18.56,9.44,19.75,10.41-.19,1.95-.38,3.94-.58,5.93-.32,3.18-.64,6.37-.98,9.55-.41,3.9-.84,7.8-1.24,11.7-.24,2.38-.41,4.76-.64,7.13-.05.49-.18.98-.3,1.61-1.17-.6-2.23-1.13-3.28-1.68-5.11-2.68-10.22-5.36-15.32-8.04-1.32-.69-1.28-.69-1.11-2.16.37-3.18.7-6.36,1.05-9.53.65-6.02,1.31-12.05,1.96-18.07.24-2.28.46-4.56.69-6.85Z"/><path class="cls-1" d="m122.58,49.58c6.65,3.54,13.09,6.97,19.6,10.44-.21,2.11-.41,4.18-.63,6.26-.22,2.12-.46,4.24-.68,6.37-.33,3.18-.66,6.37-.97,9.55-.4,4.12-.78,8.24-1.17,12.36-.05.5-.16,1-.26,1.62-6.64-3.46-13.18-6.87-19.76-10.29,1.29-12.07,2.57-24.09,3.87-36.3Z"/><path class="cls-1" d="m142.52,57.73c-6.58-3.48-12.95-6.84-19.41-10.26.98-12.07,2.14-24.1,3.42-36.32,6.64,3.4,13.08,6.97,19.63,10.4-1.21,12.01-2.41,23.97-3.64,36.18Z"/><path class="cls-1" d="m139.88,99.38c.44.19.79.31,1.11.48,5.88,3.14,11.76,6.29,17.66,9.41.65.35.79.76.71,1.43-.31,2.93-.57,5.87-.86,8.8-.32,3.23-.65,6.46-.98,9.69-.52,5.1-1.03,10.19-1.55,15.29-.03.33-.1.65-.19,1.18-6.5-3.4-12.88-6.74-19.38-10.14,1.15-11.99,2.31-23.99,3.48-36.14Z"/><path class="cls-1" d="m157.39,146.55c1.33-12.01,2.64-23.83,3.97-35.89,6.49,3.47,12.84,6.86,19.25,10.28-.11,1.37-.18,2.72-.32,4.07-.49,4.92-.99,9.84-1.52,14.76-.45,4.24-.97,8.47-1.42,12.71-.15,1.43-.22,2.87-.34,4.56-6.7-3.5-13.11-7.03-19.63-10.49Z"/><path class="cls-1" d="m159.51,107.05c-1.29-.64-2.44-1.18-3.57-1.77-5.01-2.6-10-5.22-15.01-7.81-.68-.35-.9-.77-.81-1.52.4-3.35.76-6.7,1.12-10.05.25-2.29.47-4.58.71-6.87.25-2.37.53-4.75.79-7.12.34-3.09.66-6.19,1-9.29.04-.41.12-.82.21-1.35.42.19.73.3,1.01.45,5.74,3.04,11.47,6.1,17.22,9.13.69.36,1.03.78.93,1.6-.24,2.12-.42,4.25-.63,6.37-.29,2.89-.58,5.77-.87,8.65-.22,2.17-.42,4.33-.64,6.5-.32,3.1-.63,6.2-.97,9.3-.13,1.22-.31,2.43-.49,3.78Z"/><path class="cls-1" d="m134.47,134.34c-.6-.32-1-.55-1.41-.76-5.68-2.97-11.36-5.95-17.05-8.91-.82-.43-1.06-.56-.92-1.66.32-2.4.41-4.84.66-7.25.23-2.25.57-4.48.81-6.73.26-2.42.46-4.84.71-7.26.27-2.59.57-5.17.85-7.76.15-1.36.28-2.71.44-4.07.06-.45.2-.89.33-1.45,1.1.57,2.08,1.07,3.05,1.58,4.91,2.6,9.8,5.24,14.74,7.8.98.51,1.36,1.1,1.23,2.19-.32,2.67-.56,5.35-.83,8.02-.33,3.23-.64,6.45-.97,9.68-.36,3.48-.73,6.96-1.09,10.44-.16,1.57-.3,3.14-.45,4.71-.04.38-.06.75-.11,1.4Z"/><path class="cls-1" d="m180.96,118.77c-6.56-3.5-12.96-6.91-19.37-10.33,1.33-12,2.65-23.86,3.98-35.86.35.14.66.22.94.37,5.69,3.03,11.38,6.09,17.09,9.09.73.38.99.83.91,1.6-.31,3.06-.59,6.11-.89,9.17-.38,3.91-.78,7.81-1.17,11.72-.29,2.93-.58,5.86-.87,8.79-.14,1.44-.28,2.89-.43,4.33-.03.29-.1.58-.19,1.13Z"/><path class="cls-1" d="m39.42,75.22c.93-1.64,1.74-3.07,2.56-4.51,3.16-5.52,6.31-11.05,9.5-16.55,1.18-2.04.55-1.86,3.25-2.02,5.8-.33,11.61-.57,17.42-.87,2.39-.12,4.78-.29,7.17-.43.24-.01.49,0,.8,0-.2,1.87-.39,3.65-.57,5.42-.31,2.97-.68,5.94-.9,8.91-.16,2.18-.78,4.12-1.84,6.05-.82,1.49-1.71,2.17-3.45,2.16-2.56-.02-5.12.23-7.68.38-3.92.24-7.85.52-11.77.73-4.01.22-8.03.37-12.04.56-.72.03-1.43.1-2.44.17Z"/><path class="cls-1" d="m184.76,79.9c-1.69-.86-3.14-1.59-4.57-2.34-4.54-2.38-9.06-4.79-13.62-7.15-.79-.41-1.15-.85-1.05-1.77.33-2.88.6-5.77.89-8.65.23-2.29.44-4.58.69-6.87.28-2.58.6-5.16.87-7.75.25-2.37.43-4.75.68-7.13.13-1.22.37-2.43.58-3.78.57.27,1.06.49,1.54.75,5.57,2.99,11.13,6,16.72,8.96.79.42.83.99.76,1.69-.29,2.89-.58,5.77-.86,8.66-.4,4.08-.77,8.15-1.19,12.23-.37,3.6-.79,7.2-1.19,10.81-.08.71-.15,1.42-.24,2.34Z"/><path class="cls-1" d="m346.89,116.68c3.82-21.78,7.63-43.51,11.44-65.25.07,0,.13,0,.2,0,.15.65.32,1.3.46,1.95,1.22,5.54,2.43,11.08,3.64,16.63,1.24,5.71,2.49,11.42,3.7,17.14.15.74.18,1.55.06,2.28-1.5,8.7-3.04,17.4-4.58,26.09-.19,1.08-.36,1.27-1.39,1.28-4.32.02-8.64.02-12.96.02-.16,0-.32-.07-.56-.14Z"/><path class="cls-1" d="m417.77,51.61c.27,1.19.55,2.38.81,3.57,2.21,10.13,4.41,20.26,6.64,30.38.45,2.05.36,4.04-.01,6.09-1.14,6.21-2.19,12.43-3.28,18.65-.29,1.64-.57,3.28-.86,4.92-.28,1.58-.29,1.58-1.85,1.58-2.57,0-5.13,0-7.7,0-1.28,0-2.57.01-3.85,0-.45,0-.9-.09-1.48-.15.1-.79.16-1.46.28-2.12.63-3.53,1.3-7.05,1.91-10.58,1.16-6.72,2.29-13.45,3.45-20.17.82-4.71,1.69-9.4,2.52-14.11.97-5.5,1.9-11.01,2.86-16.51.09-.52.23-1.04.35-1.55.07,0,.14,0,.21,0Z"/><path class="cls-1" d="m221.49,56.51c.21-1.3.38-2.47.58-3.63.51-3.03,1.04-6.05,1.56-9.08.29-1.73.28-1.74,2.12-1.74,11.98,0,23.97,0,35.95,0,.46,0,.92.05,1.54.08-.04.68-.02,1.26-.11,1.83-.65,3.74-1.32,7.48-1.99,11.22-.23,1.31-.28,1.37-1.52,1.37-12.37,0-24.74,0-37.11,0-.25,0-.5-.03-1.02-.06Z"/><path class="cls-1" d="m275.44,56.51c.03-.54.01-.96.08-1.37.67-3.91,1.35-7.82,2.03-11.73.26-1.49.26-1.51,1.8-1.51,8.56,0,17.12,0,25.68,0,2.7,0,5.39,0,8.09,0,.25,0,.5.03.9.06-.67,4.92-1.59,9.71-2.49,14.57h-36.09Z"/><path class="cls-1" d="m53.28,107.15c7.07-.39,14.12-.78,21.33-1.17-.14,1.53-.27,2.96-.42,4.39-.47,4.59-.92,9.17-1.43,13.76-.09.83.1,1.34.86,1.76,3.66,2.04,7.28,4.13,10.92,6.2,1.66.94,3.34,1.87,5.27,2.96-.58.14-.91.27-1.25.29-7.22.36-14.43.71-21.65,1.06-.13,0-.25-.01-.37-.02-.69-.84-12.91-27.69-13.27-29.22Z"/><path class="cls-1" d="m117.53,0c-1.03,1.81-1.88,3.33-2.74,4.85-.76,1.34-1.54,2.66-2.28,4.01-.25.45-.56.66-1.11.68-5.04.21-10.08.46-15.12.67-3.55.14-7.09.23-10.64.34-.94.03-1.1.11-1.25,1.08-.23,1.43-.38,2.88-.54,4.32-.28,2.63-.53,5.26-.8,7.9-.02.17-.07.33-.1.48-1.31.47-14.06,1.22-15.5.88,4.53-7.8,9.04-15.57,13.55-23.34,12.12-.62,24.18-1.24,36.53-1.88Z"/><path class="cls-1" d="m82.77,26.22c-.11,1.25-.19,2.35-.3,3.44-.49,4.84-.99,9.69-1.49,14.53-.14,1.36-.31,2.72-.45,4.07-.06.63-.39.84-1.01.87-5.38.28-10.76.58-16.14.88-2.65.15-5.29.29-7.94.45-.67.04-1.33.14-2.23.24.27-.53.44-.9.64-1.25,4.1-7.15,8.22-14.29,12.31-21.45.42-.73.89-1.07,1.8-1.11,4.57-.19,9.14-.48,13.71-.73.29-.02.58.03,1.09.06Z"/><path class="cls-1" d="m77.26,126.07c1.42-.08,2.85-.17,4.27-.25,6.02-.31,12.04-.62,18.06-.9,4.57-.21,9.14-.37,13.7-.58.8-.04,1.5.13,2.2.51,5.75,3.1,11.51,6.18,17.27,9.27.48.25.95.52,1.39,1.01-1.25.08-2.49.16-3.74.23-3.97.2-7.94.37-11.91.57-4.99.25-9.99.52-14.98.75-1.88.09-3.76.13-5.64.08-.74-.02-1.55-.18-2.2-.53-5.97-3.15-11.92-6.34-17.87-9.53-.21-.11-.41-.25-.61-.37.01-.09.03-.17.04-.26Z"/><path class="cls-1" d="m119.86,148.91c.24-.05.48-.14.72-.15,2.01-.1,4.01-.17,6.02-.28,2.56-.14,5.12-.31,7.68-.44,2.65-.14,5.3-.24,7.94-.38,4.18-.22,8.37-.46,12.55-.71,1.3-.08,2.5.1,3.69.76,5.58,3.06,11.21,6.04,16.81,9.06.29.16.54.38.81.57-.08.11-.12.23-.16.23-5.68.27-11.35.56-17.03.8-4.95.21-9.91.37-14.87.56-1.2.05-2.39.09-3.59.21-1.11.11-2.1-.09-3.08-.63-3.64-1.98-7.31-3.91-10.96-5.87-2.18-1.16-4.36-2.33-6.54-3.49,0-.08,0-.16,0-.24Z"/><path class="cls-1" d="m154.4,145.9c-.65.07-1.15.14-1.65.17-3.89.21-7.77.42-11.66.62-6.62.34-13.24.68-19.86,1.02-.3.02-.61,0-.9.06-1.88.42-3.49-.18-5.13-1.08-5.06-2.77-10.17-5.46-15.26-8.18-.41-.22-.8-.47-1.39-.82.41-.12.62-.22.83-.23,3.97-.21,7.94-.41,11.91-.61,4.36-.22,8.71-.45,13.07-.65,2.95-.14,5.91-.09,8.84-.41,1.88-.21,3.37.34,4.95,1.19,5.29,2.89,10.62,5.7,15.93,8.54.07.04.11.12.32.37Z"/></svg>